<?xml version="1.0" standalone="no"?>
<!DOCTYPE svg PUBLIC "-//W3C//DTD SVG 20010904//EN"
 "http://www.w3.org/TR/2001/REC-SVG-20010904/DTD/svg10.dtd">
<svg version="1.0" xmlns="http://www.w3.org/2000/svg"
 width="300.000000pt" height="300.000000pt" viewBox="0 0 300.000000 300.000000"
 preserveAspectRatio="xMidYMid meet">
<metadata>
Created by potrace 1.10, written by Peter Selinger 2001-2011
</metadata>
<g transform="translate(0.000000,300.000000) scale(0.100000,-0.100000)"
fill="#000000" stroke="none">
<path d="M1693 2243 c9 -2 25 -2 35 0 9 3 1 5 -18 5 -19 0 -27 -2 -17 -5z"/>
<path d="M1370 2159 c0 -5 -62 -10 -137 -10 -86 -1 -127 -4 -108 -9 26 -7 23
-8 -22 -10 -71 -3 -70 -3 -84 -17 -7 -7 -32 -13 -55 -13 -23 0 -44 -5 -46 -10
-2 -6 -18 -11 -36 -13 -17 -1 -32 -6 -32 -10 0 -5 -4 -5 -10 -2 -5 3 -10 1
-10 -4 0 -6 -19 -11 -42 -12 -33 0 -38 -2 -23 -9 16 -7 12 -9 -23 -15 -30 -5
-39 -11 -30 -16 9 -6 7 -9 -9 -9 -12 0 -23 -5 -25 -10 -2 -6 -13 -12 -26 -13
-12 0 -22 -7 -22 -14 0 -8 -13 -13 -32 -14 -27 0 -29 -2 -13 -9 18 -7 18 -8
-7 -15 -16 -4 -28 -11 -28 -16 0 -5 -7 -9 -16 -9 -8 0 -13 -4 -9 -9 3 -6 -2
-14 -11 -19 -9 -5 -16 -13 -16 -18 0 -5 -4 -8 -8 -7 -4 1 -11 -9 -14 -22 -4
-14 -11 -25 -16 -25 -6 0 -10 -12 -11 -27 0 -25 -1 -26 -9 -8 -9 21 -10 12
-15 -113 -4 -92 -15 -70 -17 34 l-2 99 -7 -135 c-5 -74 -11 -160 -14 -192 -4
-34 -2 -64 4 -76 8 -14 8 -29 1 -47 -7 -17 -7 -24 0 -20 7 4 11 -93 12 -282 1
-158 4 -254 7 -213 4 55 8 68 13 50 4 -14 8 -35 8 -48 0 -13 4 -20 10 -17 6 4
11 -16 11 -52 1 -32 4 -46 6 -31 2 16 9 28 14 28 5 0 8 -3 8 -7 -1 -5 -1 -17
1 -28 1 -20 1 -20 10 0 5 11 9 15 9 8 1 -7 19 -31 41 -53 22 -23 38 -45 35
-50 -3 -5 0 -12 6 -16 7 -4 9 -3 5 4 -3 6 -2 13 4 17 5 3 10 -1 10 -9 0 -9 9
-16 20 -16 11 0 23 -7 26 -15 4 -8 14 -15 23 -16 12 0 12 -2 -4 -9 -15 -7 -10
-9 25 -10 35 -1 40 -3 25 -10 -18 -8 -17 -9 8 -9 15 -1 27 -5 27 -10 0 -5 -12
-12 -27 -14 -16 -2 2 -5 40 -6 56 -1 67 -4 67 -18 0 -15 2 -16 10 -3 5 8 10
10 10 4 0 -7 6 -12 13 -11 46 1 41 -8 -8 -13 -58 -6 -57 -7 35 -10 79 -2 88
-4 50 -10 -42 -6 -40 -7 26 -8 147 -4 143 -17 -6 -22 -140 -6 -137 -6 75 -8
123 -1 225 -6 230 -11 6 -6 71 -11 145 -12 220 -2 282 0 275 11 -4 7 85 11
257 12 l263 2 -185 6 c-182 5 -207 18 -41 22 68 1 71 2 31 8 -39 6 -34 7 40
10 l85 2 -55 9 c-33 5 -69 4 -90 -2 -258 -72 -649 -78 -930 -14 -272 61 -472
172 -567 312 -60 90 -71 139 -78 353 -12 359 -11 412 7 450 l17 35 -6 -86 c-7
-103 4 -140 57 -208 120 -152 416 -272 765 -311 117 -13 387 -13 495 0 410 50
722 197 803 379 17 38 19 58 14 128 -4 52 -2 81 3 78 6 -4 10 30 10 84 0 74
-3 91 -15 91 -11 0 -15 11 -16 38 0 20 -3 31 -6 24 -6 -16 -43 29 -43 53 0 9
-4 13 -10 10 -5 -3 -10 1 -10 10 0 11 -5 15 -15 11 -9 -3 -15 0 -15 8 0 8 -12
17 -27 22 l-28 7 30 7 c28 7 27 8 -12 9 -31 1 -43 5 -43 16 0 8 -3 14 -7 14
-23 -4 -43 2 -38 11 4 6 -6 10 -22 11 -25 0 -26 1 -8 9 16 7 11 9 -22 9 -44 1
-66 16 -36 24 10 3 -1 5 -24 6 -24 0 -43 6 -43 12 0 5 -4 7 -10 4 -5 -3 -10
-2 -10 3 0 6 -6 10 -12 9 -42 -1 -68 4 -63 13 4 6 -14 10 -46 10 -45 0 -50 2
-39 16 8 8 9 14 4 13 -5 -1 -40 0 -79 2 l-70 3 95 6 c74 5 50 7 -112 8 -115 1
-208 6 -208 11 0 5 -56 9 -125 9 -69 0 -125 -4 -125 -9z m480 -39 c341 -56
604 -191 684 -352 38 -76 36 -164 -4 -234 -99 -174 -386 -305 -775 -355 -134
-17 -409 -15 -550 5 -301 42 -564 149 -678 276 -66 74 -90 131 -85 205 5 80
30 128 103 201 144 145 420 242 773 274 135 12 395 2 532 -20z m705 -673 c-10
-71 -26 -107 -71 -157 -117 -129 -348 -224 -684 -282 -116 -20 -489 -17 -626
5 -285 45 -510 136 -632 255 -68 67 -92 116 -92 193 l0 62 29 -40 c46 -64 138
-132 246 -184 92 -43 270 -101 355 -114 19 -3 58 -10 85 -15 227 -44 620 -30
849 31 111 29 308 107 346 136 88 68 143 120 162 153 29 50 43 31 33 -43z"/>
<path d="M1260 2109 c-110 -12 -274 -47 -360 -75 -222 -74 -390 -199 -424
-316 -69 -236 275 -457 799 -513 l61 -6 -4 40 c-8 84 76 190 182 230 29 10 92
22 141 26 148 11 225 -30 282 -152 36 -75 37 -85 5 -88 -9 -1 -34 -6 -54 -10
l-38 -7 0 36 c0 30 -7 44 -37 71 -32 29 -39 32 -42 17 -2 -9 -7 -21 -11 -27
-4 -5 -10 -36 -14 -67 -5 -48 -4 -58 9 -58 8 0 16 6 17 13 0 6 2 17 3 22 2 6
3 29 4 53 1 49 14 54 36 12 20 -39 19 -77 -2 -83 -11 -3 -7 -5 10 -6 41 -2
229 43 327 78 125 44 215 97 291 171 56 55 70 75 84 124 19 64 15 109 -16 166
-92 174 -400 310 -788 350 -119 12 -351 11 -461 -1z m520 -24 c19 -3 60 -10
90 -15 140 -23 301 -72 337 -101 7 -6 13 -9 13 -5 0 9 89 -39 149 -79 31 -21
113 -110 129 -139 22 -43 21 -123 -2 -174 -10 -23 -22 -42 -26 -42 -4 0 -12
-12 -19 -27 l-12 -26 -34 39 c-30 34 -42 69 -36 107 0 4 -4 7 -9 7 -6 0 -10 9
-10 19 0 11 -5 23 -11 26 -5 4 -14 17 -19 29 -4 13 -33 40 -64 60 -42 28 -70
39 -118 44 -77 10 -168 -7 -210 -38 -30 -22 -54 -23 -149 -4 -25 5 -26 3 -32
-53 -5 -47 -11 -62 -34 -81 -48 -39 -97 -60 -184 -78 -79 -17 -88 -17 -135 -1
-156 51 -184 79 -184 186 0 50 5 73 25 106 52 89 126 121 252 107 114 -13 185
-53 234 -131 20 -32 29 -40 28 -26 0 11 -6 29 -14 39 -8 10 -12 24 -8 30 3 6
3 8 -1 4 -5 -4 -20 6 -35 21 -15 15 -54 40 -87 56 -52 25 -71 28 -154 29 -99
0 -116 -5 -178 -52 -37 -29 -93 -118 -85 -137 5 -15 -9 -25 -51 -36 -30 -8
-30 -8 7 -6 33 3 37 0 37 -21 0 -13 5 -32 10 -42 12 -23 -3 -35 -22 -18 -21
20 -56 38 -72 38 -8 0 -21 7 -30 15 -13 13 -22 13 -78 0 -35 -8 -76 -15 -91
-15 -15 0 -42 -7 -60 -16 -39 -21 -117 -88 -135 -117 -12 -19 -13 -19 -7 -2 3
11 3 16 -2 12 -4 -5 -8 -21 -9 -37 -1 -16 -5 -49 -8 -74 -8 -49 -20 -52 -63
-13 -22 20 -22 21 -5 41 l17 21 -23 -20 -24 -20 -29 35 c-66 80 -75 179 -25
258 25 40 125 132 144 132 6 0 12 3 14 8 16 36 307 141 438 157 25 3 88 12
140 19 96 13 448 14 520 1z m441 -327 c53 -28 68 -42 98 -93 33 -56 36 -66 36
-142 0 -73 -3 -84 -25 -108 -72 -77 -260 -120 -345 -79 -22 10 -38 27 -45 47
-11 34 -47 70 -92 93 -26 13 -28 19 -28 75 0 74 23 122 84 176 55 49 90 61
183 62 62 1 79 -3 134 -31z m-382 -14 c21 -5 28 -10 22 -18 -34 -44 -64 -116
-65 -161 -1 -35 -6 -49 -15 -47 -63 14 -196 2 -272 -25 -38 -13 -71 -35 -115
-78 -57 -57 -71 -81 -88 -157 -7 -30 -18 -33 -91 -20 l-40 7 39 24 c54 34 79
93 72 171 -2 32 -9 68 -15 79 -6 11 -15 31 -21 45 -10 29 -7 28 70 -8 37 -17
64 -21 150 -21 100 1 109 3 180 37 82 40 105 67 116 136 7 45 13 48 73 36z
m-724 -78 c100 -46 162 -159 149 -271 -5 -51 -12 -65 -40 -92 -53 -50 -90 -57
-181 -38 -98 22 -220 60 -289 92 l-54 24 0 55 c0 87 35 150 114 207 74 53 214
64 301 23z m1295 -181 c0 -11 -26 -45 -34 -45 -1 0 0 15 2 34 3 25 8 33 18 29
8 -3 14 -11 14 -18z m-385 -181 c13 -5 14 -8 3 -15 -20 -13 -38 -11 -38 6 0
16 9 19 35 9z"/>
<path d="M1390 1915 c0 -21 74 -67 101 -63 33 5 35 26 4 38 -23 9 -25 13 -15
25 11 13 5 15 -39 15 -38 0 -51 -4 -51 -15z m76 -32 c-8 -8 -36 10 -36 25 0
13 3 12 20 -3 11 -10 18 -20 16 -22z"/>
<path d="M1546 1899 c14 -28 13 -31 -10 -54 -29 -29 -35 -30 -83 -10 -43 18
-44 18 -37 1 4 -10 -9 -15 -48 -21 -35 -6 -45 -10 -29 -13 13 -2 44 1 69 8 24
6 47 9 50 6 9 -10 -21 -37 -67 -61 -25 -13 -39 -24 -31 -24 21 -1 96 34 127
59 14 11 36 20 49 20 22 0 24 -4 24 -56 0 -30 -5 -64 -10 -75 -6 -11 -7 -19
-1 -19 17 0 42 80 35 116 -5 27 -3 34 10 34 17 0 36 -30 47 -75 7 -29 7 -29 8
8 1 32 -5 45 -39 78 -44 44 -44 43 -31 68 8 14 4 19 -19 28 l-30 11 16 -29z
m34 -74 c0 -8 -4 -15 -9 -15 -13 0 -22 16 -14 24 11 11 23 6 23 -9z"/>
<path d="M1594 1867 c46 -30 69 -53 83 -81 l14 -31 -5 35 c-7 41 -55 90 -89
89 -21 0 -21 -1 -3 -12z"/>
<path d="M1489 1761 c-13 -20 -33 -49 -44 -66 l-20 -30 25 16 c25 16 90 94 90
108 0 20 -29 4 -51 -28z"/>
<path d="M1070 1730 c0 -5 7 -7 15 -4 8 4 15 8 15 10 0 2 -7 4 -15 4 -8 0 -15
-4 -15 -10z"/>
<path d="M639 1533 c-13 -16 -12 -17 4 -4 9 7 17 15 17 17 0 8 -8 3 -21 -13z"/>
<path d="M2003 1743 c-8 -21 51 -73 83 -73 30 0 53 28 33 41 -8 5 -20 9 -27 9
-9 0 -11 7 -7 20 6 18 2 20 -35 20 -29 0 -42 -5 -47 -17z m65 -23 c14 -23 10
-25 -19 -9 -11 5 -17 14 -14 20 9 14 19 11 33 -11z"/>
<path d="M2150 1734 c15 -37 -4 -82 -37 -90 -15 -4 -39 0 -60 10 -33 16 -34
16 -28 -3 5 -16 -1 -20 -39 -25 -25 -4 -49 -12 -52 -18 -8 -12 54 -4 99 14 15
6 31 8 34 4 9 -9 -44 -62 -81 -80 -24 -12 -27 -16 -10 -16 23 0 100 47 128 78
20 23 36 28 36 12 0 -5 -7 -10 -15 -10 -8 0 -15 -5 -15 -11 0 -6 -16 -38 -35
-71 -20 -33 -34 -62 -32 -65 2 -2 21 15 42 38 40 45 69 104 61 124 -2 7 4 21
15 31 18 16 19 16 19 -5 0 -12 -3 -20 -7 -18 -5 3 -6 -22 -5 -54 2 -33 -1 -74
-7 -91 -15 -42 -6 -48 13 -9 10 18 16 55 16 96 0 37 4 65 10 65 11 0 31 -42
49 -100 10 -33 10 -33 7 18 -3 44 -9 59 -35 86 -33 34 -38 46 -18 46 22 0 67
-47 82 -86 l15 -39 -5 40 c-7 50 -32 85 -76 107 -20 11 -27 18 -16 18 9 0 17
5 17 10 0 6 -8 10 -17 10 -10 0 -28 3 -41 6 -21 6 -22 5 -12 -22z"/>
<path d="M1050 1666 c0 -3 5 -17 10 -31 10 -27 -1 -62 -24 -77 -18 -12 -59 -9
-90 7 -36 19 -42 19 -26 0 10 -12 10 -16 -1 -19 -8 -2 -38 -12 -66 -21 -29 -9
-53 -18 -53 -21 0 -6 62 7 112 24 26 9 51 13 54 9 10 -10 -25 -46 -74 -74 -24
-14 -41 -27 -39 -30 22 -21 256 145 240 170 -9 15 48 -27 69 -49 9 -11 23 -35
32 -54 l16 -35 -6 35 c-9 50 -39 95 -77 114 -31 15 -31 16 -7 17 l25 1 -26 7
c-14 5 -35 14 -47 20 -12 6 -22 10 -22 7z"/>
<path d="M900 1640 c0 -46 120 -81 128 -37 2 9 -2 17 -10 17 -7 0 -20 5 -28
10 -13 9 -13 11 0 20 11 7 0 10 -37 10 -47 0 -53 -2 -53 -20z m65 -11 c12 -19
-3 -22 -27 -5 l-22 16 21 0 c12 0 25 -5 28 -11z"/>
<path d="M1094 1567 c4 -13 -4 -21 -32 -32 -29 -12 -49 -34 -89 -95 -28 -44
-48 -80 -44 -80 15 0 90 87 110 128 12 23 25 42 29 42 8 0 0 -112 -12 -165 -7
-29 -6 -28 14 7 11 20 23 68 28 105 l7 68 18 -27 c10 -15 22 -48 27 -75 l8
-48 1 58 c1 53 -2 60 -35 95 -20 20 -33 29 -30 19z"/>
<path d="M1605 1463 c-22 -3 -43 -10 -47 -16 -17 -27 44 -77 95 -77 24 0 65
34 50 43 -4 2 -21 7 -38 11 -27 7 -28 9 -13 20 16 11 15 29 -1 24 -3 -1 -24
-3 -46 -5z m31 -40 c7 -10 14 -21 14 -25 0 -12 -58 13 -64 28 -8 21 34 18 50
-3z"/>
<path d="M1733 1441 c10 -26 9 -37 -3 -59 -23 -39 -62 -50 -116 -30 -24 8 -44
12 -44 7 0 -5 5 -9 10 -9 6 0 10 -4 10 -9 0 -5 -26 -15 -57 -22 -71 -15 -97
-34 -33 -24 25 4 60 13 79 21 42 17 51 18 51 1 0 -15 -73 -71 -112 -86 -15 -6
-17 -10 -7 -10 27 -1 89 28 131 61 21 17 40 29 43 26 3 -3 -10 -28 -30 -57
-31 -45 -33 -51 -16 -51 28 0 109 115 103 146 -1 6 5 17 13 24 9 8 13 21 9 36
-5 21 -2 25 25 30 34 7 43 24 12 24 -10 0 -32 3 -49 6 l-31 6 12 -31z m-13
-115 c0 -3 -4 -8 -10 -11 -5 -3 -10 -1 -10 4 0 6 5 11 10 11 6 0 10 -2 10 -4z"/>
<path d="M1776 1415 c-3 -10 1 -15 11 -15 30 0 82 -49 94 -90 17 -56 24 -42 9
19 -9 37 -20 57 -45 75 -38 29 -60 33 -69 11z"/>
<path d="M1358 1203 c6 -2 18 -2 25 0 6 3 1 5 -13 5 -14 0 -19 -2 -12 -5z"/>
<path d="M973 2143 c9 -2 23 -2 30 0 6 3 -1 5 -18 5 -16 0 -22 -2 -12 -5z"/>
<path d="M1038 2143 c12 -2 30 -2 40 0 9 3 -1 5 -23 4 -22 0 -30 -2 -17 -4z"/>
<path d="M2015 2120 c3 -5 8 -10 11 -10 2 0 4 5 4 10 0 6 -5 10 -11 10 -5 0
-7 -4 -4 -10z"/>
<path d="M688 2043 c7 -3 16 -2 19 1 4 3 -2 6 -13 5 -11 0 -14 -3 -6 -6z"/>
<path d="M161 1894 c0 -11 3 -14 6 -6 3 7 2 16 -1 19 -3 4 -6 -2 -5 -13z"/>
<path d="M475 1870 c3 -5 8 -10 11 -10 2 0 4 5 4 10 0 6 -5 10 -11 10 -5 0 -7
-4 -4 -10z"/>
<path d="M2572 1780 c0 -14 2 -19 5 -12 2 6 2 18 0 25 -3 6 -5 1 -5 -13z"/>
<path d="M2592 1760 c0 -14 2 -19 5 -12 2 6 2 18 0 25 -3 6 -5 1 -5 -13z"/>
<path d="M2590 1650 c-1 -47 -1 -98 1 -115 2 -16 4 -59 4 -95 0 -53 -6 -75
-27 -111 -94 -160 -364 -294 -718 -355 -160 -28 -560 -26 -725 4 -313 56 -557
171 -661 311 -41 54 -55 61 -31 14 49 -93 236 -211 429 -271 256 -80 564 -116
807 -93 64 6 139 13 166 15 41 3 96 13 220 41 6 1 24 8 40 15 43 18 167 60
177 60 4 0 8 -56 8 -124 0 -106 -3 -126 -18 -137 -15 -13 -15 -13 3 -3 18 11
20 22 20 140 l0 129 78 47 c94 56 140 95 191 162 l38 51 -6 -180 c-4 -99 -9
-200 -12 -225 -17 -141 -142 -294 -292 -357 -26 -11 -32 -11 -27 -1 4 7 -3 2
-15 -12 -12 -14 -19 -19 -15 -12 9 17 -6 15 -34 -5 -13 -9 -49 -29 -80 -45
-51 -26 -53 -28 -21 -23 19 3 37 10 38 15 2 6 19 10 38 10 22 0 33 4 31 13 -1
7 10 13 26 15 15 2 27 8 27 13 0 5 24 10 53 10 44 1 48 2 22 9 -22 6 -25 8
-10 10 11 1 23 2 28 1 4 0 7 5 7 12 0 19 37 40 43 24 3 -7 6 -4 6 6 1 9 8 17
17 17 8 0 12 5 9 10 -3 6 1 10 9 10 9 0 16 7 16 15 0 8 5 15 11 15 6 0 9 -7 5
-15 -3 -8 -1 -15 4 -15 6 0 10 14 10 31 0 17 4 28 10 24 6 -3 10 3 10 15 0 11
7 23 15 26 8 4 15 12 15 20 0 8 5 14 10 14 6 0 10 11 10 24 0 14 7 31 15 40 8
8 16 34 17 58 1 24 4 5 8 -42 4 -51 7 34 8 215 1 204 6 305 13 312 7 7 9 30 4
65 -3 29 -9 105 -14 168 l-7 115 -4 -85z"/>
<path d="M353 1615 c0 -22 2 -30 4 -17 2 12 2 30 0 40 -3 9 -5 -1 -4 -23z"/>
<path d="M354 1420 c0 -85 2 -120 3 -77 2 42 2 112 0 155 -1 42 -3 7 -3 -78z"/>
<path d="M2644 1405 c0 -71 1 -99 3 -62 2 37 2 96 0 130 -2 34 -3 4 -3 -68z"/>
<path d="M2673 1455 c0 -44 2 -61 4 -37 2 23 2 59 0 80 -2 20 -4 1 -4 -43z"/>
<path d="M301 1434 c0 -11 3 -14 6 -6 3 7 2 16 -1 19 -3 4 -6 -2 -5 -13z"/>
<path d="M302 1320 c0 -14 2 -19 5 -12 2 6 2 18 0 25 -3 6 -5 1 -5 -13z"/>
<path d="M2672 1320 c0 -14 2 -19 5 -12 2 6 2 18 0 25 -3 6 -5 1 -5 -13z"/>
<path d="M352 1235 c0 -16 2 -22 5 -12 2 9 2 23 0 30 -3 6 -5 -1 -5 -18z"/>
<path d="M2641 1244 c0 -11 3 -14 6 -6 3 7 2 16 -1 19 -3 4 -6 -2 -5 -13z"/>
<path d="M2672 1180 c0 -14 2 -19 5 -12 2 6 2 18 0 25 -3 6 -5 1 -5 -13z"/>
<path d="M351 1164 c0 -11 3 -14 6 -6 3 7 2 16 -1 19 -3 4 -6 -2 -5 -13z"/>
<path d="M2672 1100 c0 -19 2 -27 5 -17 2 9 2 25 0 35 -3 9 -5 1 -5 -18z"/>
<path d="M465 1090 c9 -44 25 -63 25 -29 0 13 -8 33 -16 44 -15 19 -16 18 -9
-15z"/>
<path d="M353 1045 c0 -27 2 -38 4 -22 2 15 2 37 0 50 -2 12 -4 0 -4 -28z"/>
<path d="M2644 980 c0 -58 1 -81 3 -52 2 28 2 76 0 105 -2 28 -3 5 -3 -53z"/>
<path d="M331 984 c0 -11 3 -14 6 -6 3 7 2 16 -1 19 -3 4 -6 -2 -5 -13z"/>
<path d="M461 990 c0 -8 6 -28 14 -45 13 -30 13 -30 14 -4 1 14 -6 34 -14 45
-11 14 -14 15 -14 4z"/>
<path d="M353 935 c0 -33 2 -45 4 -27 2 18 2 45 0 60 -2 15 -4 0 -4 -33z"/>
<path d="M2672 960 c0 -14 2 -19 5 -12 2 6 2 18 0 25 -3 6 -5 1 -5 -13z"/>
<path d="M2220 844 c0 -31 23 -28 28 4 2 15 -2 22 -12 22 -11 0 -16 -9 -16
-26z"/>
<path d="M2568 810 c-3 -16 -1 -30 4 -30 4 0 8 14 8 30 0 17 -2 30 -4 30 -2 0
-6 -13 -8 -30z"/>
<path d="M432 770 c0 -14 2 -19 5 -12 2 6 2 18 0 25 -3 6 -5 1 -5 -13z"/>
<path d="M2145 748 c-38 -22 -63 -37 -55 -34 8 2 39 13 68 22 28 10 52 24 52
31 0 15 16 17 23 3 3 -6 4 -5 3 2 -4 21 -20 17 -91 -24z"/>
<path d="M2565 760 c-3 -5 -1 -10 4 -10 6 0 11 5 11 10 0 6 -2 10 -4 10 -3 0
-8 -4 -11 -10z"/>
<path d="M2227 733 c-13 -12 -7 -43 6 -37 7 2 13 13 13 24 0 20 -7 25 -19 13z"/>
<path d="M1293 711 c-1 -13 6 -20 23 -24 20 -3 24 0 24 19 0 18 -6 24 -23 24
-15 0 -23 -6 -24 -19z"/>
<path d="M475 680 c-3 -5 -1 -10 4 -10 6 0 11 5 11 10 0 6 -2 10 -4 10 -3 0
-8 -4 -11 -10z"/>
<path d="M2467 620 c3 -11 7 -20 9 -20 2 0 4 9 4 20 0 11 -4 20 -9 20 -5 0 -7
-9 -4 -20z"/>
<path d="M1294 590 c0 -14 7 -20 23 -20 16 0 23 6 23 20 0 14 -7 20 -23 20
-16 0 -23 -6 -23 -20z"/>
<path d="M570 580 c0 -5 5 -10 10 -10 6 0 10 5 10 10 0 6 -4 10 -10 10 -5 0
-10 -4 -10 -10z"/>
<path d="M625 580 c3 -5 8 -10 11 -10 2 0 4 5 4 10 0 6 -5 10 -11 10 -5 0 -7
-4 -4 -10z"/>
<path d="M2465 580 c3 -5 8 -10 11 -10 2 0 4 5 4 10 0 6 -5 10 -11 10 -5 0 -7
-4 -4 -10z"/>
<path d="M608 553 c6 -2 18 -2 25 0 6 3 1 5 -13 5 -14 0 -19 -2 -12 -5z"/>
<path d="M2398 553 c6 -2 18 -2 25 0 6 3 1 5 -13 5 -14 0 -19 -2 -12 -5z"/>
<path d="M2293 533 c9 -2 23 -2 30 0 6 3 -1 5 -18 5 -16 0 -22 -2 -12 -5z"/>
<path d="M2243 503 c20 -2 54 -2 75 0 20 2 3 4 -38 4 -41 0 -58 -2 -37 -4z"/>
<path d="M2153 453 c9 -2 25 -2 35 0 9 3 1 5 -18 5 -19 0 -27 -2 -17 -5z"/>
<path d="M808 433 c6 -2 18 -2 25 0 6 3 1 5 -13 5 -14 0 -19 -2 -12 -5z"/>
<path d="M2078 433 c12 -2 30 -2 40 0 9 3 -1 5 -23 4 -22 0 -30 -2 -17 -4z"/>
<path d="M788 403 c7 -3 16 -2 19 1 4 3 -2 6 -13 5 -11 0 -14 -3 -6 -6z"/>
<path d="M1028 353 c6 -2 18 -2 25 0 6 3 1 5 -13 5 -14 0 -19 -2 -12 -5z"/>
<path d="M1108 353 c23 -2 59 -2 80 0 20 2 1 4 -43 4 -44 0 -61 -2 -37 -4z"/>
<path d="M1418 353 c94 -2 250 -2 345 0 94 1 17 3 -173 3 -190 0 -267 -2 -172
-3z"/>
<path d="M1158 333 c6 -2 18 -2 25 0 6 3 1 5 -13 5 -14 0 -19 -2 -12 -5z"/>
<path d="M1257 333 c18 -2 50 -2 70 0 21 2 7 4 -32 4 -38 0 -55 -2 -38 -4z"/>
<path d="M1393 333 c15 -2 37 -2 50 0 12 2 0 4 -28 4 -27 0 -38 -2 -22 -4z"/>
<path d="M1553 333 c48 -2 125 -2 170 0 45 1 6 3 -88 3 -93 0 -130 -2 -82 -3z"/>
<path d="M1833 333 c15 -2 37 -2 50 0 12 2 0 4 -28 4 -27 0 -38 -2 -22 -4z"/>
<path d="M1118 303 c29 -2 74 -2 100 0 26 2 2 3 -53 3 -55 0 -76 -1 -47 -3z"/>
<path d="M1283 303 c9 -2 25 -2 35 0 9 3 1 5 -18 5 -19 0 -27 -2 -17 -5z"/>
<path d="M1353 303 c9 -2 23 -2 30 0 6 3 -1 5 -18 5 -16 0 -22 -2 -12 -5z"/>
<path d="M1523 303 c71 -2 183 -2 250 0 67 1 10 3 -128 3 -137 0 -192 -2 -122
-3z"/>
</g>
</svg>
