<?xml version="1.0" standalone="no"?>
<!DOCTYPE svg PUBLIC "-//W3C//DTD SVG 20010904//EN"
 "http://www.w3.org/TR/2001/REC-SVG-20010904/DTD/svg10.dtd">
<svg version="1.0" xmlns="http://www.w3.org/2000/svg"
 width="300.000000pt" height="238.000000pt" viewBox="0 0 300.000000 238.000000"
 preserveAspectRatio="xMidYMid meet">
<metadata>
Created by potrace 1.10, written by Peter Selinger 2001-2011
</metadata>
<g transform="translate(0.000000,238.000000) scale(0.100000,-0.100000)"
fill="#000000" stroke="none">
<path d="M2995 1190 c0 -657 1 -926 2 -597 2 328 2 866 0 1195 -1 328 -2 59
-2 -598z"/>
<path d="M1525 1876 c-139 -22 -204 -50 -305 -130 -92 -73 -107 -82 -263 -147
-179 -74 -265 -127 -354 -214 -75 -75 -76 -77 -123 -260 -21 -81 -17 -95 41
-146 49 -43 54 -50 61 -105 20 -160 28 -182 71 -206 44 -23 293 -80 472 -108
52 -9 90 -8 148 1 69 10 82 10 125 -7 62 -25 162 -23 222 4 25 11 65 37 90 59
l45 40 109 6 c134 7 250 39 274 75 15 23 14 27 -11 73 -26 45 -27 50 -13 82 8
19 26 43 41 53 63 44 113 97 148 157 33 55 46 67 95 91 70 34 93 52 126 101
32 47 33 86 2 150 -26 56 -66 96 -141 143 -58 36 -86 77 -96 145 -15 94 -61
127 -202 146 -104 15 -461 12 -562 -3z m470 -6 c66 -5 143 -16 172 -25 61 -18
103 -62 103 -106 0 -35 24 -95 48 -123 9 -10 47 -38 84 -62 46 -30 75 -57 93
-88 64 -110 39 -176 -94 -245 -68 -35 -86 -50 -114 -94 -39 -61 -90 -111 -143
-141 -72 -40 -104 -146 -59 -196 20 -23 19 -26 -12 -38 -58 -23 -122 -34 -225
-41 l-106 -7 -57 -52 c-83 -76 -181 -101 -263 -66 -30 13 -58 14 -147 9 -121
-7 -199 3 -426 55 -168 39 -208 55 -214 89 -3 14 -10 45 -15 69 -6 23 -10 56
-10 73 0 43 -15 68 -72 119 l-50 46 17 74 c37 160 45 178 97 235 69 76 202
162 338 219 162 68 194 86 285 156 44 34 97 71 117 81 110 56 379 81 653 59z"/>
<path d="M1498 1840 c-61 -11 -180 -65 -209 -96 -12 -13 -18 -24 -12 -24 5 0
63 16 127 35 125 36 328 75 405 76 25 0 55 4 66 9 25 11 -312 11 -377 0z"/>
<path d="M1325 1622 c-193 -67 -347 -273 -314 -419 14 -66 32 -94 93 -150 99
-91 191 -119 353 -110 82 5 116 12 173 36 87 36 171 99 213 160 29 42 32 53
32 121 -1 92 -27 148 -110 239 -91 98 -188 141 -314 141 -45 -1 -96 -8 -126
-18z m280 -43 c74 -29 176 -128 218 -210 30 -60 36 -137 15 -186 -15 -35 -108
-128 -136 -138 -12 -3 -20 -10 -18 -14 3 -4 0 -8 -7 -8 -7 -1 -37 -11 -67 -22
-54 -21 -146 -29 -136 -12 14 22 -24 43 -104 59 -77 15 -85 19 -82 38 4 29
-85 103 -132 111 -49 8 -69 -10 -61 -55 8 -44 -11 -40 -37 8 -26 49 -24 148 3
203 25 49 72 110 114 149 30 28 154 94 190 101 54 11 183 -2 240 -24z m-398
-440 c17 -15 40 -32 50 -37 27 -16 9 -25 -35 -17 -50 8 -108 55 -99 79 9 23
41 13 84 -25z m-72 -39 c20 -32 205 -90 288 -90 20 0 37 -4 37 -10 0 -6 -35
-10 -85 -10 -118 0 -197 32 -254 103 -8 10 -9 17 -3 17 6 0 14 -5 17 -10z"/>
<path d="M1285 1526 c-93 -32 -145 -76 -145 -122 0 -55 95 -104 204 -104 46 0
146 26 146 38 0 4 12 13 28 20 44 19 80 45 103 75 19 26 20 29 5 52 -21 32
-69 44 -196 50 -75 4 -117 1 -145 -9z m279 -38 c22 -7 41 -18 43 -25 5 -13
-56 -57 -137 -99 -67 -35 -167 -40 -243 -11 -88 35 -79 77 27 129 59 28 65 29
166 24 58 -2 123 -11 144 -18z"/>
<path d="M900 1374 c-83 -24 -209 -80 -240 -106 -71 -60 -62 -158 14 -158 19
0 19 0 -1 23 -33 36 -35 46 -18 74 28 47 80 79 208 128 67 26 124 49 126 51
15 13 -15 9 -89 -12z"/>
<path d="M2489 1331 c-25 -35 -86 -72 -167 -102 -20 -7 -49 -33 -75 -68 -33
-43 -59 -64 -117 -94 -41 -21 -88 -51 -105 -66 -16 -16 -52 -41 -80 -55 -40
-21 -44 -26 -20 -21 17 3 50 19 75 35 25 16 86 51 135 78 63 35 103 66 133
101 30 36 67 63 125 93 68 36 86 50 106 86 29 54 24 61 -10 13z"/>
<path d="M1895 1170 c-40 -77 -155 -170 -247 -199 -51 -17 -55 -27 -14 -41 83
-27 172 39 246 182 23 44 39 82 37 85 -3 3 -13 -10 -22 -27z"/>
<path d="M1810 930 c-58 -32 -210 -78 -300 -90 -50 -7 -133 -10 -200 -6 -89 4
-108 3 -85 -6 52 -18 310 -16 383 4 81 23 200 73 232 98 32 25 15 25 -30 0z"/>
<path d="M1360 920 c-12 -8 -12 -10 2 -15 25 -10 91 -1 96 13 4 15 -75 17 -98
2z"/>
</g>
</svg>
