<?xml version="1.0" standalone="no"?>
<!DOCTYPE svg PUBLIC "-//W3C//DTD SVG 20010904//EN"
 "http://www.w3.org/TR/2001/REC-SVG-20010904/DTD/svg10.dtd">
<svg version="1.0" xmlns="http://www.w3.org/2000/svg"
 width="128.000000pt" height="128.000000pt" viewBox="0 0 128.000000 128.000000"
 preserveAspectRatio="xMidYMid meet">
<metadata>
Created by potrace 1.10, written by Peter Selinger 2001-2011
</metadata>
<g transform="translate(0.000000,128.000000) scale(0.100000,-0.100000)"
fill="#000000" stroke="none">
<path d="M1068 1236 c-24 -49 -41 -158 -35 -219 4 -49 2 -55 -33 -97 -46 -56
-63 -87 -54 -102 4 -7 3 -8 -4 -4 -7 4 -30 -32 -62 -96 -86 -176 -100 -184
-246 -130 -81 29 -115 37 -189 39 -58 2 -110 10 -145 23 -102 36 -227 21 -264
-32 -21 -29 -20 -38 2 -38 19 0 42 -18 42 -32 0 -4 -16 -8 -35 -8 -49 0 -45
-20 10 -50 40 -22 95 -82 95 -104 0 -4 -12 -7 -27 -6 -16 1 -31 1 -35 0 -13
-4 -27 -7 -37 -9 -12 -1 -20 -50 -10 -57 4 -2 6 -11 3 -18 -6 -17 11 -29 43
-31 30 -1 29 9 -2 29 -39 26 -16 66 38 66 22 0 30 -6 38 -30 10 -27 29 -33 29
-9 0 6 -5 7 -10 4 -6 -4 -10 6 -10 24 0 31 -29 91 -44 91 -6 0 -1 7 10 16 19
15 18 15 -3 11 -13 -3 -26 -1 -29 5 -4 6 6 9 22 8 44 -3 54 -1 54 11 0 5 -5 7
-10 4 -6 -4 -9 -1 -8 7 2 7 -7 13 -22 15 -14 1 -17 -1 -7 -3 30 -9 19 -27 -13
-20 -19 3 -29 2 -25 -4 9 -14 -7 -12 -29 5 -18 14 -18 15 8 25 15 5 34 10 42
10 8 0 12 5 9 10 -4 6 -11 7 -17 4 -6 -4 -8 -2 -4 4 3 6 -4 18 -16 26 -25 18
-34 48 -12 39 10 -4 12 0 8 11 -3 9 -1 16 5 16 6 0 11 -14 11 -30 0 -30 1 -31
40 -26 30 3 42 0 50 -12 8 -15 9 -14 10 5 0 13 -5 22 -12 20 -7 -1 -13 4 -12
11 3 42 2 42 31 27 25 -13 29 -13 34 3 5 14 8 12 14 -10 8 -32 9 -32 35 -16
22 14 25 12 34 -25 6 -26 5 -28 -16 -21 -13 3 -25 11 -26 16 -2 5 -10 3 -18
-3 -10 -8 -18 -9 -25 -2 -8 8 -7 13 0 17 6 4 11 13 11 19 0 7 -4 6 -10 -3 -6
-10 -10 -11 -10 -2 0 6 -4 12 -10 12 -13 0 -13 -23 1 -54 10 -22 14 -23 26
-10 8 8 18 14 23 14 8 0 26 -58 22 -72 -1 -5 3 -8 8 -8 6 0 10 -14 10 -31 0
-25 -3 -29 -13 -20 -8 6 -18 7 -23 3 -4 -4 -3 0 4 9 13 17 7 29 -14 29 -10 0
-11 -7 -2 -32 6 -18 13 -27 16 -20 3 9 8 8 18 -5 9 -12 13 -13 14 -5 0 7 4 11
8 8 5 -3 6 9 4 26 -3 22 -1 29 7 24 6 -4 9 -12 6 -17 -4 -5 -3 -9 2 -9 4 0 9
-19 11 -42 2 -24 8 -47 14 -53 8 -7 9 -5 5 8 -4 9 -2 17 4 17 5 0 2 11 -7 26
-13 19 -14 28 -5 37 8 8 11 7 11 -6 0 -9 5 -17 10 -17 6 0 8 10 5 23 -5 18 -2
23 14 24 12 1 21 -3 21 -9 0 -6 2 -9 5 -6 3 3 3 12 -1 21 -4 12 -11 14 -29 7
-15 -6 -27 -6 -30 0 -4 6 -5 10 -3 11 2 0 10 2 18 4 8 2 23 6 33 10 9 4 17 3
17 -2 0 -5 7 -18 16 -29 14 -18 15 -18 4 4 -8 17 -8 22 2 20 6 -2 14 10 17 26
3 16 13 31 21 33 12 4 12 3 1 -5 -10 -7 -10 -11 -1 -17 9 -6 9 -10 -1 -17 -11
-8 -10 -9 2 -5 9 3 22 0 28 -6 14 -14 14 -2 0 26 -9 20 -9 20 4 5 16 -21 31
-24 22 -5 -4 6 1 3 9 -7 9 -11 16 -15 16 -10 0 6 13 9 30 6 18 -3 30 0 30 7 0
6 -16 11 -35 11 -19 0 -35 4 -35 9 0 12 -86 35 -99 26 -6 -3 -11 -2 -11 3 0 5
-10 14 -22 20 -23 10 -23 11 5 11 15 1 27 -4 27 -10 0 -8 4 -8 14 0 11 9 15 9
19 -1 3 -7 6 -4 6 7 1 18 4 16 26 -10 13 -16 24 -25 25 -19 0 6 7 11 15 11 8
0 12 -3 9 -6 -3 -3 25 -13 63 -22 60 -15 65 -17 41 -24 -28 -7 -31 -15 -31
-67 1 -17 -4 -28 -12 -28 -18 0 -24 21 -14 42 6 11 4 18 -5 21 -10 4 -12 -1
-9 -16 5 -22 5 -22 -10 -2 -9 11 -17 15 -17 9 0 -6 7 -17 15 -24 8 -7 12 -17
9 -22 -3 -5 -12 -1 -20 9 -7 10 -14 13 -14 7 0 -15 25 -36 34 -27 3 4 13 -3
22 -15 8 -12 20 -19 26 -16 6 4 5 9 -3 15 -11 6 -10 9 4 15 9 3 17 15 17 26 0
12 -4 17 -12 12 -7 -4 -8 -3 -4 4 18 30 31 10 31 -48 0 -46 -3 -60 -14 -60
-12 0 -12 -3 -3 -12 10 -10 15 -10 22 1 7 12 12 12 23 3 7 -7 17 -9 20 -6 4 4
-5 15 -18 26 -14 11 -25 25 -25 31 0 7 7 4 15 -7 7 -10 19 -15 24 -11 6 3 14
-1 17 -10 5 -11 10 -13 19 -5 10 9 16 7 24 -8 6 -11 8 -22 5 -25 -3 -3 1 -16
10 -29 l16 -23 -4 33 c-2 17 -9 38 -16 46 -6 9 -9 19 -7 23 3 5 -1 17 -9 28
-8 10 -14 13 -14 6 0 -7 -5 -9 -11 -6 -6 4 -8 13 -5 21 3 8 0 13 -6 11 -6 -1
-12 3 -15 9 -2 6 8 14 22 16 22 5 25 2 19 -15 -5 -16 -3 -19 10 -14 11 4 15 3
11 -4 -4 -5 -1 -16 5 -24 10 -12 15 -12 36 3 29 21 30 28 3 35 -16 4 -18 3 -9
-8 8 -9 6 -14 -6 -19 -23 -9 -27 -8 -21 9 4 8 2 17 -3 20 -6 4 -10 15 -10 27
0 17 -3 18 -15 8 -8 -7 -21 -10 -29 -7 -8 3 -17 1 -20 -6 -5 -9 -7 -9 -12 1
-3 6 -15 12 -25 12 -24 0 -16 18 9 20 56 3 72 6 72 15 0 6 5 3 10 -5 6 -10 10
-11 10 -2 0 6 7 12 15 12 8 0 15 -5 15 -11 0 -5 -4 -7 -10 -4 -5 3 -10 0 -10
-7 0 -14 20 -48 20 -34 0 5 8 3 18 -5 16 -12 16 -12 0 5 -12 14 -14 25 -7 42
6 16 5 24 -2 24 -8 0 -8 4 0 13 6 8 7 18 3 23 -4 4 2 2 12 -6 18 -14 19 -13
14 6 -3 14 1 25 14 33 10 6 16 17 12 23 -4 6 1 17 12 25 16 12 17 15 4 23 -10
7 -11 10 -2 10 6 0 12 9 12 20 0 11 7 23 15 26 8 4 13 9 10 14 -2 4 13 6 35 5
43 -2 47 7 22 52 -7 13 -8 24 -2 28 5 3 6 13 3 22 -5 13 -2 15 11 10 10 -4 25
-7 33 -7 13 0 13 -3 3 -15 -8 -9 -9 -15 -2 -15 6 0 13 4 17 9 3 5 24 20 48 33
l42 24 1 -39 c1 -22 -1 -35 -5 -30 -3 5 -15 13 -26 17 -16 6 -18 5 -7 -5 6 -7
12 -21 12 -30 0 -10 5 -21 12 -25 7 -5 8 -3 3 6 -5 9 -4 11 3 6 13 -8 14 -84
2 -131 -4 -16 -8 -22 -9 -12 0 9 -6 17 -11 17 -7 0 -7 -7 1 -22 12 -22 4 -77
-25 -175 l-13 -42 59 50 c72 63 78 84 44 149 -23 44 -26 61 -26 148 0 105 6
121 82 215 20 25 23 40 23 115 0 48 -3 95 -8 106 -6 16 -12 13 -47 -25 -21
-24 -39 -50 -40 -57 0 -7 -11 -18 -25 -24 -14 -6 -25 -18 -25 -27 0 -9 -11
-28 -24 -43 -14 -14 -22 -29 -19 -32 4 -3 -1 -6 -10 -6 -21 0 -22 16 -3 27 8
4 16 19 19 33 2 14 2 20 0 13 -2 -7 -11 -9 -19 -6 -9 3 -11 8 -6 12 6 3 16 28
24 55 8 28 21 52 29 54 12 3 12 2 0 -6 -7 -5 -10 -15 -6 -21 4 -7 1 -19 -7
-28 -9 -12 -9 -15 0 -9 6 4 12 2 12 -3 0 -6 7 -11 16 -11 13 0 15 7 10 31 -3
17 -6 40 -6 50 0 10 -10 30 -23 44 l-22 27 -17 -36z m42 -14 c0 -5 -12 -14
-27 -21 l-28 -12 25 21 c29 22 30 23 30 12z m136 -71 c-12 -19 -24 -12 -19 10
4 13 9 17 15 11 6 -6 7 -15 4 -21z m-35 -5 c-6 -7 -8 -16 -4 -19 3 -4 1 -7 -5
-7 -6 0 -14 5 -17 10 -3 6 -1 10 4 10 6 0 10 3 10 8 -3 16 2 23 11 17 8 -5 8
-11 1 -19z m44 -34 c-12 -8 -45 -67 -45 -79 0 -4 9 3 20 17 l19 25 -6 -25 c-3
-14 -9 -27 -12 -30 -3 -3 -22 -26 -41 -52 -31 -41 -68 -65 -92 -60 -5 1 -7 -1
-7 -6 3 -19 -2 -23 -16 -12 -13 11 -14 10 -9 -4 3 -9 1 -16 -5 -16 -6 0 -11 5
-11 11 0 6 -8 8 -19 4 -18 -5 -18 -3 -8 19 7 14 22 30 34 37 12 6 19 17 17 24
-3 7 1 19 8 26 7 8 13 20 14 27 2 30 5 34 18 29 10 -4 16 2 18 21 2 18 8 26
18 23 8 -2 23 -4 33 -5 21 0 21 -9 1 -47 -8 -17 -13 -33 -10 -36 3 -3 1 -14
-5 -24 -5 -11 -6 -19 -1 -19 11 0 35 49 37 75 1 11 5 30 9 42 6 18 4 21 -12
18 -10 -2 -25 1 -33 6 -10 6 -6 9 14 9 16 0 35 7 44 16 11 11 19 12 27 4 7 -7
7 -13 1 -18z m-55 -92 c0 -5 -5 -10 -11 -10 -5 0 -7 5 -4 10 3 6 8 10 11 10 2
0 4 -4 4 -10z m-217 -220 c4 -16 0 -20 -19 -20 -23 0 -23 1 -6 19 9 11 18 20
18 20 1 1 4 -8 7 -19z m181 -152 c-3 -4 0 -8 6 -8 7 0 8 -5 3 -12 -11 -18 -11
-31 0 -46 7 -9 6 -11 -6 -7 -8 4 -18 1 -23 -6 -4 -8 -3 -10 4 -5 7 4 12 3 12
-3 0 -5 -6 -12 -12 -14 -9 -4 -10 -8 -3 -14 7 -5 3 -16 -11 -30 l-21 -22 16
82 c8 45 19 83 23 85 4 2 4 11 1 20 -4 14 -3 14 5 2 6 -8 8 -18 6 -22z m-1014
-35 c0 -7 -9 -13 -20 -13 -23 0 -24 3 -8 30 13 20 28 10 28 -17z m243 -37 c-7
-38 -13 -46 -13 -18 0 11 -2 27 -5 35 -4 8 0 14 9 14 11 0 13 -8 9 -31z m-38
14 c-4 -6 -1 -18 6 -26 9 -12 9 -18 0 -27 -9 -9 -14 -9 -21 3 -6 9 -6 16 0 18
6 2 8 8 4 13 -5 9 3 29 12 29 3 0 2 -5 -1 -10z m85 -26 c0 -8 4 -14 8 -14 4 0
8 -8 8 -18 0 -10 -6 -19 -12 -19 -7 0 -10 7 -6 15 4 11 -1 11 -21 -3 -16 -10
-27 -13 -27 -6 0 6 5 11 11 11 7 0 9 9 5 24 -3 12 -3 26 0 29 10 9 34 -4 34
-19z m-122 -16 c7 -7 12 -21 12 -32 0 -17 2 -18 10 -6 5 8 10 11 11 5 0 -5 2
-21 5 -35 3 -24 2 -23 -26 9 -16 19 -27 38 -24 43 3 4 0 8 -5 8 -6 0 -11 5
-11 10 0 14 13 13 28 -2z m57 -28 c3 -5 1 -10 -4 -10 -6 0 -11 5 -11 10 0 6 2
10 4 10 3 0 8 -4 11 -10z m335 -72 c0 6 5 12 11 12 6 0 9 -7 5 -15 -3 -9 0
-15 9 -15 8 0 15 -5 15 -11 0 -6 7 -9 15 -5 8 3 15 1 15 -4 0 -17 -19 -20 -34
-4 -11 11 -16 12 -16 3 0 -7 -9 -4 -20 9 -11 12 -20 27 -20 34 0 9 3 9 10 -2
6 -10 10 -11 10 -2z"/>
<path d="M1150 1031 c0 -10 -3 -26 -6 -35 -3 -9 -2 -16 4 -16 12 0 22 59 10
66 -4 3 -8 -4 -8 -15z"/>
<path d="M1106 1018 c3 -4 11 -5 19 -1 21 7 19 12 -4 10 -11 0 -18 -5 -15 -9z"/>
<path d="M1102 985 c-11 -12 -10 -15 3 -15 8 0 15 7 15 15 0 18 -2 18 -18 0z"/>
<path d="M1088 942 c-21 -8 -38 -19 -38 -24 0 -5 4 -6 10 -3 5 3 20 8 32 10
22 5 45 22 37 28 -2 2 -21 -3 -41 -11z"/>
<path d="M1006 831 c-3 -5 3 -11 15 -14 16 -4 18 -3 8 9 -13 16 -16 17 -23 5z"/>
<path d="M1036 806 c-11 -10 -20 -33 -22 -49 -1 -20 1 -25 7 -16 5 8 9 23 9
34 0 18 2 18 21 -5 20 -25 20 -25 9 -1 -8 16 -9 26 -2 30 6 4 8 11 4 17 -4 6
-14 3 -26 -10z"/>
<path d="M1092 802 c9 -13 14 -32 11 -43 -3 -10 -1 -19 3 -19 18 0 11 49 -9
67 -20 18 -20 18 -5 -5z"/>
<path d="M938 736 c-24 -17 -23 -25 2 -19 25 7 49 33 29 33 -8 0 -22 -7 -31
-14z"/>
<path d="M1010 711 c0 -5 -11 -8 -25 -5 -20 3 -23 1 -18 -13 6 -16 5 -16 -10
-4 -15 12 -17 11 -17 -3 0 -9 4 -16 10 -16 14 0 64 23 78 37 11 11 11 13 -2
13 -9 0 -16 -4 -16 -9z"/>
<path d="M1060 697 c0 -13 7 -32 15 -43 15 -18 15 -18 8 0 -4 13 -3 17 5 12
15 -9 15 9 2 35 -14 26 -30 24 -30 -4z"/>
<path d="M921 684 c0 -11 3 -14 6 -6 3 7 2 16 -1 19 -3 4 -6 -2 -5 -13z"/>
<path d="M1030 672 c0 -20 4 -31 10 -27 6 3 10 -5 10 -19 0 -14 4 -27 8 -30
14 -9 6 47 -12 79 l-16 30 0 -33z"/>
<path d="M990 663 c0 -6 -8 -10 -17 -9 -19 1 -28 -40 -12 -50 5 -3 9 0 9 6 0
6 5 8 10 5 6 -3 10 -1 10 4 0 6 -7 11 -15 11 -8 0 -15 4 -15 10 0 5 6 7 14 4
15 -6 32 13 22 23 -3 4 -6 2 -6 -4z"/>
<path d="M907 652 c-16 -3 -16 -5 0 -33 10 -16 24 -29 33 -28 9 0 10 2 3 5 -7
3 -11 11 -9 17 1 7 1 9 -1 4 -3 -4 -9 -4 -14 -1 -6 3 -5 11 2 20 14 17 10 22
-14 16z"/>
<path d="M1005 641 c-3 -5 -1 -12 5 -16 5 -3 10 1 10 9 0 18 -6 21 -15 7z"/>
<path d="M877 604 c-4 -4 1 -13 11 -21 16 -14 16 -14 -2 -9 -15 5 -17 2 -13
-14 5 -21 -8 -29 -15 -8 -3 8 -6 7 -10 -3 -3 -7 -2 -23 3 -34 6 -15 8 -16 8
-4 1 22 30 32 48 18 10 -9 11 -14 2 -20 -8 -5 -4 -11 11 -19 18 -10 24 -9 31
1 15 23 10 34 -5 13 -14 -18 -15 -18 -12 -1 1 10 9 22 16 27 8 5 11 12 7 17
-4 4 -16 2 -27 -4 -14 -10 -21 -9 -30 2 -8 10 -7 15 5 22 14 8 14 11 -3 26
-10 9 -22 14 -25 11z"/>
<path d="M970 590 c-13 -8 -12 -10 3 -10 9 0 17 5 17 10 0 12 -1 12 -20 0z"/>
<path d="M1015 589 c-11 -16 -1 -19 13 -3 7 8 8 14 3 14 -5 0 -13 -5 -16 -11z"/>
<path d="M1080 590 c0 -5 4 -10 9 -10 6 0 13 5 16 10 3 6 -1 10 -9 10 -9 0
-16 -4 -16 -10z"/>
<path d="M144 556 c0 -13 4 -22 9 -19 10 6 9 31 -2 37 -5 3 -8 -5 -7 -18z"/>
<path d="M1045 570 c3 -5 8 -10 11 -10 2 0 4 5 4 10 0 6 -5 10 -11 10 -5 0 -7
-4 -4 -10z"/>
<path d="M948 563 c7 -3 16 -2 19 1 4 3 -2 6 -13 5 -11 0 -14 -3 -6 -6z"/>
<path d="M201 551 c-7 -5 -11 -13 -7 -19 3 -6 1 -14 -5 -18 -8 -5 -9 -3 -4 6
5 9 4 11 -3 6 -9 -5 -8 -12 1 -27 10 -17 9 -22 -5 -33 -14 -10 -15 -15 -5 -26
10 -10 8 -12 -8 -6 -15 5 -17 4 -9 -4 7 -7 30 -13 51 -13 39 -2 39 -3 37 -37
-2 -42 -18 -47 -22 -7 -3 21 -8 27 -25 26 -17 -1 -18 -2 -4 -6 20 -5 23 -19 5
-25 -7 -3 -4 -12 11 -27 18 -18 20 -25 11 -37 -7 -7 -16 -11 -21 -8 -5 3 -9 0
-9 -5 0 -18 21 -12 41 10 20 23 34 73 24 89 -4 6 -3 10 2 9 28 -5 35 3 14 14
-13 6 -23 16 -22 21 4 13 -20 25 -36 19 -7 -3 -13 -10 -13 -15 0 -6 7 -8 15
-5 8 4 17 2 20 -3 10 -17 -32 -11 -46 6 -10 13 -10 17 2 24 8 5 15 14 15 20 3
23 5 24 13 11 7 -10 9 -7 8 12 -1 14 -6 23 -11 20 -4 -3 -5 4 -1 16 7 23 6 24
-14 12z"/>
<path d="M1021 544 c0 -11 3 -14 6 -6 3 7 2 16 -1 19 -3 4 -6 -2 -5 -13z"/>
<path d="M1001 531 c-1 -21 -3 -22 -18 -10 -15 11 -16 11 -6 0 12 -14 10 -18
-29 -62 -18 -19 -24 -39 -12 -39 10 0 34 28 34 39 0 6 4 11 9 11 12 0 34 56
28 72 -3 7 -6 2 -6 -11z"/>
<path d="M1065 540 c3 -5 8 -10 11 -10 2 0 4 5 4 10 0 6 -5 10 -11 10 -5 0 -7
-4 -4 -10z"/>
<path d="M266 513 c-6 -14 -5 -15 5 -6 7 7 10 15 7 18 -3 3 -9 -2 -12 -12z"/>
<path d="M880 501 c14 -28 12 -36 -5 -21 -13 11 -14 10 -9 -4 3 -9 16 -16 28
-16 19 -1 19 -2 -6 -18 -28 -17 -36 -32 -18 -32 5 0 16 -12 24 -27 8 -16 15
-23 16 -17 0 5 -7 19 -15 30 -20 26 -19 34 5 34 24 0 27 32 5 50 -8 7 -15 19
-15 26 0 8 -5 14 -10 14 -7 0 -7 -6 0 -19z"/>
<path d="M1065 510 c3 -5 8 -10 11 -10 2 0 4 5 4 10 0 6 -5 10 -11 10 -5 0 -7
-4 -4 -10z"/>
<path d="M546 497 c3 -10 9 -15 12 -12 3 3 0 11 -7 18 -10 9 -11 8 -5 -6z"/>
<path d="M465 490 c-3 -5 -2 -10 4 -10 6 0 8 -6 6 -12 -3 -7 4 -24 15 -38 15
-18 18 -20 13 -6 -4 13 -3 17 5 12 7 -4 3 9 -9 28 -23 39 -25 41 -34 26z"/>
<path d="M1031 483 c0 -10 4 -27 9 -38 9 -20 9 -20 10 0 1 20 1 20 11 0 8 -17
9 -17 4 5 -2 14 -5 31 -5 38 0 6 -7 12 -15 12 -8 0 -15 -8 -14 -17z"/>
<path d="M510 482 c0 -5 6 -16 13 -27 16 -20 31 -7 21 19 -6 16 -34 23 -34 8z"/>
<path d="M1000 461 c0 -25 6 -27 13 -6 4 8 2 17 -3 20 -6 4 -10 -3 -10 -14z"/>
<path d="M440 441 c0 -10 29 -36 34 -30 1 2 -6 12 -16 22 -10 9 -18 13 -18 8z"/>
<path d="M1021 437 c-1 -20 21 -47 38 -47 6 0 11 5 11 10 0 6 8 10 18 10 14 0
15 -2 2 -10 -13 -9 -13 -11 0 -20 8 -5 22 -7 31 -4 20 6 66 -45 75 -82 13 -51
-4 -117 -37 -147 -17 -16 -37 -26 -45 -23 -7 3 -16 1 -19 -4 -4 -6 -22 -10
-41 -10 -23 0 -33 4 -28 11 4 8 0 9 -15 4 -16 -5 -30 3 -60 34 -22 23 -36 41
-31 41 6 0 10 5 10 10 0 16 -20 12 -26 -5 -8 -20 39 -81 78 -101 45 -23 134
-15 177 16 46 32 75 99 66 153 -9 49 -37 93 -65 102 -11 4 -17 11 -14 17 5 8
1 9 -10 5 -9 -4 -14 -3 -11 2 8 14 -29 23 -59 15 -21 -5 -28 -2 -35 17 -8 19
-10 20 -10 6z"/>
<path d="M420 420 c0 -5 -7 -10 -16 -10 -8 0 -13 -4 -10 -9 3 -5 17 -8 31 -8
21 0 23 2 14 18 -11 21 -19 25 -19 9z"/>
<path d="M557 424 c-3 -3 -3 -13 0 -22 4 -10 3 -14 -2 -10 -11 10 -45 -10 -45
-27 0 -8 5 -15 12 -15 6 0 9 3 5 6 -10 11 17 33 29 23 7 -5 11 -4 11 4 0 6 4
20 8 30 7 16 -5 24 -18 11z"/>
<path d="M1150 422 c0 -7 65 -52 75 -52 3 0 1 8 -4 19 -6 10 -7 22 -3 26 4 4
0 6 -8 3 -8 -3 -25 -1 -37 3 -13 5 -23 5 -23 1z"/>
<path d="M597 414 c-8 -8 3 -34 15 -34 7 0 6 5 -1 13 -6 8 -8 17 -4 20 3 4 4
7 1 7 -2 0 -7 -3 -11 -6z"/>
<path d="M963 397 c-32 -22 -64 -72 -62 -99 0 -7 7 1 14 18 14 31 68 84 86 84
5 0 9 5 9 10 0 15 -11 12 -47 -13z"/>
<path d="M487 379 c4 -13 8 -18 11 -10 2 7 -1 18 -6 23 -8 8 -9 4 -5 -13z"/>
<path d="M820 390 c0 -5 7 -10 16 -10 8 0 12 5 9 10 -3 6 -10 10 -16 10 -5 0
-9 -4 -9 -10z"/>
<path d="M860 396 c0 -2 7 -17 15 -32 16 -30 19 -25 9 14 -5 18 -24 33 -24 18z"/>
<path d="M320 365 c0 -14 2 -25 4 -25 2 0 6 11 8 25 3 14 1 25 -3 25 -5 0 -9
-11 -9 -25z"/>
<path d="M274 365 c-3 -8 -4 -20 -2 -27 3 -7 7 -1 10 15 6 29 1 36 -8 12z"/>
<path d="M298 355 c-3 -14 -1 -28 3 -31 5 -3 9 9 9 25 0 38 -6 40 -12 6z"/>
<path d="M430 370 c-12 -7 -10 -9 8 -7 12 0 22 5 22 9 0 11 -12 10 -30 -2z"/>
<path d="M581 362 c3 -20 -2 -25 -12 -12 -9 13 -10 13 -6 -1 3 -9 0 -22 -6
-28 -7 -7 -7 -11 -1 -11 6 0 21 11 33 24 19 20 20 24 7 29 -9 4 -15 3 -15 -1z"/>
<path d="M1021 356 c-17 -20 -2 -46 25 -46 29 0 41 24 24 45 -16 19 -34 19
-49 1z m39 -22 c0 -16 -16 -19 -25 -4 -8 13 4 32 16 25 5 -4 9 -13 9 -21z"/>
<path d="M1130 350 c0 -5 5 -10 11 -10 5 0 7 5 4 10 -3 6 -8 10 -11 10 -2 0
-4 -4 -4 -10z"/>
<path d="M465 340 c-3 -5 -1 -10 4 -10 6 0 11 5 11 10 0 6 -2 10 -4 10 -3 0
-8 -4 -11 -10z"/>
<path d="M536 333 c-6 -14 -5 -15 5 -6 7 7 10 15 7 18 -3 3 -9 -2 -12 -12z"/>
<path d="M625 340 c-3 -5 -1 -10 4 -10 6 0 11 5 11 10 0 6 -2 10 -4 10 -3 0
-8 -4 -11 -10z"/>
<path d="M740 340 c0 -5 7 -7 15 -4 8 4 15 8 15 10 0 2 -7 4 -15 4 -8 0 -15
-4 -15 -10z"/>
<path d="M721 324 c0 -11 3 -14 6 -6 3 7 2 16 -1 19 -3 4 -6 -2 -5 -13z"/>
<path d="M940 320 c-12 -8 -11 -10 8 -10 12 0 22 5 22 10 0 13 -11 13 -30 0z"/>
<path d="M1100 318 c0 -4 9 -8 20 -8 11 0 20 4 20 8 0 4 -9 8 -20 8 -11 0 -20
-4 -20 -8z"/>
<path d="M254 303 c0 -10 -5 -17 -11 -15 -7 1 -13 -2 -13 -8 0 -13 13 -13 27
1 14 14 41 5 88 -27 20 -13 34 -20 30 -14 -3 5 -2 10 4 10 5 0 12 -4 15 -9 10
-16 81 -28 185 -32 52 -1 64 -5 68 -20 3 -10 12 -20 20 -24 13 -4 14 -3 3 10
-16 19 -1 19 24 0 10 -7 16 -18 13 -23 -3 -4 8 -6 26 -4 27 4 29 6 11 12 -11
4 -37 20 -58 34 l-39 26 72 -1 c39 -1 74 -5 77 -10 3 -5 10 -9 16 -9 6 0 3 9
-6 19 -10 11 -13 21 -7 25 5 4 13 1 17 -5 3 -6 9 -7 13 -2 3 4 18 14 33 20 24
11 27 10 31 -10 4 -18 5 -17 6 6 1 33 -7 33 -83 7 -160 -55 -357 -43 -498 30
-67 35 -66 35 -64 13z"/>
<path d="M499 318 c0 -2 -2 -13 -3 -25 -2 -17 0 -20 10 -12 7 6 10 17 7 25 -5
12 -12 18 -14 12z"/>
<path d="M755 310 c-3 -6 1 -7 9 -4 18 7 21 14 7 14 -6 0 -13 -4 -16 -10z"/>
<path d="M995 310 c3 -5 8 -10 11 -10 2 0 4 5 4 10 0 6 -5 10 -11 10 -5 0 -7
-4 -4 -10z"/>
<path d="M340 300 c0 -15 138 -56 205 -61 70 -5 83 4 15 11 -41 4 -108 19
-147 33 -40 14 -73 21 -73 17z"/>
<path d="M1155 300 c3 -5 8 -10 11 -10 2 0 4 5 4 10 0 6 -5 10 -11 10 -5 0 -7
-4 -4 -10z"/>
<path d="M930 280 c0 -5 5 -10 10 -10 6 0 10 5 10 10 0 6 -4 10 -10 10 -5 0
-10 -4 -10 -10z"/>
<path d="M1060 274 c0 -8 5 -12 10 -9 6 4 8 11 5 16 -9 14 -15 11 -15 -7z"/>
<path d="M1130 279 c0 -5 5 -7 10 -4 6 3 10 8 10 11 0 2 -4 4 -10 4 -5 0 -10
-5 -10 -11z"/>
<path d="M980 261 c0 -6 5 -13 10 -16 6 -3 10 1 10 9 0 9 -4 16 -10 16 -5 0
-10 -4 -10 -9z"/>
<path d="M128 243 c-12 -15 -10 -16 19 -10 24 5 33 2 39 -11 4 -9 6 -21 5 -26
-1 -5 5 -3 14 4 10 8 27 16 38 17 38 6 38 18 1 17 -20 -1 -51 4 -69 12 -29 12
-35 12 -47 -3z"/>
<path d="M198 248 c9 -9 15 -9 24 0 9 9 7 12 -12 12 -19 0 -21 -3 -12 -12z"/>
<path d="M1110 231 c0 -5 5 -13 10 -16 6 -3 10 -2 10 4 0 5 -4 13 -10 16 -5 3
-10 2 -10 -4z"/>
<path d="M954 214 c3 -9 6 -18 6 -20 0 -2 4 -4 9 -4 5 0 7 9 4 20 -3 11 -10
20 -15 20 -6 0 -7 -7 -4 -16z"/>
<path d="M995 210 c3 -5 8 -10 11 -10 2 0 4 5 4 10 0 6 -5 10 -11 10 -5 0 -7
-4 -4 -10z"/>
<path d="M765 194 c19 -16 19 -16 -5 -10 -24 7 -24 7 -5 -9 12 -9 21 -12 23
-5 2 5 8 10 13 10 4 0 6 -7 2 -16 -5 -14 -3 -14 22 2 26 17 27 17 24 -1 -2
-10 -12 -19 -22 -21 -29 -4 -28 -8 5 -27 20 -12 27 -13 20 -4 -9 11 -7 16 14
26 l26 12 -26 20 c-14 11 -30 18 -34 15 -5 -3 -21 2 -36 10 -37 18 -46 17 -21
-2z"/>
<path d="M525 179 c-4 -5 11 -9 31 -9 42 0 42 6 1 14 -14 2 -29 0 -32 -5z"/>
<path d="M1040 170 c0 -5 5 -10 11 -10 5 0 7 5 4 10 -3 6 -8 10 -11 10 -2 0
-4 -4 -4 -10z"/>
<path d="M1160 169 c0 -5 5 -7 10 -4 6 3 10 8 10 11 0 2 -4 4 -10 4 -5 0 -10
-5 -10 -11z"/>
<path d="M1226 152 c-4 -18 -14 -36 -22 -39 -22 -8 -16 -22 7 -18 30 6 31 8
27 51 l-3 39 -9 -33z"/>
<path d="M1156 73 c-4 -4 -19 -9 -34 -11 -15 -2 -31 -8 -37 -14 -7 -7 5 -8 40
-3 55 8 65 12 65 26 0 11 -23 12 -34 2z"/>
</g>
</svg>
