<?xml version="1.0" standalone="no"?>
<!DOCTYPE svg PUBLIC "-//W3C//DTD SVG 20010904//EN"
 "http://www.w3.org/TR/2001/REC-SVG-20010904/DTD/svg10.dtd">
<svg version="1.0" xmlns="http://www.w3.org/2000/svg"
 width="300.000000pt" height="299.000000pt" viewBox="0 0 300.000000 299.000000"
 preserveAspectRatio="xMidYMid meet">
<metadata>
Created by potrace 1.10, written by Peter Selinger 2001-2011
</metadata>
<g transform="translate(0.000000,299.000000) scale(0.100000,-0.100000)"
fill="#000000" stroke="none">
<path d="M1300 2817 c-18 -9 -29 -28 -40 -64 -14 -49 -17 -52 -52 -58 -21 -4
-35 -11 -32 -16 3 -5 21 -7 40 -3 33 6 34 6 34 -28 0 -48 29 -128 46 -128 12
0 12 4 4 20 -15 28 -31 117 -24 135 4 8 24 18 45 21 21 4 39 11 39 17 0 6 -16
7 -40 3 -40 -6 -40 -6 -34 21 14 61 45 88 72 61 17 -17 28 -2 12 17 -15 18
-37 19 -70 2z"/>
<path d="M1610 2741 c-32 -9 -72 -68 -68 -101 3 -21 9 -25 38 -28 38 -3 96 27
107 54 7 20 -11 60 -34 72 -10 5 -29 6 -43 3z m47 -49 c8 -32 -25 -62 -69 -62
-26 0 -29 3 -23 23 10 32 55 76 71 70 8 -3 17 -17 21 -31z"/>
<path d="M1385 2703 c14 -82 17 -93 30 -93 7 0 13 12 13 27 0 31 51 83 82 83
10 0 22 5 25 10 3 6 -4 10 -17 10 -27 0 -88 -35 -88 -50 0 -5 -4 -10 -9 -10
-5 0 -9 6 -8 13 1 33 -4 47 -18 47 -13 0 -15 -8 -10 -37z"/>
<path d="M946 2722 c-8 -13 35 -157 51 -169 8 -6 22 -9 31 -6 26 9 62 45 56
55 -4 5 -19 -2 -34 -17 -21 -20 -29 -23 -37 -13 -10 12 -38 125 -35 140 2 9
-27 18 -32 10z"/>
<path d="M1731 2674 c-7 -32 -9 -60 -4 -65 5 -5 33 9 63 31 30 22 59 40 63 40
4 0 5 -22 1 -50 -6 -44 -4 -50 11 -50 10 0 37 11 60 24 l41 25 -4 -30 c-7 -48
31 -73 82 -53 26 10 7 24 -24 17 -39 -7 -50 19 -26 60 27 48 5 53 -59 12 -31
-20 -58 -35 -61 -33 -2 2 2 20 8 41 9 28 8 40 -2 52 -17 21 -22 20 -75 -21
-26 -19 -49 -34 -51 -32 -2 3 1 19 6 38 9 32 6 50 -8 50 -4 0 -13 -25 -21 -56z"/>
<path d="M827 2620 c-44 -13 -57 -29 -57 -71 0 -88 42 -118 80 -56 11 17 20
40 20 50 0 9 5 17 10 17 6 0 10 -6 10 -13 0 -7 6 -22 14 -33 12 -16 17 -17 28
-6 11 11 10 15 -4 23 -10 5 -20 28 -24 54 -7 49 -17 53 -77 35z m43 -20 c0 -5
-12 -34 -27 -65 -29 -59 -43 -57 -43 7 0 27 6 41 22 52 25 18 48 21 48 6z"/>
<path d="M2247 2602 c-3 -15 -22 -52 -42 -81 -43 -62 -37 -79 21 -55 52 22
103 34 109 25 2 -4 -7 -24 -20 -44 -28 -41 -32 -67 -10 -67 8 0 15 8 15 18 0
9 9 28 20 42 50 64 4 98 -81 62 -49 -20 -63 -16 -33 9 24 20 55 86 48 103 -9
24 -21 19 -27 -12z"/>
<path d="M646 2518 c-9 -12 -16 -30 -16 -40 0 -10 -5 -18 -10 -18 -14 0 26
-76 43 -83 22 -8 71 18 86 46 16 30 5 52 -11 23 -17 -30 -48 -58 -61 -53 -22
7 -19 37 8 69 14 17 25 40 23 52 -4 30 -42 33 -62 4z m23 -40 c-7 -13 -14 -18
-16 -11 -3 7 1 22 8 35 7 13 14 18 16 11 3 -7 -1 -22 -8 -35z"/>
<path d="M1405 2464 c-207 -28 -322 -61 -459 -132 -334 -171 -571 -488 -642
-859 -23 -117 -23 -329 0 -446 96 -496 477 -877 974 -973 115 -23 319 -23 434
0 498 97 877 475 974 973 23 117 23 329 0 446 -96 494 -480 879 -967 972 -81
15 -262 26 -314 19z m331 -48 c362 -79 656 -308 819 -639 96 -196 132 -369
122 -587 -9 -179 -44 -313 -124 -475 -199 -401 -610 -655 -1058 -655 -654 0
-1185 535 -1185 1193 0 586 431 1085 1016 1177 83 13 326 5 410 -14z"/>
<path d="M1303 2325 c-103 -19 -195 -51 -303 -106 -277 -142 -477 -390 -561
-697 -30 -111 -38 -358 -14 -473 46 -229 138 -403 299 -565 145 -146 307 -239
513 -296 66 -18 104 -22 258 -22 154 0 192 4 258 22 307 85 556 278 700 542
190 348 171 787 -48 1122 -27 40 -94 118 -150 174 l-101 101 -65 -4 c-108 -7
-185 -45 -241 -120 -46 -61 -32 -56 35 12 68 70 127 95 219 95 48 0 51 -2 139
-87 146 -141 244 -307 297 -502 23 -85 26 -115 26 -273 l1 -177 -40 -35 c-22
-19 -93 -62 -158 -95 l-118 -61 -104 0 c-117 0 -180 19 -226 70 l-26 28 41 40
c61 58 161 125 249 166 42 20 82 36 87 36 15 0 12 24 -11 82 -29 75 -44 88
-98 88 -57 0 -99 -21 -219 -113 -76 -57 -97 -69 -110 -60 -25 15 -54 128 -49
191 2 28 0 52 -4 52 -5 0 -45 -21 -91 -48 -111 -63 -184 -94 -216 -90 -38 4
-40 48 -7 124 31 69 78 120 157 171 57 36 58 38 51 73 -5 19 -7 101 -7 181 1
150 16 242 55 357 22 64 17 84 -7 27 -46 -112 -57 -184 -60 -394 l-2 -204 -39
-26 c-97 -66 -114 -84 -155 -169 -36 -74 -40 -89 -32 -121 9 -34 11 -36 50
-35 42 1 138 42 239 103 l50 30 -3 -37 c-2 -20 7 -73 20 -117 19 -66 27 -81
45 -83 15 -2 23 -11 25 -29 4 -38 18 -37 63 2 37 33 113 75 134 75 5 0 11 7
14 14 3 8 22 18 41 21 47 9 58 24 46 63 -8 29 -7 32 14 32 12 0 30 -6 39 -12
17 -13 57 -99 57 -123 0 -22 -30 -26 -52 -5 -21 19 -21 19 -59 0 -21 -11 -43
-20 -50 -20 -6 0 -20 -12 -31 -26 -12 -14 -31 -30 -45 -35 -13 -5 -52 -30 -87
-56 -61 -45 -63 -48 -49 -69 11 -18 12 -26 2 -41 -10 -16 -6 -24 22 -55 19
-19 58 -45 88 -57 46 -20 68 -22 155 -19 101 3 101 3 216 62 63 32 130 72 148
89 38 36 38 34 11 -63 -84 -303 -341 -588 -632 -700 -148 -57 -237 -74 -402
-74 -120 0 -167 5 -237 22 -222 55 -362 134 -523 296 -154 155 -235 298 -288
506 -18 70 -21 114 -22 250 0 188 17 275 84 430 124 288 384 517 684 604 292
85 604 43 863 -114 77 -47 99 -48 26 -1 -120 77 -261 132 -401 156 -101 18
-280 18 -378 0z m833 -981 c4 -17 2 -29 -7 -35 -22 -14 -29 -11 -40 18 -7 20
-6 28 3 35 23 14 37 8 44 -18z m-62 -26 c8 -34 -17 -40 -34 -9 -8 16 -6 22 7
30 10 5 18 9 19 8 1 -1 4 -14 8 -29z m-45 -29 c11 -18 11 -23 -1 -30 -17 -11
-43 15 -35 35 9 22 20 20 36 -5z m-54 -47 c-22 -5 -29 3 -21 25 7 17 8 17 22
-2 13 -18 13 -20 -1 -23z m-32 -6 c8 -20 -20 -43 -35 -28 -8 8 -8 15 2 27 16
19 26 19 33 1z m259 -7 c19 -10 15 -15 -53 -47 -41 -20 -77 -38 -81 -40 -15
-7 -8 25 7 38 10 9 15 9 15 1 0 -6 5 -11 11 -11 6 0 9 7 5 15 -6 18 29 41 39
25 9 -15 28 -12 22 4 -10 25 4 31 35 15z m-314 -56 c-6 -7 -14 -13 -19 -13
-13 0 -11 34 3 48 10 10 14 9 19 -5 4 -10 2 -24 -3 -30z m152 -37 c0 -8 -4
-18 -10 -21 -5 -3 -10 3 -10 14 0 12 5 21 10 21 6 0 10 -6 10 -14z m-50 -51
c-15 -15 -23 -16 -31 -8 -9 9 -7 17 12 32 31 25 47 5 19 -24z m-45 -15 c3 -5
-4 -19 -15 -30 -17 -17 -21 -18 -26 -5 -10 26 27 58 41 35z"/>
<path d="M1085 2076 c-64 -20 -85 -35 -85 -59 0 -25 44 -185 100 -367 21 -69
48 -161 60 -205 27 -98 36 -116 55 -109 26 10 21 112 -21 444 -9 74 -18 173
-18 220 -1 83 -2 85 -26 87 -14 1 -43 -4 -65 -11z m78 -23 c-8 -23 -23 -33
-48 -33 -12 0 -37 -8 -58 -19 -36 -18 -37 -18 -43 1 -3 11 -3 23 1 26 15 15
92 41 122 41 27 1 31 -2 26 -16z m-3 -88 c0 -32 -3 -35 -27 -35 -16 0 -41 -7
-57 -15 -33 -18 -32 -18 -41 16 -7 28 5 36 85 58 19 5 36 10 38 10 1 1 2 -15
2 -34z m14 -137 c4 -40 9 -86 11 -103 30 -235 31 -285 3 -285 -10 0 -18 7 -18
15 0 8 7 15 15 15 8 0 15 4 15 9 0 5 -9 7 -20 4 -11 -3 -20 0 -20 6 0 6 9 11
20 11 11 0 20 4 20 10 0 5 -9 9 -21 7 -18 -2 -26 16 -73 169 l-52 170 50 22
c28 11 54 21 57 21 4 1 10 -32 13 -71z m46 -407 c0 -11 -26 -22 -34 -14 -12
12 -5 23 14 23 11 0 20 -4 20 -9z m0 -35 c0 -8 -4 -17 -9 -20 -10 -7 -23 19
-14 28 11 11 23 6 23 -8z"/>
<path d="M697 1911 c-26 -28 -47 -54 -47 -59 0 -18 159 -286 250 -422 53 -79
101 -123 116 -107 11 11 -152 426 -199 504 -12 21 -24 58 -27 83 -7 65 -33 65
-93 1z m73 8 c0 -11 -15 -35 -33 -52 -19 -18 -36 -39 -39 -47 -4 -13 -7 -13
-21 -1 -20 16 -11 39 36 89 35 37 57 41 57 11z m25 -81 c5 -15 1 -26 -13 -37
-12 -9 -28 -29 -36 -45 l-14 -28 -17 32 c-9 18 -12 29 -6 26 6 -4 11 -2 11 5
0 14 49 69 61 69 4 0 11 -10 14 -22z m68 -145 c19 -49 51 -125 70 -170 19 -46
33 -83 31 -83 -3 0 2 -13 11 -30 8 -16 20 -42 26 -57 l10 -28 -24 25 c-13 14
-22 31 -19 38 3 8 -1 10 -12 6 -19 -7 -21 7 -4 24 10 10 8 12 -9 10 -12 -2
-22 1 -22 6 1 5 -4 12 -9 15 -6 3 -47 64 -92 136 l-83 129 38 33 c21 18 42 33
46 33 4 0 23 -39 42 -87z"/>
<path d="M923 1450 c1 -21 12 -26 22 -10 3 6 0 10 -7 10 -9 0 -9 3 2 10 13 8
13 10 -2 10 -11 0 -16 -7 -15 -20z"/>
<path d="M2002 1913 c-41 -20 -48 -33 -56 -108 -12 -109 41 -173 144 -174 40
0 64 17 108 78 42 58 43 104 1 171 l-31 50 -66 0 c-41 0 -80 -7 -100 -17z
m148 -17 c0 -2 -9 -2 -20 1 -11 3 -20 9 -20 15 0 5 9 4 20 -2 11 -6 20 -12 20
-14z m29 -10 c-3 -3 -11 5 -18 17 -13 21 -12 21 5 5 10 -10 16 -20 13 -22z
m-163 -22 c-10 -10 -16 -35 -17 -67 -1 -29 -3 -44 -6 -34 -2 9 -8 15 -13 12
-4 -3 -11 2 -14 11 -3 8 -2 12 4 9 6 -4 10 8 10 27 0 21 8 40 23 54 25 24 37
13 13 -12z m113 7 c19 -10 29 -21 23 -25 -6 -3 -13 -2 -17 3 -3 6 -13 8 -23 5
-14 -5 -15 -4 -2 5 12 8 7 11 -21 11 -21 0 -42 -7 -49 -15 -7 -9 -15 -13 -17
-11 -9 9 33 44 52 45 11 0 35 -8 54 -18z m61 -37 c0 -8 -4 -12 -10 -9 -5 3
-10 10 -10 16 0 5 5 9 10 9 6 0 10 -7 10 -16z m-44 -19 c7 -9 11 -22 9 -28 -2
-7 -6 -24 -9 -39 -8 -34 -42 -38 -87 -11 -24 14 -29 24 -29 53 0 20 3 40 8 44
13 14 95 -1 108 -19z m44 -29 c0 -8 -4 -18 -10 -21 -5 -3 -10 3 -10 14 0 12 5
21 10 21 6 0 10 -6 10 -14z m-214 -74 c-6 -6 -26 43 -25 61 0 7 7 -3 15 -22 8
-18 13 -36 10 -39z m52 10 c2 -6 -5 -9 -14 -8 -10 2 -20 8 -22 14 -2 6 5 9 14
8 10 -2 20 -8 22 -14z m23 -43 l34 -31 -33 16 c-18 9 -37 14 -42 11 -5 -3 -12
0 -16 6 -4 8 -3 9 4 5 7 -4 12 -1 12 8 0 21 1 21 41 -15z m57 14 c-10 -2 -26
-2 -35 0 -10 3 -2 5 17 5 19 0 27 -2 18 -5z m12 -43 c-20 -13 -33 -13 -25 0 3
6 14 10 23 10 15 0 15 -2 2 -10z"/>
<path d="M1052 1315 c-9 -19 -19 -25 -45 -25 -21 0 -41 -8 -52 -20 -12 -13
-25 -18 -37 -14 -26 8 -62 -18 -77 -55 -9 -21 -21 -31 -39 -33 -35 -4 -40 -38
-12 -78 20 -29 21 -30 2 -30 -10 0 -27 -9 -37 -20 -16 -18 -17 -24 -5 -59 7
-22 10 -46 7 -54 -6 -17 19 -57 35 -57 6 0 4 8 -5 18 -10 10 -17 29 -17 42 l0
23 23 -21 c13 -12 29 -22 36 -22 8 0 1 10 -13 21 -33 26 -21 39 37 39 34 0 36
-2 25 -19 -9 -15 -9 -25 0 -45 22 -48 69 -21 58 34 -9 45 18 38 37 -10 19 -49
53 -56 63 -13 8 32 -6 57 -35 61 -16 3 -21 10 -21 34 l0 30 48 -7 c26 -3 55
-15 66 -25 18 -17 18 -18 -3 -25 -35 -11 -19 -75 19 -75 17 0 20 7 20 40 0 33
3 40 20 40 14 0 20 -7 20 -23 0 -13 7 -32 15 -43 8 -10 15 -21 15 -24 0 -3
-30 -7 -67 -8 -38 -2 -126 -9 -198 -17 -71 -8 -158 -15 -192 -15 -35 0 -63 -2
-63 -5 0 -2 17 -42 39 -89 40 -86 97 -171 147 -217 72 -67 228 -139 329 -154
69 -10 48 7 -28 22 -79 16 -233 90 -285 137 -47 43 -119 149 -155 228 l-25 57
66 5 c37 3 110 10 162 16 296 31 765 37 853 11 28 -9 37 -17 37 -34 0 -31 -76
-169 -143 -258 -68 -93 -113 -130 -205 -169 -63 -27 -82 -30 -170 -30 l-99 0
-7 -38 c-3 -20 -8 -46 -12 -57 -5 -19 -1 -20 143 -17 147 4 167 7 147 20 -17
12 -44 56 -44 73 0 10 24 26 68 45 37 15 86 46 110 68 77 71 199 259 226 349
13 43 13 47 -4 52 -36 12 -66 16 -142 22 -48 4 -78 10 -78 17 0 7 15 10 41 8
39 -4 40 -4 37 24 -3 26 -8 29 -40 32 -21 2 -38 7 -38 12 0 13 66 40 96 40 41
0 73 -71 38 -84 -23 -9 -24 -8 -17 10 4 12 2 15 -8 12 -8 -3 -16 -12 -17 -22
-3 -14 2 -17 30 -14 29 3 33 7 36 36 5 48 -20 72 -73 72 -22 0 -46 -5 -53 -12
-9 -9 -12 -7 -12 11 0 22 3 23 38 18 35 -6 36 -5 17 9 -11 8 -28 13 -37 11
-13 -4 -18 4 -23 35 -4 22 -4 42 0 46 9 9 35 -27 35 -50 0 -10 5 -18 10 -18
14 0 1 50 -18 73 -8 9 -20 17 -27 17 -7 0 -20 9 -31 21 -17 19 -26 20 -81 15
-35 -4 -70 -9 -78 -12 -11 -5 -15 1 -15 19 0 20 4 24 20 20 11 -3 20 -9 20
-14 0 -5 7 -9 17 -9 14 0 14 2 -2 20 -10 11 -24 20 -32 20 -8 0 -24 12 -37 27
-23 26 -23 26 -92 15 -38 -6 -81 -14 -96 -17 -22 -6 -29 -3 -35 11 -11 30 -35
43 -79 44 -34 0 -43 -4 -52 -25z m107 -9 c10 -12 9 -20 -4 -40 -13 -19 -14
-29 -5 -46 18 -33 46 -21 42 18 -1 20 2 32 10 32 8 0 13 -15 13 -39 1 -46 -23
-60 -59 -35 -11 7 -28 14 -38 14 -13 0 -18 8 -18 25 0 14 -9 34 -20 45 -12 12
-18 25 -15 30 9 15 81 12 94 -4z m222 -16 c24 -13 25 -36 2 -44 -10 -3 -23 -8
-29 -11 -12 -6 -37 42 -29 56 8 12 32 11 56 -1z m-336 -40 c0 -25 -8 -35 -40
-55 -22 -13 -49 -25 -59 -25 -25 0 -56 -28 -56 -51 0 -10 -4 -21 -10 -24 -5
-3 -10 2 -10 11 0 10 -7 25 -16 35 -15 17 -15 21 2 56 14 27 26 39 45 41 24 3
25 0 21 -28 -4 -29 -2 -31 19 -28 20 2 24 9 24 38 0 47 10 60 48 60 29 0 32
-3 32 -30z m35 -6 c0 -14 -4 -22 -10 -19 -5 3 -10 17 -10 31 0 14 4 22 10 19
6 -3 10 -17 10 -31z m212 5 c4 -22 0 -33 -14 -40 -15 -8 -18 -6 -18 15 0 13
-3 31 -6 40 -4 11 0 16 14 16 14 0 21 -8 24 -31z m-43 -36 c2 -23 -19 -13 -25
11 -8 35 8 59 17 26 4 -14 7 -31 8 -37z m71 24 c0 -18 -2 -19 -10 -7 -13 20
-13 43 0 35 6 -3 10 -16 10 -28z m-140 3 c0 -11 -4 -20 -10 -20 -5 0 -10 9
-10 20 0 11 5 20 10 20 6 0 10 -9 10 -20z m230 -16 c0 -17 -22 -14 -28 4 -2 7
3 12 12 12 9 0 16 -7 16 -16z m-458 -26 c-9 -9 -12 -7 -12 12 0 19 3 21 12 12
9 -9 9 -15 0 -24z m106 1 c-10 -6 -18 -22 -18 -37 0 -22 -6 -29 -35 -38 -32
-10 -35 -9 -35 10 0 14 14 30 43 48 23 14 47 27 52 27 6 0 2 -4 -7 -10z m328
0 c3 -6 1 -15 -6 -19 -8 -5 -11 -20 -8 -40 l5 -32 -46 6 c-74 10 -95 11 -117
3 -18 -6 -21 -3 -22 23 0 24 4 31 25 36 18 5 28 2 35 -10 13 -23 64 -47 83
-40 25 10 15 56 -15 71 -24 12 -23 13 17 13 23 0 45 -5 49 -11z m191 0 c9 -9
3 -16 -25 -30 -46 -24 -49 -24 -57 2 -5 14 -2 25 6 30 20 12 63 11 76 -2z
m-473 -14 c8 -23 -4 -45 -25 -45 -35 0 -23 55 12 59 4 1 9 -6 13 -14z m46 0
c16 -19 6 -45 -17 -45 -13 0 -18 8 -18 30 0 32 15 39 35 15z m178 -22 c4 -27
-14 -30 -46 -7 -32 22 -27 36 11 32 24 -2 33 -8 35 -25z m107 17 c-4 -6 0 -21
9 -34 16 -26 12 -38 -10 -29 -16 6 -19 73 -3 73 5 0 7 -5 4 -10z m49 -12 c3
-13 2 -26 -3 -31 -11 -11 -34 20 -27 38 8 22 23 18 30 -7z m-74 -23 c0 -19 -4
-35 -9 -35 -11 0 -24 48 -16 60 13 21 25 8 25 -25z m198 -1 c3 -15 1 -17 -9
-6 -7 6 -22 12 -33 13 -21 0 -21 0 -1 9 27 12 39 7 43 -16z m-673 -27 c0 -39
-2 -42 -30 -45 -29 -4 -29 -3 -12 15 9 11 17 26 17 34 0 11 18 39 25 39 0 0 0
-19 0 -43z m-115 4 c0 -20 8 -35 22 -45 18 -13 19 -16 6 -16 -16 0 -68 64 -68
82 0 5 9 8 20 8 15 0 20 -7 20 -29z m40 -28 c0 -27 -18 -12 -22 19 -5 28 -4
29 9 13 7 -11 13 -25 13 -32z m97 15 c-3 -7 -5 -2 -5 12 0 14 2 19 5 13 2 -7
2 -19 0 -25z m622 2 c23 0 31 -5 31 -17 0 -14 -10 -19 -46 -21 -37 -2 -48 1
-64 20 -18 23 -18 23 3 35 18 10 24 9 33 -3 6 -7 25 -14 43 -14z m6 20 c8 -13
-5 -13 -25 0 -13 8 -13 10 2 10 9 0 20 -4 23 -10z m-433 -25 c3 -14 1 -28 -4
-31 -6 -4 -8 -22 -6 -40 2 -19 0 -34 -6 -34 -16 0 -46 32 -46 50 0 10 -9 29
-20 42 -24 31 -18 38 36 38 37 0 42 -3 46 -25z m31 -5 c3 -11 1 -18 -4 -14 -5
3 -9 12 -9 20 0 20 7 17 13 -6z m-173 1 c0 -5 3 -16 6 -24 3 -10 -3 -16 -20
-19 -37 -7 -50 11 -24 34 23 20 38 23 38 9z m60 -41 c0 -5 -9 -6 -20 -3 -14 4
-20 14 -20 32 l1 26 19 -24 c11 -13 20 -27 20 -31z m224 35 c5 -13 2 -14 -15
-5 -11 6 -35 9 -52 5 -24 -5 -28 -4 -17 4 23 16 77 13 84 -4z m94 -83 c11 2
17 13 17 33 0 31 15 55 34 55 6 0 10 -17 9 -39 -1 -34 -5 -40 -35 -50 -45 -17
-72 -6 -89 35 -23 56 -16 61 16 10 20 -32 36 -46 48 -44z m2 45 l0 -42 -25 30
c-31 38 -31 50 0 53 23 2 25 -2 25 -41z m101 27 c12 -14 11 -16 -5 -13 -11 2
-21 10 -24 17 -5 17 13 15 29 -4z m-220 -31 c1 -16 2 -46 3 -68 1 -35 4 -40
23 -39 14 0 25 -7 29 -18 3 -12 15 -18 35 -18 34 0 45 19 29 50 -14 26 -12 28
26 36 28 5 32 2 49 -35 14 -31 24 -41 42 -41 20 0 23 5 23 38 0 21 -4 42 -10
48 -14 14 0 54 20 54 22 0 36 -17 45 -51 5 -21 2 -27 -15 -32 -18 -5 -20 -10
-15 -39 l6 -33 -164 -3 -164 -3 4 25 c5 23 -8 101 -22 139 -6 14 -2 17 24 17
27 0 31 -4 32 -27z m-99 -20 c-4 -35 -6 -36 -15 -16 -10 23 -4 53 11 53 4 0 6
-17 4 -37z m37 -15 c1 -10 -6 -18 -14 -18 -16 0 -20 26 -8 56 6 16 7 16 14 -2
4 -10 8 -27 8 -36z m101 13 c-1 -13 -3 -13 -15 3 -19 26 -19 42 0 26 8 -7 15
-20 15 -29z m-404 13 c-8 -21 11 -54 32 -54 16 1 16 1 0 11 -20 11 -24 44 -7
54 14 9 15 7 22 -37 l6 -38 -40 0 c-35 0 -39 3 -39 24 0 14 -5 28 -11 32 -8 4
-7 9 2 15 23 14 42 11 35 -7z m594 0 c0 -14 -3 -14 -15 -4 -8 7 -15 14 -15 16
0 2 7 4 15 4 8 0 15 -7 15 -16z m110 -5 c0 -11 -4 -17 -10 -14 -5 3 -10 13
-10 21 0 8 5 14 10 14 6 0 10 -9 10 -21z m-802 -26 c-4 -48 -34 -59 -44 -17
-5 20 -2 31 11 41 29 21 36 16 33 -24z m50 -6 c3 -23 0 -28 -15 -25 -11 2 -19
14 -21 31 -3 23 0 28 15 25 11 -2 19 -14 21 -31z m617 23 c3 -5 1 -10 -4 -10
-6 0 -11 5 -11 10 0 6 2 10 4 10 3 0 8 -4 11 -10z m35 -46 c21 -55 -3 -78 -28
-26 -25 50 -25 52 -3 52 14 0 25 -9 31 -26z m-190 9 c0 -5 -5 -15 -10 -23 -7
-11 -12 -12 -21 -3 -6 6 -8 16 -5 22 8 12 36 15 36 4z m30 3 c0 -3 -4 -8 -10
-11 -5 -3 -10 -1 -10 4 0 6 5 11 10 11 6 0 10 -2 10 -4z m-243 -63 c-4 -17 -4
-17 -12 0 -4 9 -4 25 0 35 8 16 8 16 12 0 3 -10 3 -26 0 -35z m113 12 c0 -43
-14 -46 -28 -6 -9 25 -8 31 6 34 9 3 18 5 20 6 1 0 2 -15 2 -34z m154 19 c11
-28 6 -44 -13 -44 -24 0 -39 39 -20 51 20 12 26 11 33 -7z m-370 0 c17 -7 23
-64 6 -64 -12 0 -30 33 -30 54 0 18 2 19 24 10z m586 -30 c0 -21 -4 -33 -10
-29 -5 3 -10 19 -10 36 0 16 5 29 10 29 6 0 10 -16 10 -36z m88 14 c4 -21 -37
-25 -56 -6 -20 20 -13 29 20 26 22 -2 34 -9 36 -20z m-760 -20 c-3 -34 -20
-42 -26 -13 -5 22 5 45 18 45 7 0 10 -14 8 -32z m507 -595 c11 -21 21 -40 22
-43 2 -3 -53 -5 -122 -5 -100 0 -124 3 -120 13 3 8 5 24 5 37 0 23 3 24 88 28
48 1 92 4 98 5 6 1 19 -15 29 -35z"/>
<path d="M2388 2399 c-37 -28 -35 -55 5 -79 60 -37 127 -21 127 30 0 64 -75
91 -132 49z m103 -25 c17 -49 -45 -73 -92 -35 l-23 19 32 19 c39 24 73 23 83
-3z"/>
<path d="M489 2393 c-1 -5 -2 -12 -4 -18 -1 -5 -3 -37 -4 -70 l-1 -60 -31 33
c-55 59 -87 33 -76 -64 2 -24 3 -44 1 -44 -2 0 -18 14 -36 30 -50 48 -58 20
-8 -30 58 -58 70 -50 64 45 -2 41 -1 75 4 75 4 0 20 -14 35 -31 40 -46 61 -36
65 29 2 28 5 52 8 52 3 0 16 -7 29 -16 32 -21 60 -11 75 27 17 40 5 48 -15 10
-8 -17 -20 -31 -26 -31 -15 0 -59 51 -53 61 3 5 -2 9 -10 9 -9 0 -17 -3 -17
-7z"/>
<path d="M2536 2283 c-26 -29 -36 -47 -29 -51 7 -4 43 -6 82 -5 39 1 71 -1 71
-4 0 -3 -13 -21 -30 -40 -16 -18 -30 -38 -30 -44 0 -14 45 -29 87 -29 34 0 35
-1 20 -18 -34 -37 -8 -102 40 -102 22 0 14 16 -13 28 -34 16 -28 50 13 72 44
23 29 39 -45 43 -34 2 -64 6 -67 9 -3 3 5 14 18 25 61 48 33 89 -54 81 -27 -3
-49 -2 -49 2 0 3 11 17 25 30 27 25 33 51 13 49 -7 0 -31 -21 -52 -46z"/>
<path d="M131 2013 c-42 -49 -47 -72 -22 -115 27 -45 64 -66 86 -48 17 14 20
66 5 104 -11 30 -8 32 25 10 26 -17 45 -12 45 13 0 9 -6 13 -14 10 -7 -3 -28
10 -47 29 -18 19 -36 34 -40 34 -3 0 -21 -17 -38 -37z m43 -25 c3 -13 6 -45 5
-73 l0 -50 -29 35 c-34 39 -37 56 -14 88 19 28 30 28 38 0z"/>
<path d="M2801 1975 c-49 -16 -59 -36 -39 -79 17 -35 63 -74 75 -63 3 3 -11
21 -31 40 -35 33 -47 66 -26 68 6 1 15 2 22 3 6 0 26 -14 44 -31 35 -36 61
-42 71 -17 9 25 -14 63 -44 70 -15 4 -30 10 -33 14 -3 4 -20 2 -39 -5z m74
-37 c24 -11 34 -28 16 -28 -11 0 -59 39 -49 40 4 0 19 -5 33 -12z"/>
</g>
</svg>
