<?xml version="1.0" encoding="UTF-8"?>
<svg width="555px" height="260px" viewBox="0 0 555 260" version="1.1" xmlns="http://www.w3.org/2000/svg" xmlns:xlink="http://www.w3.org/1999/xlink">
    <!-- Generator: Sketch 60.1 (88133) - https://sketch.com -->
    <title>Page 1</title>
    <desc>Created with Sketch.</desc>
    <g id="Page-1" stroke="none" stroke-width="1" fill="none" fill-rule="evenodd">
        <polygon id="Path" fill="#E6AF2E" fill-rule="nonzero" transform="translate(177.500000, 200.000000) rotate(1.000000) translate(-177.500000, -200.000000) " points="1.33226763e-15 204.638554 84.7057421 145 246.838771 161.314458 355 255 81.7677611 255"></polygon>
        <path d="M471.991,3.8477562 L508.568129,162.83757 L380.370792,258.706589 L379.354496,258.706589 L554,258.706589 L105,256.073653 L151.230177,162.83757 C441.098623,11.3565254 537.220376,-33.9765147 439.595435,26.83845 C341.970494,87.653414 352.769016,79.989849 471.991,3.8477562 Z" id="Path" stroke="#979797" fill="#E6AF2E" fill-rule="nonzero" opacity="0.17" transform="translate(329.500000, 129.706588) scale(-1, 1) translate(-329.500000, -129.706588) "></path>
        <g id="Group" transform="translate(245.500000, 106.500000) rotate(152.000000) translate(-245.500000, -106.500000) translate(193.000000, 43.000000)" fill-rule="nonzero">
            <g id="Path">
                <path d="M15.4945946,39.8267544 C11.6351351,45.0070175 14.1324324,48.0149123 16.6864865,55.0333333 C23.3837838,73.5263158 27.8675676,87.0618421 37.6297297,104.997807 C43.4756757,115.803947 49.5486486,129.116667 61.7513514,126.108772 C65.6675676,125.161842 93.0243243,109.398246 98.0756757,106.278947 C109.824324,99.0377193 103.694595,88.1201754 96.6567568,77.4811404 C88.7675676,65.5052632 83.3756757,57.595614 74.0108108,47.1236842 C47.3918919,17.2675439 52.6702703,18.3258772 32.9189189,29.4105263 C28.9459459,31.5828947 17.5945946,37.0416667 15.4945946,39.8267544 Z" fill="#666666"></path>
                <path d="M19.0135135,40.8850877 C15.1540541,46.0653509 17.6513514,49.0732456 20.2054054,56.0916667 C26.9027027,74.5846491 41.2054054,54.2535088 50.9675676,72.1894737 C56.8135135,82.9399123 81.9,98.4807018 86.9513514,95.3614035 C98.7,88.1201754 101.935135,89.0671053 94.9540541,78.4837719 C77.1324324,63.8342105 58.4027027,15.4850877 36.7216216,34.5350877 C33.7702703,37.0416667 22.4189189,36.3175439 19.0135135,40.8850877 Z" fill="#666666"></path>
                <path d="M6.01621622,34.0894737 C11.3513514,41.6092105 23.4405405,33.5881579 34.9054054,27.1267544 C40.4675676,24.0074561 44.7243243,22.0578947 45.1783784,16.8219298 C45.4621622,13.7583333 40.5243243,4.95745614 37.7432432,2.06096491 C33.372973,-2.50657895 21.6810811,1.9495614 14.472973,6.07149123 C-0.227027027,14.5938596 -4.5972973,19.4399123 6.01621622,34.0894737 Z" fill="#820933"></path>
                <path d="M15.5513514,6.40570175 C24.9162162,1.33684211 34.0540541,-0.167105263 35.9837838,3.11929825 C37.9135135,6.40570175 31.9540541,13.145614 22.5891892,18.2144737 C13.2243243,23.2833333 4.08648649,24.7872807 2.15675676,21.5008772 C0.227027027,18.2701754 6.24324324,11.5302632 15.5513514,6.40570175 Z" fill="#F6F3F3"></path>
                <path d="M21.7945946,40.0495614 C21.7945946,40.0495614 19.9783784,45.8425439 28.7756757,62.8315789 C32.3513514,69.7385965 35.3594595,77.8153509 38.3108108,85.7807018 C42.8513514,98.0350877 47.2216216,109.899561 53.1810811,115.971053 C62.2054054,125.161842 71.3432432,120.148684 71.4,120.148684 C62.9432432,123.936404 59.4243243,126.331579 51.1378378,117.864912 C44.7810811,111.347807 40.2972973,99.2048246 35.6432432,86.7276316 C32.7486486,78.8736842 29.7405405,70.8526316 26.2783784,64.1127193 C25.0297297,61.8846491 16.572973,43.2802632 21.7945946,40.0495614 Z" fill="#EED7D0"></path>
                <path d="M43.9864865,27.8508772 C43.9864865,27.8508772 50.1162162,29.1877193 61.0135135,45.0070175 C65.4405405,51.4127193 71.2297297,57.9855263 76.9054054,64.3912281 C85.6459459,74.2504386 94.1027027,83.8311404 96.6,91.852193 C100.345946,103.939474 92.7405405,107.504386 92.7405405,107.504386 C97.3378378,104.775 102.843243,102.212719 99.3243243,91.0166667 C96.6567568,82.4385965 87.972973,72.6350877 79.0621622,62.5530702 C73.4432432,56.2030702 67.7108108,49.7416667 63.3972973,43.4473684 C61.9216216,41.3864035 49.4351351,25.0100877 43.9864865,27.8508772 Z" fill="#EED7D0"></path>
                <path d="M37.8567568,30.8587719 C37.8567568,30.8587719 42.3972973,33.0868421 52.8972973,49.1289474 C57.1540541,55.6460526 62.3756757,62.4973684 67.5405405,69.2372807 C75.4297297,79.597807 83.0918919,89.6241228 86.2702703,97.2552632 C91.0945946,108.785526 86.8945946,110.902193 86.8378378,110.902193 C89.7891892,110.456579 92.4567568,107.615789 88.0297297,97.0324561 C84.6243243,88.9 76.7918919,78.5951754 68.6756757,68.0118421 C63.6243243,61.3833333 58.4027027,54.5877193 54.2594595,48.1820175 C52.8972973,46.0653509 41.2054054,29.2434211 37.8567568,30.8587719 Z" fill="#EED7D0"></path>
                <path d="M27.9810811,36.4289474 C27.9810811,36.4289474 27.6972973,41.3307018 36.9486486,58.0969298 C40.6945946,64.8925439 44.2135135,72.6907895 47.7324324,80.3219298 C53.1243243,92.075 58.2891892,103.49386 63.5675676,109.955263 C71.5135135,119.70307 75.5432432,116.52807 75.5432432,116.52807 C71.3432432,119.70307 65.8945946,117.085088 61.5810811,111.292105 C55.9621622,104.385088 51.4783784,92.7434211 45.972973,80.7118421 C42.5108108,73.1364035 38.9918919,65.4495614 35.3594595,58.7653509 C34.1108108,56.5929825 24.8594595,38.4342105 27.9810811,36.4289474 Z" fill="#EED7D0"></path>
            </g>
            <g id="Path" transform="translate(5.000000, 13.000000)">
                <path d="M2.25,1.02 C3.375,0.42 4.4375,0.12 4.5625,0.36 C4.6875,0.6 3.9375,1.32 2.8125,1.92 C1.6875,2.52 0.625,2.82 0.5,2.58 C0.3125,2.34 1.125,1.68 2.25,1.02 Z" fill="#EED7D0"></path>
                <path d="M2.0625,1.32 C3.0625,0.78 3.9375,0.54 4.125,0.72 C4.25,0.96 3.5625,1.56 2.5625,2.1 C1.5625,2.64 0.6875,2.88 0.5,2.7 C0.375,2.46 1.0625,1.86 2.0625,1.32 Z" fill="#E3C2BA"></path>
            </g>
            <g id="Path" transform="translate(12.000000, 10.000000)">
                <path d="M2.125,1.26 C3.25,0.66 4.3125,0.36 4.4375,0.6 C4.5625,0.84 3.8125,1.56 2.6875,2.16 C1.5625,2.76 0.5,3.06 0.375,2.82 C0.1875,2.58 1,1.86 2.125,1.26 Z" fill="#EED7D0"></path>
                <path d="M1.9375,1.5 C2.9375,0.96 3.8125,0.72 4,0.9 C4.125,1.14 3.4375,1.74 2.4375,2.28 C1.4375,2.82 0.5625,3.06 0.375,2.88 C0.25,2.64 0.9375,2.04 1.9375,1.5 Z" fill="#E3C2BA"></path>
            </g>
            <g id="Path" transform="translate(19.000000, 9.000000)">
                <path d="M1.77142857,1.2 C2.8,0.6 3.77142857,0.3 3.88571429,0.54 C4,0.78 3.31428571,1.5 2.28571429,2.1 C1.25714286,2.7 0.285714286,3 0.171428571,2.76 C0.0571428571,2.52 0.742857143,1.8 1.77142857,1.2 Z" fill="#EED7D0"></path>
                <path d="M1.6,1.44 C2.51428571,0.9 3.31428571,0.66 3.48571429,0.84 C3.6,1.08 2.97142857,1.68 2.05714286,2.22 C1.14285714,2.76 0.342857143,3 0.171428571,2.82 C0.114285714,2.58 0.742857143,1.98 1.6,1.44 Z" fill="#E3C2BA"></path>
            </g>
            <g id="Path" transform="translate(25.000000, 4.000000)">
                <path d="M2.1875,1.14 C3.3125,0.54 4.375,0.24 4.5,0.48 C4.625,0.72 3.875,1.44 2.75,2.04 C1.625,2.64 0.5625,2.94 0.4375,2.7 C0.3125,2.46 1.0625,1.74 2.1875,1.14 Z" fill="#EED7D0"></path>
                <path d="M2,1.38 C3,0.84 3.875,0.6 4.0625,0.78 C4.1875,1.02 3.5,1.62 2.5,2.16 C1.5,2.7 0.625,2.94 0.4375,2.76 C0.3125,2.52 1,1.92 2,1.38 Z" fill="#E3C2BA"></path>
            </g>
            <g id="Path" transform="translate(12.000000, 12.000000)">
                <path d="M2.3125,1.26 C3.4375,0.66 4.5,0.36 4.625,0.6 C4.75,0.84 4,1.56 2.875,2.16 C1.75,2.76 0.6875,3.06 0.5625,2.82 C0.375,2.58 1.1875,1.86 2.3125,1.26 Z" fill="#EED7D0"></path>
                <path d="M2.125,1.5 C3.125,0.96 4,0.72 4.1875,0.9 C4.3125,1.14 3.625,1.74 2.625,2.28 C1.625,2.82 0.75,3.06 0.5625,2.88 C0.4375,2.64 1.125,2.04 2.125,1.5 Z" fill="#E3C2BA"></path>
            </g>
            <g id="Path" transform="translate(23.000000, 3.000000)">
                <path d="M2.125,1.2 C3.25,0.6 4.3125,0.3 4.4375,0.54 C4.5625,0.78 3.8125,1.5 2.6875,2.1 C1.5625,2.7 0.5,3 0.375,2.76 C0.25,2.52 1,1.8 2.125,1.2 Z" fill="#EED7D0"></path>
                <path d="M1.9375,1.44 C2.9375,0.9 3.8125,0.66 4,0.84 C4.125,1.08 3.4375,1.68 2.4375,2.22 C1.4375,2.76 0.5625,3 0.375,2.82 C0.3125,2.58 1,1.98 1.9375,1.44 Z" fill="#E3C2BA"></path>
            </g>
            <g id="Path" transform="translate(11.000000, 8.000000)">
                <path d="M2.25,1.26 C3.375,0.66 4.4375,0.36 4.5625,0.6 C4.6875,0.84 3.9375,1.56 2.8125,2.16 C1.6875,2.76 0.625,3.06 0.5,2.82 C0.3125,2.58 1.125,1.86 2.25,1.26 Z" fill="#EED7D0"></path>
                <path d="M2.0625,1.5 C3.0625,0.96 3.9375,0.72 4.125,0.9 C4.25,1.14 3.5625,1.74 2.5625,2.28 C1.5625,2.82 0.6875,3.06 0.5,2.88 C0.375,2.64 1.0625,2.04 2.0625,1.5 Z" fill="#E3C2BA"></path>
            </g>
            <g id="Path" transform="translate(19.000000, 7.000000)">
                <path d="M2.3125,1.26 C3.4375,0.66 4.5,0.36 4.625,0.6 C4.75,0.84 4,1.56 2.875,2.16 C1.75,2.76 0.6875,3.06 0.5625,2.82 C0.375,2.58 1.1875,1.86 2.3125,1.26 Z" fill="#EED7D0"></path>
                <path d="M2.125,1.5 C3.125,0.96 4,0.72 4.1875,0.9 C4.3125,1.14 3.625,1.74 2.625,2.28 C1.625,2.82 0.75,3.06 0.5625,2.88 C0.4375,2.7 1.125,2.04 2.125,1.5 Z" fill="#E3C2BA"></path>
            </g>
            <g id="Path" transform="translate(17.000000, 5.000000)">
                <path d="M2.125,1.26 C3.25,0.66 4.3125,0.36 4.4375,0.6 C4.5625,0.84 3.8125,1.56 2.6875,2.16 C1.5625,2.76 0.5,3.06 0.375,2.82 C0.1875,2.58 1,1.86 2.125,1.26 Z" fill="#EED7D0"></path>
                <path d="M1.9375,1.5 C2.9375,0.96 3.8125,0.72 4,0.9 C4.125,1.14 3.4375,1.74 2.4375,2.28 C1.4375,2.82 0.5625,3.06 0.375,2.88 C0.1875,2.7 0.9375,2.04 1.9375,1.5 Z" fill="#E3C2BA"></path>
            </g>
            <g id="Path" transform="translate(7.000000, 15.000000)">
                <path d="M2.375,1.32 C3.5,0.72 4.5625,0.42 4.6875,0.66 C4.8125,0.9 4.0625,1.62 2.9375,2.22 C1.8125,2.82 0.75,3.12 0.625,2.88 C0.4375,2.64 1.25,1.92 2.375,1.32 Z" fill="#EED7D0"></path>
                <path d="M2.1875,1.56 C3.1875,1.02 4.0625,0.78 4.25,0.96 C4.375,1.2 3.6875,1.8 2.6875,2.34 C1.6875,2.88 0.8125,3.12 0.625,2.94 C0.5,2.7 1.1875,2.1 2.1875,1.56 Z" fill="#E3C2BA"></path>
            </g>
        </g>
        <g id="Group" transform="translate(322.000000, 152.000000)" fill-rule="nonzero">
            <path d="M113,88.9473684 C113,84.0263158 108.833986,80 103.656226,80 L46.3437745,80 C41.1660141,80 37,84.0263158 37,88.9473684 L37,88.9473684 L37,88.9473684 C37,93.4210526 54.0211433,97 75.0297572,97 C95.9788567,97 113,93.4210526 113,88.9473684 L113,88.9473684 L113,88.9473684 Z" id="Path" fill="#820933"></path>
            <path d="M75,0 C33.6042823,0 0,8.81871345 0,19.7290448 C0,21.877193 3.33068993,13.5107212 3.80650278,25.8908382 C4.28231562,38.2709552 9.33782712,66.3664717 44.1316416,82.7037037 L44.1911182,82.7037037 C46.887391,84.3619233 57.1570182,85.7940221 75,87 C92.8429818,85.7940221 103.112609,84.3619233 105.808882,82.7037037 L105.868358,82.7037037 C140.721649,66.4230019 145.777161,38.3274854 146.193497,25.8908382 C148.632038,23.9688109 150,21.877193 150,19.7290448 C149.940523,8.81871345 116.395718,0 75,0 Z" id="Path" fill="#666666"></path>
            <path d="M75.1732974,0 C70.6635199,0 66.2724208,0.112913692 62,0.338741077 C97.0101146,1.97598962 123.594066,10.0493186 123.594066,19.7598962 C123.594066,21.9052563 122.229265,23.9941596 119.796359,25.9136924 C119.321645,38.2777417 114.277815,66.3367943 79.5643965,82.6528228 L79.5050573,82.6528228 C76.7754552,84.3465282 70.3074848,85.7014925 62,86.4354315 C66.0350641,86.7741726 70.4855024,87 75.1732974,87 C89.6520566,87 101.875927,85.1933809 105.910991,82.7092797 L105.97033,82.7092797 C140.743088,66.449708 145.786918,38.3906554 146.202293,25.9701493 C148.635199,24.0506165 150,21.9617132 150,19.816353 C149.940661,8.80726801 116.473365,0 75.1732974,0 Z" id="Path" fill="#666666"></path>
            <path d="M75.0078105,39.8429561 C36.2202256,39.8429561 3.9665371,29.8545035 0.105598325,19.6928406 C-0.131997907,20.3856813 0.105598325,23.0993072 0.105598325,23.8498845 C0.105598325,34.9930716 33.6066671,44 75.0078105,44 C116.349555,44 149.910023,34.9930716 149.910023,23.8498845 C149.910023,23.1570439 150.147619,19.6928406 149.850624,19 C145.989685,29.1616628 113.735996,39.8429561 75.0078105,39.8429561 Z" id="Path" fill="#820933"></path>
            <ellipse id="Oval" fill="#F6F3F3" cx="75" cy="20.5" rx="75" ry="20.5"></ellipse>
            <path d="M133,9 C133,9 147.825726,14.4282238 147.998789,20.8077859 C148.056477,23.5498783 146.095097,26.2919708 133,32 C133,32 145.460533,17.729927 133,9 Z" id="Path" fill="#F6F3F3"></path>
        </g>
    </g>
</svg>