<?xml version="1.0" encoding="UTF-8"?>
<svg width="802px" height="346px" viewBox="0 0 802 346" version="1.1" xmlns="http://www.w3.org/2000/svg" xmlns:xlink="http://www.w3.org/1999/xlink">
    <!-- Generator: Sketch 60.1 (88133) - https://sketch.com -->
    <title>marginkitchen</title>
    <desc>Created with Sketch.</desc>
    <g id="Page-1" stroke="none" stroke-width="1" fill="none" fill-rule="evenodd">
        <g id="marginkitchen" fill-rule="nonzero">
            <g id="m_index" fill="#E6AF2E">
                <path d="M799.54055,87.3328563 L802,173.188284 L799.54055,344.837294 L543.048335,340.837294 L479,273.837294 C478.106331,272.862848 510.477703,252.892742 576.114116,213.926977 C641.750529,174.961211 716.22601,132.763171 799.54055,87.3328563 Z" id="Path"></path>
                <polygon id="Path" points="248.616722 172.219541 404.946772 346 293.383562 345 44.452055 345 0 317.897748"></polygon>
                <polygon id="Path" opacity="0.17" points="257.723303 0 481.981994 67.4896622 593 294.209966 565.193144 345 77 341.767462 116.244232 261.835605"></polygon>
            </g>
            <g id="Group" transform="translate(516.000000, 125.000000)">
                <path d="M258.139482,145.554524 C242.32868,146.49884 225.216989,160.062645 225.216989,160.062645 L229.119655,138 L44.8937933,138 L48.7964596,160.062645 C48.7964596,160.062645 31.7848373,146.49884 15.8739671,145.554524 C-0.0369031202,144.610209 -1.63799698,149.761021 1.06384891,154.911833 C1.06384891,154.911833 15.8739671,151.649652 24.3797782,162.38051 C31.7848373,171.909513 33.5860679,178.777262 52.0987156,179.034803 L54.0000146,189.765661 C56.301587,202.556845 69.1103379,212 84.2206612,212 L189.792787,212 C204.903111,212 217.711862,202.556845 220.013434,189.765661 L221.914733,179.034803 C240.427381,178.777262 242.228611,171.823666 249.63367,162.38051 C258.039413,151.563805 272.9496,154.911833 272.9496,154.911833 C275.651446,149.846868 273.950283,144.696056 258.139482,145.554524 Z" id="Path" fill="#666666"></path>
                <path d="M155.755237,98.3011004 L153.659868,87.7702052 C151.364939,76.1262885 138.393605,68.3351384 124.923374,70.3043302 C111.353363,72.273522 102.273429,83.4037365 104.568357,94.9620361 L106.663727,105.492931 C87.0071665,110.544336 60.1664829,120.047827 45,137 L135.5,123.72936 L226,110.458719 C205.245865,98.7291856 176.210033,97.4449301 155.755237,98.3011004 Z M130.910143,100.61276 C130.910143,100.61276 123.925579,101.468931 113.648291,103.780591 C113.648291,103.780591 113.648291,103.780591 113.648291,103.780591 L111.652701,93.9346317 C110.056229,85.7153964 116.442117,77.9242463 126.020948,76.5543737 C135.599779,75.1845012 144.679713,80.6639914 146.276185,88.8832267 L148.271775,98.7291856 C137.794928,99.4997389 130.910143,100.61276 130.910143,100.61276 Z" id="Shape" fill="#820933"></path>
                <path d="M251.57222,132 C251.57222,132 233.448977,115.029433 236.305358,91.5118449 C239.161739,67.994257 268.218024,51.798995 255.118072,12 C255.118072,12 274.915744,45.1658291 258.466932,76.178033 C242.116615,107.276382 242.904582,117.441493 251.57222,132 Z" id="Path" fill="#B3B3B3"></path>
                <path d="M221.227537,85 C221.227537,85 208.113076,72.9310345 210.231566,56.2931034 C212.350056,39.6551724 233.333193,28.1896552 223.850429,0 C223.850429,0 238.175455,23.4482759 226.27156,45.4310345 C214.468546,67.5 214.972948,74.6551724 221.227537,85 Z" id="Path" fill="#B3B3B3"></path>
                <path d="M15.8345538,145.114105 C0.0496352461,144.158349 -1.64874206,149.371563 1.04868072,154.584778 C1.04868072,154.584778 15.8345538,151.283075 24.3264403,162.143939 C31.7193768,171.788386 33.5176587,178.739339 52,179 L48.6032454,159.711106 C48.7031499,159.88488 31.7193768,146.069861 15.8345538,145.114105 Z" id="Path" fill="#820933"></path>
                <path d="M249.713065,162.10024 C258.086797,151.180394 272.940202,154.560346 272.940202,154.560346 C275.631759,149.36042 274.036763,144.160494 258.186484,145.113814 C242.435893,146.067134 225.389368,159.760273 225.389368,159.760273 L222,179 C240.541835,178.740004 242.236519,171.720103 249.713065,162.10024 Z" id="Path" fill="#820933"></path>
            </g>
            <path d="M343.733977,32.1266523 C317.503198,33.9205514 296.478528,55.248018 295.076883,81.3592155 C293.675238,107.570074 311.596267,129.79449 335.924814,135.275848 C339.829396,136.172798 342.532568,139.660935 342.532568,143.647377 L338.127399,324.532199 C338.027281,329.714574 342.232215,334 347.438324,334 L347.438324,334 C352.644433,334 356.849367,329.714574 356.749249,324.532199 L352.444198,143.647377 C352.34408,139.660935 355.047252,136.073137 358.951834,135.275848 C382.379324,130.093473 400,109.164651 400,84.2493862 C400,54.1517464 374.470043,30.0337701 343.733977,32.1266523 Z M367.5,47 C371.122951,47 374,49.6557377 374,53 C374,56.3442623 371.122951,59 367.5,59 C363.877049,59 361,56.3442623 361,53 C361,49.6557377 363.877049,47 367.5,47 Z M374,83 C374,86.3442623 371.122951,89 367.5,89 C363.877049,89 361,86.3442623 361,83 C361,79.6557377 363.877049,77 367.5,77 C371.016393,77 374,79.6557377 374,83 Z M363,68.0012775 C363,71.3448277 360.122951,74 356.5,74 C352.877049,74 350,71.3448277 350,68.0012775 C350,64.6577272 352.877049,62.002555 356.5,62.002555 C360.016393,61.9042153 363,64.6577272 363,68.0012775 Z M353,83 C353,86.3442623 350.122951,89 346.5,89 C342.877049,89 340,86.3442623 340,83 C340,79.6557377 342.877049,77 346.5,77 C350.122951,77 353,79.6557377 353,83 Z M346.501384,47 C350.123563,47 353,49.6557377 353,53 C353,56.3442623 350.123563,59 346.501384,59 C342.879205,59 340.002768,56.3442623 340.002768,53 C339.896233,49.6557377 342.879205,47 346.501384,47 Z M344,68.0012775 C344,71.3448277 341.122951,74 337.5,74 C333.877049,74 331,71.3448277 331,68.0012775 C331,64.6577272 333.877049,62.002555 337.5,62.002555 C341.122951,61.9042153 344,64.6577272 344,68.0012775 Z M334,83 C334,86.3442623 331.122951,89 327.5,89 C323.877049,89 321,86.3442623 321,83 C321,79.6557377 323.877049,77 327.5,77 C331.016393,77 334,79.6557377 334,83 Z M327.5,47 C331.122951,47 334,49.6557377 334,53 C334,56.3442623 331.122951,59 327.5,59 C323.877049,59 321,56.3442623 321,53 C321,49.6557377 323.983607,47 327.5,47 Z M317.501384,62 C321.123563,62 324,64.6557377 324,68 C324,71.3442623 321.123563,74 317.501384,74 C313.879205,74 311.002768,71.3442623 311.002768,68 C310.896233,64.7540984 313.879205,62 317.501384,62 Z M311,98 C311,94.6557377 313.877049,92 317.5,92 C321.122951,92 324,94.6557377 324,98 C324,101.344262 321.122951,104 317.5,104 C313.983607,104 311,101.344262 311,98 Z M327.498616,119 C323.876437,119 321,116.344262 321,113 C321,109.655738 323.876437,107 327.498616,107 C331.120795,107 333.997232,109.655738 333.997232,113 C334.103767,116.245902 331.120795,119 327.498616,119 Z M337.5,104 C333.877049,104 331,101.344262 331,98 C331,94.6557377 333.877049,92 337.5,92 C341.122951,92 344,94.6557377 344,98 C344,101.344262 341.122951,104 337.5,104 Z M352,320.5 C352,323.6 349.5,326 346.5,326 C343.4,326 341,323.5 341,320.5 C341,317.4 343.5,315 346.5,315 C349.5,315 352,317.5 352,320.5 Z M346.5,119 C342.877049,119 340,116.344262 340,113 C340,109.655738 342.877049,107 346.5,107 C350.122951,107 353,109.655738 353,113 C353,116.245902 350.122951,119 346.5,119 Z M356.5,104 C352.877049,104 350,101.344262 350,98 C350,94.6557377 352.877049,92 356.5,92 C360.122951,92 363,94.6557377 363,98 C363,101.344262 360.016393,104 356.5,104 Z M367.498616,119 C363.876437,119 361,116.344262 361,113 C361,109.655738 363.876437,107 367.498616,107 C371.120795,107 373.997232,109.655738 373.997232,113 C374.103767,116.245902 371.120795,119 367.498616,119 Z M376.5,104 C372.877049,104 370,101.344262 370,98 C370,94.6557377 372.877049,92 376.5,92 C380.122951,92 383,94.6557377 383,98 C383,101.344262 380.122951,104 376.5,104 Z M376.5,74 C372.877049,74 370,71.3442623 370,68 C370,64.6557377 372.877049,62 376.5,62 C380.122951,62 383,64.6557377 383,68 C383,71.3442623 380.122951,74 376.5,74 Z" id="Shape" fill="#595959" transform="translate(347.500000, 183.000000) rotate(-40.000000) translate(-347.500000, -183.000000) "></path>
            <path d="M320.636129,155.89296 C315.267234,152.03568 307.989399,152.03568 302.501195,155.89296 C286.155893,167.4648 281.025615,197.599801 283.650408,210.135961 C286.633128,224.721302 295.342668,231.230462 300.234328,233.159102 C301.427416,233.641262 302.620504,234.123422 303.455665,234.605582 C306.080458,235.931522 307.512164,238.703942 307.392855,241.596902 L302.739813,367.561205 C302.620504,372.262265 305.961149,376.601705 310.614192,376.963325 C315.863778,377.445485 320.278203,373.106045 320.158894,367.922825 L315.505852,241.596902 C315.386543,238.703942 316.937557,235.931522 319.443041,234.605582 C320.397511,234.123422 321.47129,233.641262 322.664378,233.159102 C327.556038,231.230462 336.265579,224.721302 339.248298,210.135961 C342.111709,197.720341 336.981431,167.4648 320.636129,155.89296 Z" id="Path" fill="#595959" transform="translate(311.500000, 265.000000) rotate(-66.000000) translate(-311.500000, -265.000000) "></path>
            <path d="M484.759259,78 L484.759259,78 C483.300926,78 482.166667,78.9216914 482.166667,80.1067232 L482.166667,137.514932 C482.166667,138.568293 481.194444,139.358314 479.898148,139.358314 C478.601852,139.358314 477.62963,138.568293 477.62963,137.514932 L477.62963,80.1067232 C477.62963,78.9216914 476.49537,78 475.037037,78 C473.578704,78 472.444444,78.9216914 472.444444,80.1067232 L472.444444,137.514932 C472.444444,138.568293 471.472222,139.358314 470.175926,139.358314 C468.87963,139.358314 467.907407,138.568293 467.907407,137.514932 L467.907407,80.1067232 C467.907407,78.9216914 466.773148,78 465.314815,78 C463.856481,78 462.722222,78.9216914 462.722222,80.1067232 L462.722222,137.514932 C462.722222,138.568293 461.75,139.358314 460.453704,139.358314 C459.157407,139.358314 458.185185,138.568293 458.185185,137.514932 L458.185185,80.1067232 C458.185185,78.9216914 457.050926,78 455.592593,78 L455.592593,78 C454.134259,78 453,78.9216914 453,80.1067232 L453,151.735313 C453,156.2121 454.782407,160.688887 458.347222,164.243983 L462.884259,168.98411 C464.342593,170.564152 465.152778,172.407535 464.990741,174.382588 L458.671296,313.689662 C458.509259,318.8248 463.046296,323.564928 469.365741,323.959938 C476.49537,324.486619 482.490741,319.746492 482.328704,314.084673 L476.009259,174.250918 C475.847222,172.275865 476.657407,170.432482 478.115741,168.85244 L482.652778,164.112312 C486.055556,160.557217 488,156.08043 488,151.603643 L488,79.975053 C487.351852,78.9216914 486.217593,78 484.759259,78 Z" id="Path" fill="#595959" transform="translate(470.500000, 201.000000) rotate(-13.000000) translate(-470.500000, -201.000000) "></path>
        </g>
    </g>
</svg>