<?xml version="1.0" standalone="no"?>
<!DOCTYPE svg PUBLIC "-//W3C//DTD SVG 20010904//EN"
 "http://www.w3.org/TR/2001/REC-SVG-20010904/DTD/svg10.dtd">
<svg version="1.0" xmlns="http://www.w3.org/2000/svg"
 width="256.000000pt" height="256.000000pt" viewBox="0 0 256.000000 256.000000"
 preserveAspectRatio="xMidYMid meet">
<metadata>
Created by potrace 1.10, written by Peter Selinger 2001-2011
</metadata>
<g transform="translate(0.000000,256.000000) scale(0.100000,-0.100000)"
fill="#000000" stroke="none">
<path d="M1189 2046 c-3 -3 -79 -14 -128 -18 -34 -3 -165 -54 -167 -66 -1 -7
0 -8 3 -2 2 5 9 8 13 5 5 -3 28 3 52 14 78 34 196 54 328 53 59 0 88 -3 190
-17 46 -6 127 -29 136 -38 10 -10 36 -9 30 2 -7 11 -125 50 -151 50 -11 0 -42
5 -70 10 -49 10 -228 15 -236 7z"/>
<path d="M1198 1989 c-194 -16 -371 -98 -486 -223 -108 -119 -135 -235 -78
-344 31 -61 41 -65 22 -9 -7 20 -16 34 -19 30 -4 -3 -8 7 -8 23 -6 124 25 198
126 300 151 153 394 226 645 194 247 -31 445 -153 526 -325 25 -52 34 -165 14
-165 -5 0 -10 11 -10 24 0 42 -11 81 -31 106 -18 24 -18 23 1 -28 22 -58 26
-138 8 -177 -14 -31 -32 -34 -21 -2 15 41 8 140 -14 187 -21 47 -72 114 -80
106 -3 -3 7 -20 22 -40 38 -50 62 -122 64 -193 2 -63 -5 -78 -28 -63 -8 4 -28
2 -47 -6 -19 -8 -34 -10 -34 -5 0 5 9 12 19 16 11 3 24 12 30 19 14 17 22 96
9 96 -5 0 -8 10 -6 23 2 12 0 27 -4 32 -5 6 -29 38 -54 73 -31 41 -60 69 -88
83 -32 15 -36 16 -16 2 83 -58 150 -167 150 -244 0 -42 -3 -50 -29 -65 -17
-10 -31 -29 -35 -45 -4 -21 -17 -34 -55 -53 -53 -27 -74 -48 -41 -39 11 3 23
9 26 14 3 5 13 9 23 9 10 0 26 9 36 20 10 11 22 20 27 20 5 0 22 10 38 21 30
23 60 20 60 -6 0 -10 -19 -25 -47 -37 -59 -26 -58 -25 -44 -42 18 -22 -4 -37
-140 -96 -100 -43 -130 -51 -162 -47 -21 3 -53 0 -70 -7 -48 -19 -318 -7 -359
15 -13 7 -27 12 -31 11 -5 -1 -20 4 -35 12 -15 8 -42 20 -60 26 -18 7 -41 23
-51 36 -10 13 -30 25 -45 28 -15 3 -49 27 -75 53 l-47 48 1 81 c0 94 11 114
61 114 27 0 36 -6 49 -30 17 -33 19 -44 6 -35 -5 3 -19 -9 -32 -26 -16 -23
-24 -27 -30 -18 -4 8 -11 10 -15 7 -6 -7 44 -57 59 -58 4 0 5 10 2 23 -3 12 1
31 8 42 13 16 17 17 31 6 9 -8 15 -19 14 -25 -2 -6 7 -21 20 -34 29 -29 28
-40 -5 -35 -22 4 -25 2 -13 -6 8 -6 22 -11 32 -11 21 0 57 -43 101 -123 33
-58 41 -66 81 -77 30 -8 50 -9 62 -2 21 11 220 54 246 54 10 -1 20 3 23 9 7
11 42 12 48 2 2 -5 2 -3 1 4 -2 7 7 15 19 19 12 4 50 20 84 35 33 16 65 29 71
29 5 0 17 9 28 21 14 16 15 22 5 28 -9 6 -10 11 -2 15 6 4 16 4 21 1 6 -4 18
-1 26 6 21 17 15 96 -9 124 -113 132 -194 203 -256 224 -56 18 -47 5 16 -26
32 -15 58 -33 58 -40 0 -7 20 -25 45 -41 58 -38 102 -86 124 -138 27 -63 20
-78 -37 -82 -97 -6 -219 63 -246 140 -10 27 -9 29 5 17 13 -10 12 -6 -3 27
-10 21 -21 41 -25 42 -16 7 -7 19 26 32 l35 13 -31 29 c-34 32 -68 53 -68 42
0 -4 10 -15 22 -25 l21 -19 -31 0 c-19 0 -40 8 -52 20 -16 16 -20 17 -20 5 0
-9 7 -18 15 -21 8 -4 15 -10 15 -15 0 -13 -34 -11 -49 4 -11 10 -13 10 -7 0 4
-7 2 -13 -3 -13 -6 0 -11 -4 -11 -9 0 -12 54 -21 61 -10 3 5 19 13 36 18 24 7
33 6 37 -5 3 -7 1 -16 -5 -20 -6 -3 -8 -12 -5 -19 7 -19 -26 -28 -58 -15 -34
13 -39 13 -30 -1 8 -14 -27 -3 -76 22 -20 11 -36 15 -38 9 -7 -19 -22 -10 -22
13 0 17 -2 19 -9 7 -6 -8 -7 -18 -5 -22 9 -14 -4 -9 -22 10 -17 16 -18 16 -11
-2 4 -10 3 -24 -2 -30 -14 -17 14 -76 36 -75 11 0 13 3 5 6 -10 4 -10 8 0 20
10 12 9 14 -8 11 -13 -2 -20 3 -22 18 -3 19 1 20 45 17 68 -5 78 -10 63 -28
-7 -9 -8 -15 -2 -15 5 0 12 7 16 15 3 8 11 15 17 15 8 0 8 -4 -1 -15 -16 -19
-7 -19 30 0 17 9 31 11 35 6 3 -5 20 -7 39 -4 31 5 33 3 33 -25 0 -16 11 -47
24 -68 13 -22 23 -43 21 -47 -1 -5 2 -6 7 -3 5 4 14 -2 20 -11 6 -10 11 -14
11 -9 0 6 6 2 13 -7 6 -9 46 -25 87 -36 77 -19 95 -35 65 -57 -15 -11 -22 -10
-46 8 -16 12 -31 19 -35 16 -3 -4 4 -11 15 -18 12 -6 21 -16 21 -22 0 -7 -5
-6 -15 2 -12 10 -15 10 -15 -3 0 -9 -5 -19 -12 -23 -7 -5 -9 -2 -5 9 4 11 2
14 -8 11 -8 -3 -11 -13 -8 -21 4 -11 2 -14 -5 -9 -7 4 -12 2 -12 -4 0 -7 -6
-10 -12 -8 -7 3 -35 -5 -63 -18 -61 -27 -105 -37 -105 -25 0 5 12 12 26 15
l27 7 -22 15 c-12 9 -19 20 -16 25 4 5 2 9 -4 9 -15 0 -23 -18 -9 -22 21 -7
-4 -30 -28 -25 -13 2 -24 1 -24 -3 0 -5 -10 -6 -22 -3 -21 4 -21 4 2 -9 14 -8
27 -11 30 -7 3 5 12 4 20 -1 13 -9 13 -10 0 -11 -8 -1 -24 -3 -35 -5 -78 -14
-90 -15 -75 -5 12 9 9 11 -15 10 -16 0 -24 -3 -17 -6 38 -15 -31 -47 -75 -33
-50 15 -63 22 -57 32 3 5 -3 18 -15 29 -12 11 -21 25 -21 30 0 6 -9 24 -21 40
-11 16 -17 29 -12 29 4 0 1 4 -7 10 -12 8 -12 10 3 16 18 7 24 34 7 34 -6 0
-9 -5 -8 -12 2 -6 -5 -14 -14 -16 -12 -2 -19 5 -24 22 -3 13 -12 27 -21 30 -8
4 -11 11 -6 18 14 23 13 40 -2 28 -8 -7 -15 -7 -19 -1 -3 5 0 12 6 14 8 3 5 6
-6 6 -16 1 -17 3 -5 18 12 14 12 15 0 9 -8 -5 -17 -3 -22 5 -12 19 -11 32 1
24 6 -3 7 1 3 10 -4 11 -8 13 -13 5 -5 -8 -10 -7 -18 3 -6 7 -28 13 -47 12
-34 -1 -36 1 -30 24 14 56 116 154 192 184 49 19 49 20 -1 -71 -23 -42 -36
-54 -65 -62 -37 -11 -84 -40 -64 -40 7 0 14 4 17 9 3 5 25 14 50 20 41 10 75
42 80 75 4 29 50 86 82 101 20 9 38 14 41 11 4 -3 -8 -11 -25 -17 -18 -6 -32
-15 -32 -20 0 -14 17 -11 59 11 22 11 65 24 97 28 50 8 63 7 93 -10 20 -11 44
-27 54 -36 14 -13 20 -13 30 -2 9 9 9 11 0 6 -6 -3 -20 2 -30 12 -10 10 -31
26 -46 36 -16 10 -26 20 -23 24 4 3 53 6 109 5 l102 -1 -70 11 c-86 12 -268
-5 -364 -35 -131 -40 -209 -91 -267 -171 -55 -76 -75 -143 -71 -231 5 -88 26
-121 115 -183 84 -59 146 -88 252 -117 291 -80 602 -18 789 159 184 174 188
342 11 508 -37 36 -97 81 -132 100 -83 46 -211 86 -301 92 -40 3 -83 7 -97 9
-14 1 -64 -1 -112 -5z m202 -313 c0 -3 -4 -8 -10 -11 -5 -3 -10 -1 -10 4 0 6
5 11 10 11 6 0 10 -2 10 -4z"/>
<path d="M1660 1970 c0 -5 5 -10 11 -10 5 0 7 5 4 10 -3 6 -8 10 -11 10 -2 0
-4 -4 -4 -10z"/>
<path d="M1690 1962 c0 -7 21 -22 46 -33 25 -12 70 -44 100 -71 30 -28 54 -45
54 -40 0 6 -24 30 -52 54 -60 50 -108 82 -108 72 0 -4 -9 1 -20 11 -11 10 -20
13 -20 7z"/>
<path d="M844 1946 c-43 -24 -104 -69 -100 -74 3 -2 19 7 36 22 17 14 37 26
44 26 7 0 23 9 36 20 25 22 17 25 -16 6z"/>
<path d="M697 1842 c-37 -39 -34 -48 3 -10 17 17 29 32 27 34 -2 2 -16 -9 -30
-24z"/>
<path d="M1455 1850 c-3 -5 1 -10 9 -10 9 0 16 5 16 10 0 6 -4 10 -9 10 -6 0
-13 -4 -16 -10z"/>
<path d="M1495 1840 c-3 -6 1 -7 9 -4 18 7 21 14 7 14 -6 0 -13 -4 -16 -10z"/>
<path d="M1540 1830 c8 -5 20 -10 25 -10 6 0 3 5 -5 10 -8 5 -19 10 -25 10 -5
0 -3 -5 5 -10z"/>
<path d="M1587 1823 c-4 -7 5 -15 23 -22 18 -6 30 -6 30 0 0 5 -9 9 -19 9 -11
0 -21 5 -23 12 -3 9 -6 9 -11 1z"/>
<path d="M1900 1800 c0 -5 5 -10 11 -10 5 0 7 5 4 10 -3 6 -8 10 -11 10 -2 0
-4 -4 -4 -10z"/>
<path d="M637 1767 l-17 -32 20 24 c17 20 26 41 18 41 -2 0 -11 -15 -21 -33z"/>
<path d="M1650 1796 c0 -7 71 -49 75 -44 2 2 -14 14 -36 26 -21 12 -39 21 -39
18z"/>
<path d="M1468 1783 c7 -3 16 -2 19 1 4 3 -2 6 -13 5 -11 0 -14 -3 -6 -6z"/>
<path d="M1092 1755 c-71 -33 -120 -73 -98 -81 9 -4 25 -4 36 -1 13 3 20 0 20
-8 0 -8 5 -17 12 -21 7 -5 9 -2 5 9 -4 10 1 18 14 22 10 4 19 11 19 16 0 6 8
8 19 4 10 -3 36 5 62 20 43 24 48 36 6 13 -12 -6 -35 -11 -50 -10 -16 2 -39
-6 -53 -17 -27 -21 -65 -18 -44 3 6 6 14 11 18 11 4 1 22 9 39 18 42 22 118
33 127 18 4 -6 15 -11 24 -11 13 0 12 5 -8 20 -33 26 -83 24 -148 -5z"/>
<path d="M975 1735 c-17 -13 -25 -24 -20 -24 14 -1 61 37 54 43 -2 3 -18 -6
-34 -19z"/>
<path d="M1757 1729 c12 -12 25 -20 28 -17 3 3 -7 13 -22 23 l-28 17 22 -23z"/>
<path d="M1956 1720 c7 -28 12 -35 18 -29 2 2 -2 15 -10 29 l-15 25 7 -25z"/>
<path d="M601 1712 c-17 -31 -13 -40 5 -14 9 13 14 26 11 29 -3 2 -10 -4 -16
-15z"/>
<path d="M1500 1721 c0 -4 16 -13 35 -20 19 -7 47 -29 62 -49 15 -20 46 -59
70 -85 23 -26 47 -64 54 -85 6 -20 18 -46 27 -57 14 -20 14 -20 9 2 -3 13 -1
26 5 29 25 15 -22 136 -70 182 -39 36 -192 103 -192 83z m130 -61 c0 -5 -2
-10 -4 -10 -3 0 -8 5 -11 10 -3 6 -1 10 4 10 6 0 11 -4 11 -10z m55 -36 c14
-9 22 -20 19 -25 -10 -17 -40 -9 -64 16 l-23 25 22 0 c12 0 33 -7 46 -16z m49
-83 c12 -22 15 -36 9 -42 -7 -7 -17 3 -32 31 -24 47 -26 53 -9 48 7 -3 21 -19
32 -37z"/>
<path d="M1206 1683 c-5 -11 -10 -13 -14 -7 -4 7 -15 8 -27 4 -18 -7 -18 -9 8
-19 23 -9 31 -8 44 5 11 10 12 19 6 25 -7 7 -13 4 -17 -8z"/>
<path d="M1446 1662 c-3 -5 6 -12 19 -15 14 -2 28 0 31 4 3 5 1 9 -5 9 -5 0
-16 3 -24 6 -8 3 -18 1 -21 -4z"/>
<path d="M1855 1650 c10 -11 20 -20 23 -20 3 0 -3 9 -13 20 -10 11 -20 20 -23
20 -3 0 3 -9 13 -20z"/>
<path d="M1306 1635 c-3 -8 -2 -15 3 -15 5 0 14 7 21 15 10 12 10 15 -3 15 -8
0 -17 -7 -21 -15z"/>
<path d="M572 1595 c0 -16 2 -22 5 -12 2 9 2 23 0 30 -3 6 -5 -1 -5 -18z"/>
<path d="M1518 1588 c22 -18 48 -45 58 -60 24 -35 30 -28 10 11 -9 17 -33 42
-53 56 -53 36 -63 31 -15 -7z"/>
<path d="M1992 1590 c0 -19 2 -27 5 -17 2 9 2 25 0 35 -3 9 -5 1 -5 -18z"/>
<path d="M660 1586 c-5 -15 -10 -35 -9 -44 0 -9 7 1 15 22 8 22 12 41 9 44 -2
3 -9 -7 -15 -22z"/>
<path d="M964 1595 c-18 -14 -18 -14 4 -8 12 3 22 9 22 14 0 12 -3 11 -26 -6z"/>
<path d="M1046 1597 c3 -10 9 -15 12 -12 3 3 0 11 -7 18 -10 9 -11 8 -5 -6z"/>
<path d="M910 1590 c0 -13 18 -22 24 -11 3 5 -1 11 -9 15 -8 3 -15 1 -15 -4z"/>
<path d="M1000 1580 c-11 -11 -20 -26 -19 -32 0 -10 2 -10 5 -1 3 7 11 11 17
9 7 -1 8 -1 4 2 -5 2 -1 13 9 23 23 25 9 24 -16 -1z"/>
<path d="M861 1581 c-8 -5 -11 -16 -6 -30 6 -20 8 -20 31 -4 14 8 22 18 20 21
-3 3 -12 -1 -21 -8 -9 -7 -18 -10 -22 -6 -4 3 2 13 13 21 20 15 8 21 -15 6z"/>
<path d="M1483 1565 c15 -14 33 -25 40 -25 7 0 -1 11 -18 25 -39 32 -58 32
-22 0z"/>
<path d="M950 1559 c0 -5 5 -7 10 -4 6 3 10 8 10 11 0 2 -4 4 -10 4 -5 0 -10
-5 -10 -11z"/>
<path d="M1459 1546 c14 -17 99 -62 132 -70 16 -3 33 0 45 9 18 14 17 14 -12
9 -24 -5 -49 3 -104 29 -39 20 -67 30 -61 23z"/>
<path d="M574 1494 c3 -76 39 -154 105 -226 26 -29 46 -59 44 -65 -3 -7 0 -13
7 -13 6 0 8 5 5 10 -9 15 11 12 24 -3 6 -8 7 -18 3 -22 -4 -5 -1 -5 5 -1 7 4
31 -6 55 -22 45 -31 192 -83 293 -103 33 -7 108 -12 168 -11 65 1 105 -3 102
-9 -4 -5 1 -9 10 -9 9 0 13 5 10 10 -3 6 3 10 14 10 11 0 23 -5 26 -10 3 -5
11 -10 18 -10 6 0 2 7 -9 15 -18 14 -18 14 6 15 14 0 46 7 71 14 36 11 49 12
59 3 9 -9 11 -9 8 1 -4 17 144 82 174 76 19 -4 20 -3 5 4 -17 7 -14 11 22 36
116 81 202 216 200 316 l-2 55 -7 -55 c-22 -169 -190 -321 -435 -396 -83 -25
-103 -27 -265 -27 -150 -1 -187 3 -255 21 -253 70 -427 222 -455 400 l-9 57 3
-61z"/>
<path d="M1175 1540 c-3 -5 -2 -10 4 -10 5 0 13 5 16 10 3 6 2 10 -4 10 -5 0
-13 -4 -16 -10z"/>
<path d="M940 1520 c-8 -5 -12 -12 -9 -15 4 -3 12 1 19 10 14 17 11 19 -10 5z"/>
<path d="M1060 1513 c0 -7 4 -13 9 -13 5 0 13 6 19 13 8 10 6 13 -9 13 -10 0
-19 -6 -19 -13z"/>
<path d="M1256 1513 c-6 -14 -5 -15 5 -6 7 7 10 15 7 18 -3 3 -9 -2 -12 -12z"/>
<path d="M1290 1519 c0 -5 5 -7 10 -4 6 3 10 8 10 11 0 2 -4 4 -10 4 -5 0 -10
-5 -10 -11z"/>
<path d="M1311 1507 c-7 -9 -17 -14 -22 -11 -5 3 -9 1 -9 -5 0 -5 5 -13 10
-16 6 -3 10 -1 10 4 0 6 5 11 11 11 6 0 8 -7 4 -17 -5 -14 -3 -15 5 -7 7 7 10
22 8 34 -3 21 -4 22 -17 7z"/>
<path d="M730 1489 c-15 -28 -4 -38 15 -13 17 22 19 34 5 34 -5 0 -14 -9 -20
-21z"/>
<path d="M1192 1497 c-24 -14 -20 -27 8 -27 9 0 16 8 16 20 0 11 0 20 -1 20 0
-1 -10 -6 -23 -13z"/>
<path d="M1470 1503 c0 -6 7 -13 15 -17 8 -3 15 -14 15 -25 0 -11 5 -23 11
-27 18 -11 0 38 -22 61 -10 11 -19 14 -19 8z"/>
<path d="M901 1484 c0 -11 3 -14 6 -6 3 7 2 16 -1 19 -3 4 -6 -2 -5 -13z"/>
<path d="M970 1490 c0 -5 7 -7 15 -4 8 4 15 8 15 10 0 2 -7 4 -15 4 -8 0 -15
-4 -15 -10z"/>
<path d="M1055 1480 c-3 -5 -12 -7 -19 -4 -8 3 -17 1 -21 -5 -9 -15 32 -8 47
7 7 7 9 12 6 12 -4 0 -9 -4 -13 -10z"/>
<path d="M1136 1463 c-6 -14 -5 -15 5 -6 7 7 10 15 7 18 -3 3 -9 -2 -12 -12z"/>
<path d="M966 1445 c-9 -26 -7 -32 5 -12 6 10 9 21 6 23 -2 3 -7 -2 -11 -11z"/>
<path d="M1570 1453 c0 -6 5 -15 10 -18 6 -4 8 -11 5 -16 -4 -5 -1 -9 4 -9 15
0 14 13 -4 36 -8 10 -15 14 -15 7z"/>
<path d="M1633 1445 c-3 -9 -3 -19 1 -22 3 -4 6 1 6 11 0 10 5 14 12 10 7 -4
8 -3 4 4 -10 16 -15 15 -23 -3z"/>
<path d="M1020 1439 c0 -5 5 -7 10 -4 6 3 10 8 10 11 0 2 -4 4 -10 4 -5 0 -10
-5 -10 -11z"/>
<path d="M1165 1439 c-10 -15 2 -23 40 -26 36 -2 54 10 34 23 -8 4 -9 3 -5 -4
4 -7 1 -12 -8 -12 -9 0 -16 8 -16 18 -1 16 -1 16 -11 0 -12 -22 -31 -24 -23
-3 7 17 -2 20 -11 4z"/>
<path d="M1071 1436 c46 -31 57 -35 55 -19 -2 9 -14 17 -30 19 -16 2 -27 2
-25 0z"/>
<path d="M1057 1419 c7 -7 15 -10 18 -7 3 3 -2 9 -12 12 -14 6 -15 5 -6 -5z"/>
<path d="M1353 1411 c-3 -13 -11 -18 -21 -15 -29 9 30 -30 62 -41 17 -6 45 -8
61 -4 17 4 22 7 13 8 -12 1 -15 6 -11 19 6 15 4 15 -15 -2 -21 -18 -22 -18
-39 1 -10 10 -14 13 -9 6 6 -9 2 -13 -13 -13 -24 0 -29 28 -9 48 9 9 9 12 -1
12 -7 0 -15 -9 -18 -19z"/>
<path d="M1003 1405 c0 -8 4 -15 9 -15 4 0 8 4 8 9 0 6 -4 12 -8 15 -5 3 -9
-1 -9 -9z"/>
<path d="M972 1390 c7 -10 14 -18 15 -16 6 6 -9 36 -18 36 -5 0 -4 -9 3 -20z"/>
<path d="M1036 1393 c-6 -14 -5 -15 5 -6 7 7 10 15 7 18 -3 3 -9 -2 -12 -12z"/>
<path d="M1290 1400 c0 -5 5 -10 11 -10 5 0 7 5 4 10 -3 6 -8 10 -11 10 -2 0
-4 -4 -4 -10z"/>
<path d="M1095 1390 c3 -5 11 -10 16 -10 6 0 7 5 4 10 -3 6 -11 10 -16 10 -6
0 -7 -4 -4 -10z"/>
<path d="M1061 1379 c-1 -18 36 -55 46 -46 3 4 1 7 -5 7 -7 0 -12 9 -12 21 0
11 -4 18 -9 15 -5 -4 -12 0 -14 6 -4 9 -6 7 -6 -3z"/>
<path d="M1005 1370 c-3 -5 -1 -10 4 -10 6 0 11 5 11 10 0 6 -2 10 -4 10 -3 0
-8 -4 -11 -10z"/>
<path d="M1300 1370 c0 -5 7 -10 16 -10 8 0 12 5 9 10 -3 6 -10 10 -16 10 -5
0 -9 -4 -9 -10z"/>
<path d="M740 1360 c0 -21 41 -49 90 -64 29 -9 60 -26 71 -39 19 -25 59 -42
59 -27 0 23 -52 61 -118 85 -41 15 -76 34 -79 41 -6 16 -23 19 -23 4z"/>
<path d="M1175 1360 c-3 -6 1 -7 9 -4 18 7 21 14 7 14 -6 0 -13 -4 -16 -10z"/>
<path d="M1222 1340 c-18 -29 -15 -38 4 -12 9 13 14 25 12 27 -2 2 -9 -5 -16
-15z"/>
<path d="M1283 1335 c0 -11 4 -12 14 -4 7 6 13 13 13 15 0 2 -6 4 -13 4 -8 0
-14 -7 -14 -15z"/>
<path d="M1600 1340 c0 -5 5 -10 11 -10 5 0 7 5 4 10 -3 6 -8 10 -11 10 -2 0
-4 -4 -4 -10z"/>
<path d="M1245 1330 c-3 -6 1 -7 9 -4 18 7 21 14 7 14 -6 0 -13 -4 -16 -10z"/>
<path d="M1380 1335 c0 -2 10 -10 23 -16 20 -11 21 -11 8 4 -13 16 -31 23 -31
12z"/>
<path d="M1440 1330 c0 -5 5 -10 11 -10 5 0 7 5 4 10 -3 6 -8 10 -11 10 -2 0
-4 -4 -4 -10z"/>
<path d="M1044 1322 c4 -7 2 -20 -5 -28 -18 -22 -5 -27 15 -5 15 17 15 19 -1
32 -12 10 -15 10 -9 1z"/>
<path d="M1126 1314 c-5 -14 -4 -15 9 -4 17 14 19 20 6 20 -5 0 -12 -7 -15
-16z"/>
<path d="M1476 1314 c-9 -23 -2 -28 13 -10 7 8 8 17 3 20 -6 3 -13 -1 -16 -10z"/>
<path d="M620 1302 c6 -13 14 -21 18 -18 3 4 -2 14 -12 24 -18 16 -18 16 -6
-6z"/>
<path d="M975 1311 c-3 -5 -2 -12 3 -15 5 -3 9 1 9 9 0 17 -3 19 -12 6z"/>
<path d="M1151 1302 c-7 -14 -4 -20 17 -30 20 -9 23 -9 14 0 -7 7 -12 19 -12
28 1 12 4 11 15 -4 8 -11 15 -15 15 -10 0 12 -21 34 -32 34 -4 0 -12 -8 -17
-18z"/>
<path d="M1294 1311 c-5 -5 -22 -11 -39 -13 l-30 -3 23 -13 c21 -12 26 -11 44
8 19 21 21 39 2 21z"/>
<path d="M1930 1285 c-7 -14 -17 -25 -22 -25 -5 0 -7 -4 -4 -9 10 -15 -52 -96
-88 -115 -20 -11 -36 -22 -36 -26 0 -12 -181 -92 -196 -86 -8 3 -14 1 -14 -3
0 -5 -28 -14 -62 -20 -37 -6 -70 -19 -82 -31 l-20 -20 28 0 c21 0 27 4 22 15
-5 13 -2 14 16 4 17 -9 23 -9 26 0 3 9 7 9 18 0 12 -10 13 -9 8 5 -3 9 -1 16
5 16 6 0 11 -4 11 -10 0 -5 7 -10 16 -10 13 0 14 3 4 14 -10 13 -7 14 14 10
16 -2 26 0 26 7 0 6 9 9 20 6 11 -3 20 -2 20 1 0 7 48 31 65 32 6 1 18 9 28
17 9 9 17 13 17 10 0 -3 19 11 42 33 48 44 62 45 27 2 -44 -52 -118 -103 -210
-143 -72 -31 -94 -37 -105 -28 -12 10 -13 8 -8 -6 5 -13 4 -16 -4 -11 -7 4
-17 4 -23 0 -8 -4 -7 -9 2 -15 10 -6 10 -9 2 -9 -6 0 -14 4 -18 9 -5 9 -114 5
-144 -5 -8 -2 -26 3 -40 13 -25 16 -25 16 -11 -2 14 -17 13 -18 -19 -12 -18 4
-47 7 -63 7 -17 0 -27 4 -23 10 3 6 2 10 -4 10 -5 0 -13 -5 -16 -11 -5 -6 -12
-4 -21 8 -13 17 -13 17 -14 -4 0 -17 -4 -21 -17 -16 -10 3 -15 2 -10 -2 8 -9
87 -17 155 -16 31 1 42 -3 42 -14 0 -8 4 -15 10 -15 5 0 6 7 3 17 -4 9 -2 14
3 11 5 -3 35 -2 67 1 48 6 57 5 57 -8 1 -14 3 -13 14 2 13 17 42 25 32 8 -3
-4 6 -6 19 -3 13 2 23 9 22 15 -1 6 9 12 23 12 14 0 35 6 47 13 14 7 24 8 28
2 6 -9 -29 -27 -114 -56 -55 -19 -301 -33 -301 -16 0 5 -9 8 -20 5 -41 -11
-257 77 -244 99 3 5 14 2 23 -6 10 -9 27 -16 39 -16 12 0 22 -4 22 -10 0 -5 9
-10 20 -10 11 0 20 -5 20 -12 0 -6 3 -8 7 -5 8 9 -26 47 -43 47 -7 0 -15 6
-17 13 -4 9 -8 9 -15 -2 -8 -11 -12 -10 -21 5 -6 11 -11 15 -11 10 0 -5 -9 -1
-20 9 -15 14 -23 15 -34 6 -11 -9 -14 -8 -12 6 0 10 -5 18 -13 18 -8 0 -17 8
-20 18 -4 10 -10 18 -15 17 -4 -1 -23 12 -43 29 -30 26 -34 33 -23 46 8 10 9
15 1 15 -6 0 -11 -5 -11 -11 0 -5 -5 -7 -10 -4 -6 4 -8 10 -5 15 3 5 -3 13
-12 19 -10 6 -14 11 -10 11 4 0 -2 10 -13 23 -12 12 -28 37 -37 55 -9 18 -18
31 -20 28 -9 -8 57 -123 104 -181 27 -33 75 -81 108 -108 33 -27 59 -52 58
-57 -2 -5 5 -6 14 -3 11 4 14 2 9 -5 -10 -17 39 -45 65 -37 14 5 19 3 15 -3
-3 -6 3 -13 14 -17 11 -4 18 -11 15 -16 -4 -5 5 -5 20 1 35 13 54 13 35 -1
-11 -8 -8 -9 13 -4 18 4 26 2 22 -4 -4 -7 13 -10 47 -8 33 2 58 -2 66 -10 8
-7 17 -11 21 -9 4 3 29 6 55 7 26 2 49 6 52 10 2 4 19 5 37 3 24 -4 28 -2 17
5 -12 9 -11 11 8 11 15 0 21 -4 16 -12 -4 -7 -3 -8 5 -4 6 4 9 12 6 17 -4 5 1
9 10 9 9 0 13 -5 10 -10 -4 -6 9 -3 29 6 19 10 33 21 30 26 -3 5 7 8 22 6 19
-2 29 2 29 11 0 8 6 16 13 19 8 2 10 -2 5 -14 -6 -16 -5 -17 9 -4 9 8 12 17 6
19 -5 1 -1 10 9 18 17 13 16 13 -4 4 -30 -15 -38 -14 -23 4 7 8 16 13 20 10 4
-2 15 2 26 9 10 8 24 12 30 9 7 -2 15 1 20 8 5 8 3 10 -6 4 -9 -5 -11 -4 -6 4
4 6 11 9 16 6 17 -10 155 152 199 234 23 45 41 84 39 87 -3 2 -11 -7 -18 -21z
m-950 -390 c14 -8 21 -14 15 -14 -5 0 -21 6 -35 14 -14 8 -20 14 -15 14 6 0
21 -6 35 -14z m85 -35 c13 -6 15 -9 5 -9 -8 0 -22 4 -30 9 -18 12 -2 12 25 0z
m455 0 c-8 -5 -19 -10 -25 -10 -5 0 -3 5 5 10 8 5 20 10 25 10 6 0 3 -5 -5
-10z"/>
<path d="M1345 1290 c-3 -6 1 -7 9 -4 18 7 21 14 7 14 -6 0 -13 -4 -16 -10z"/>
<path d="M1210 1286 c0 -2 8 -10 18 -17 15 -13 16 -12 3 4 -13 16 -21 21 -21
13z"/>
<path d="M1425 1280 c-8 -13 5 -13 25 0 13 8 13 10 -2 10 -9 0 -20 -4 -23 -10z"/>
<path d="M990 1272 c0 -11 22 -32 32 -32 5 0 4 9 -2 20 -11 20 -30 28 -30 12z"/>
<path d="M1680 1269 c-20 -8 -159 -39 -176 -39 -2 0 -1 -7 2 -15 4 -8 1 -22
-6 -30 -6 -7 26 2 72 22 46 19 98 40 116 46 17 6 32 14 32 19 0 10 -8 9 -40
-3z m-135 -59 c-3 -5 -10 -10 -16 -10 -5 0 -9 5 -9 10 0 6 7 10 16 10 8 0 12
-4 9 -10z"/>
<path d="M1115 1261 c-7 -12 31 -25 46 -15 8 4 7 9 -2 15 -18 11 -36 11 -44 0z"/>
<path d="M1187 1245 c-18 -13 -18 -14 2 -24 28 -16 48 -14 26 2 -10 8 -15 19
-11 25 9 15 5 15 -17 -3z"/>
<path d="M1047 1220 c-21 -25 -21 -27 3 -33 11 -3 20 -1 20 4 0 5 5 9 10 9 6
0 10 -7 10 -15 0 -16 12 -20 23 -8 11 11 -30 33 -48 26 -15 -5 -16 -3 -6 15
15 27 10 28 -12 2z"/>
<path d="M1110 1220 c0 -5 5 -10 10 -10 6 0 10 5 10 10 0 6 -4 10 -10 10 -5 0
-10 -4 -10 -10z"/>
<path d="M800 1140 c0 -5 5 -10 11 -10 5 0 7 5 4 10 -3 6 -8 10 -11 10 -2 0
-4 -4 -4 -10z"/>
<path d="M1710 1114 c-16 -8 -19 -14 -9 -14 8 0 24 7 35 15 24 18 7 18 -26 -1z"/>
<path d="M790 1110 c-13 -9 -13 -12 2 -20 9 -6 23 -16 30 -23 24 -22 59 -38
68 -32 6 4 10 1 10 -4 0 -15 37 -14 43 2 3 8 -7 13 -31 14 -19 1 -38 5 -41 10
-3 4 -19 16 -36 25 -16 10 -29 22 -27 28 3 12 1 12 -18 0z"/>
<path d="M895 1090 c-3 -6 4 -10 17 -10 18 0 20 -2 8 -10 -9 -6 -10 -10 -3
-10 21 0 24 19 4 30 -13 7 -22 7 -26 0z"/>
<path d="M1658 1078 c5 -5 16 -8 23 -6 8 3 3 7 -10 11 -17 4 -21 3 -13 -5z"/>
<path d="M1621 1064 c0 -11 3 -14 6 -6 3 7 2 16 -1 19 -3 4 -6 -2 -5 -13z"/>
<path d="M970 1060 c20 -13 33 -13 25 0 -3 6 -14 10 -23 10 -15 0 -15 -2 -2
-10z"/>
<path d="M1106 1024 c-5 -14 -4 -15 9 -4 17 14 19 20 6 20 -5 0 -12 -7 -15
-16z"/>
<path d="M939 1013 c-12 -15 -11 -16 9 -11 13 4 20 2 16 -4 -4 -6 1 -8 15 -3
12 4 21 2 21 -4 0 -6 10 -11 22 -11 12 0 30 -7 40 -17 20 -18 25 -4 6 16 -11
10 -10 11 5 6 9 -4 17 -11 17 -15 0 -4 7 -11 16 -14 12 -4 15 -2 10 9 -8 22
-1 19 31 -12 19 -20 25 -23 20 -9 -5 13 -3 17 5 13 54 -22 54 -22 38 -2 -14
17 -14 18 18 1 24 -13 37 -14 52 -6 17 9 20 8 20 -12 0 -21 1 -21 13 -3 8 10
19 15 25 11 10 -6 92 28 92 38 0 7 -95 -7 -107 -16 -8 -7 -10 -3 -6 14 3 17 2
19 -5 9 -9 -13 -69 -22 -86 -13 -5 3 -25 6 -45 7 -20 2 -54 6 -76 10 -22 3
-49 7 -60 8 -11 2 -24 5 -30 8 -29 17 -63 18 -76 2z"/>
<path d="M1135 1020 c-3 -5 -1 -10 4 -10 6 0 11 5 11 10 0 6 -2 10 -4 10 -3 0
-8 -4 -11 -10z"/>
<path d="M1724 968 l-19 -23 23 19 c21 18 27 26 19 26 -2 0 -12 -10 -23 -22z"/>
<path d="M1669 955 c-1 -3 -2 -8 -3 -12 -1 -5 -5 -14 -10 -22 -5 -8 1 -7 18 4
30 20 34 27 9 18 -11 -4 -14 -3 -9 5 4 7 5 12 2 12 -3 0 -7 -2 -7 -5z"/>
<path d="M1055 920 c3 -5 11 -10 16 -10 6 0 7 5 4 10 -3 6 -11 10 -16 10 -6 0
-7 -4 -4 -10z"/>
<path d="M1445 920 c3 -5 8 -10 11 -10 2 0 4 5 4 10 0 6 -5 10 -11 10 -5 0 -7
-4 -4 -10z"/>
<path d="M510 648 c0 -21 -5 -28 -20 -28 -15 0 -20 -7 -20 -25 0 -26 14 -33
26 -14 5 8 10 6 16 -5 10 -18 94 -23 100 -6 4 12 520 14 1063 5 181 -3 302 -2
290 3 -13 6 9 7 58 4 l77 -5 0 27 c0 25 -2 26 -60 26 -47 0 -60 -3 -60 -15 0
-13 -28 -15 -190 -15 -161 0 -190 2 -190 15 0 13 -61 14 -490 8 l-490 -6 0 29
c0 29 -1 29 -55 29 -53 0 -55 -1 -55 -27z m74 -3 c4 -11 -1 -15 -19 -15 -24 0
-32 10 -18 23 11 12 31 8 37 -8z m24 -37 c-3 -7 -23 -14 -46 -16 -33 -2 -42 0
-42 12 0 12 11 16 46 16 32 0 44 -4 42 -12z m825 -5 c-90 -2 -236 -2 -325 0
-90 1 -17 3 162 3 179 0 252 -2 163 -3z m630 0 c-13 -2 -35 -2 -50 0 -16 2 -5
4 22 4 28 0 40 -2 28 -4z m-280 -20 c-7 -2 -19 -2 -25 0 -7 3 -2 5 12 5 14 0
19 -2 13 -5z m44 1 c-3 -3 -12 -4 -19 -1 -8 3 -5 6 6 6 11 1 17 -2 13 -5z"/>
<path d="M1610 622 c0 -5 43 -8 95 -8 52 0 95 4 95 8 0 4 -43 8 -95 8 -52 0
-95 -4 -95 -8z"/>
<path d="M1815 620 c7 -11 155 -9 155 3 0 4 -36 7 -81 7 -49 0 -78 -4 -74 -10z"/>
<path d="M1103 562 c-429 -2 -493 -4 -493 -17 0 -11 -12 -15 -45 -15 -33 0
-45 4 -45 15 0 9 -9 15 -25 15 -20 0 -25 -5 -25 -25 0 -26 24 -35 33 -12 3 6
6 -8 6 -33 l1 -45 55 0 55 0 0 45 c0 25 4 40 8 34 5 -8 225 -13 740 -18 l732
-6 0 35 0 35 -60 0 c-47 0 -60 -3 -60 -15 0 -13 -28 -15 -189 -15 -143 0 -190
3 -193 13 -2 9 -108 11 -495 9z m972 -12 c4 -6 -12 -10 -39 -10 -25 0 -46 5
-46 10 0 6 18 10 39 10 22 0 43 -4 46 -10z m-657 -7 c-98 -2 -258 -2 -355 0
-98 1 -18 2 177 2 195 0 275 -1 178 -2z m219 -19 c-3 -3 -12 -4 -19 -1 -8 3
-5 6 6 6 11 1 17 -2 13 -5z m50 0 c-3 -3 -12 -4 -19 -1 -8 3 -5 6 6 6 11 1 17
-2 13 -5z m40 0 c-3 -3 -12 -4 -19 -1 -8 3 -5 6 6 6 11 1 17 -2 13 -5z m96 -1
c-13 -2 -35 -2 -50 0 -16 2 -5 4 22 4 28 0 40 -2 28 -4z m145 0 c-10 -2 -28
-2 -40 0 -13 2 -5 4 17 4 22 1 32 -1 23 -4z m-1380 -30 c-2 -10 -12 -18 -23
-18 -11 0 -21 8 -23 18 -3 13 3 17 23 17 20 0 26 -4 23 -17z"/>
</g>
</svg>
