<?xml version="1.0" standalone="no"?>
<!DOCTYPE svg PUBLIC "-//W3C//DTD SVG 20010904//EN"
 "http://www.w3.org/TR/2001/REC-SVG-20010904/DTD/svg10.dtd">
<svg version="1.0" xmlns="http://www.w3.org/2000/svg"
 width="300.000000pt" height="300.000000pt" viewBox="0 0 300.000000 300.000000"
 preserveAspectRatio="xMidYMid meet">
<metadata>
Created by potrace 1.10, written by Peter Selinger 2001-2011
</metadata>
<g transform="translate(0.000000,300.000000) scale(0.100000,-0.100000)"
fill="#000000" stroke="none">
<path d="M1568 2443 c12 -2 30 -2 40 0 9 3 -1 5 -23 4 -22 0 -30 -2 -17 -4z"/>
<path d="M1378 2393 c7 -3 16 -2 19 1 4 3 -2 6 -13 5 -11 0 -14 -3 -6 -6z"/>
<path d="M1500 2390 l35 -7 -45 -8 c-35 -7 -40 -10 -25 -16 12 -4 -23 -9 -85
-10 -86 -2 -96 -3 -55 -9 46 -6 47 -7 13 -8 -26 -2 -38 -7 -38 -17 0 -11 -12
-15 -46 -15 -27 0 -51 -6 -60 -15 -10 -9 -25 -13 -39 -9 -13 3 -32 1 -42 -5
-15 -10 -14 -10 9 -5 21 5 30 1 44 -21 l17 -26 13 30 c16 37 37 42 28 6 -5
-21 -3 -25 15 -25 22 0 29 24 11 35 -5 3 -10 10 -10 16 0 15 19 10 39 -10 19
-19 20 -19 29 9 8 22 18 29 49 35 22 3 52 1 68 -5 23 -9 31 -8 34 1 8 24 50
59 71 59 12 0 19 3 16 8 -2 4 21 9 52 10 94 5 72 12 -34 11 -68 -1 -88 -4 -64
-9z m-57 -57 c-7 -2 -19 -2 -25 0 -7 3 -2 5 12 5 14 0 19 -2 13 -5z"/>
<path d="M1678 2393 c7 -3 16 -2 19 1 4 3 -2 6 -13 5 -11 0 -14 -3 -6 -6z"/>
<path d="M1718 2393 c6 -2 18 -2 25 0 6 3 1 5 -13 5 -14 0 -19 -2 -12 -5z"/>
<path d="M1570 2371 c0 -6 9 -11 21 -11 15 0 19 -5 15 -15 -7 -19 -8 -19 39 5
l39 20 -41 0 c-23 0 -48 3 -57 6 -9 3 -16 1 -16 -5z"/>
<path d="M1703 2363 c9 -2 25 -2 35 0 9 3 1 5 -18 5 -19 0 -27 -2 -17 -5z"/>
<path d="M1540 2340 c-8 -5 -12 -12 -9 -15 8 -8 39 5 39 16 0 11 -11 11 -30
-1z"/>
<path d="M1667 2343 c-16 -15 -5 -25 20 -18 45 11 48 11 46 -2 -2 -7 7 -13 18
-13 18 0 19 2 9 15 -10 12 -10 15 4 15 9 0 16 -4 16 -10 0 -5 13 -7 30 -3 36
7 41 -14 10 -42 -24 -22 -26 -35 -5 -35 8 0 15 7 15 15 0 8 5 15 10 15 6 0 10
7 10 15 0 22 41 0 47 -26 7 -24 7 -24 36 5 l24 24 -35 0 c-19 0 -38 6 -43 14
-5 7 -14 13 -21 13 -7 1 -12 6 -10 13 1 9 -23 12 -86 12 -49 0 -92 -3 -95 -7z"/>
<path d="M1898 2343 c12 -2 30 -2 40 0 9 3 -1 5 -23 4 -22 0 -30 -2 -17 -4z"/>
<path d="M1550 2270 l0 -31 30 16 c34 18 40 30 10 22 -13 -3 -20 0 -20 9 0 8
-4 14 -10 14 -5 0 -10 -14 -10 -30z"/>
<path d="M1953 2264 c-8 -21 -1 -24 26 -10 l23 13 -21 6 c-14 3 -24 0 -28 -9z"/>
<path d="M1384 2261 c-12 -12 0 -16 41 -13 29 3 45 0 45 -7 0 -7 8 -11 18 -9
16 3 18 -1 13 -34 0 -7 -25 -24 -54 -37 -32 -15 -58 -34 -65 -49 -16 -35 -9
-38 21 -8 22 22 97 66 112 66 3 0 5 -6 4 -12 -3 -27 1 -81 6 -76 3 3 9 24 13
48 l7 43 33 -28 c19 -16 38 -39 43 -52 5 -12 13 -23 18 -23 11 0 3 38 -10 46
-5 3 -9 13 -9 22 0 22 -51 67 -76 67 -14 0 -20 8 -22 30 -3 30 -3 30 -68 30
-36 0 -68 -2 -70 -4z"/>
<path d="M1588 2246 c-27 -20 -22 -26 11 -15 21 7 36 7 50 0 11 -6 26 -10 33
-9 7 2 14 -7 16 -19 3 -23 10 -27 49 -24 12 1 28 -7 37 -20 8 -13 19 -20 23
-16 3 4 -7 21 -23 39 -21 23 -24 29 -10 24 10 -3 24 -1 32 5 9 7 19 7 34 -1
25 -13 39 -5 22 12 -16 16 -94 12 -107 -5 -7 -10 -17 -12 -34 -6 -18 7 -21 12
-12 23 20 24 -91 35 -121 12z"/>
<path d="M1008 2243 c6 -2 18 -2 25 0 6 3 1 5 -13 5 -14 0 -19 -2 -12 -5z"/>
<path d="M1085 2240 c35 -6 32 -15 -2 -11 -7 1 -13 -5 -13 -14 0 -11 -10 -15
-37 -15 -25 0 -33 -3 -25 -9 18 -11 -32 -21 -106 -21 -30 0 -53 -2 -51 -4 8
-8 114 -9 138 -1 15 4 21 3 17 -3 -3 -5 -18 -13 -33 -17 -38 -9 -83 -54 -83
-82 0 -26 -44 -43 -62 -25 -8 8 -16 5 -30 -10 -10 -12 -18 -24 -18 -28 0 -4
-9 -10 -20 -13 -12 -3 -20 -14 -20 -26 0 -12 -7 -33 -16 -46 -13 -20 -14 -31
-5 -55 11 -33 5 -33 -32 -1 -18 15 -20 14 -37 -7 -11 -13 -16 -30 -13 -38 3
-8 -2 -23 -12 -34 -12 -14 -14 -23 -7 -37 8 -14 6 -25 -9 -43 -10 -14 -19 -33
-19 -42 0 -9 -12 -28 -27 -42 l-26 -25 -31 32 c-65 67 -69 75 -72 138 -5 76
16 119 88 183 72 64 158 110 302 162 78 28 108 43 86 42 -19 -2 -37 -6 -40 -9
-3 -3 -36 -16 -75 -29 -99 -32 -231 -102 -290 -153 -28 -25 -61 -66 -74 -93
-110 -220 178 -427 709 -511 160 -25 555 -25 720 1 409 63 685 203 736 374 12
40 12 53 -1 98 -8 28 -22 57 -30 64 -21 17 -19 1 3 -23 22 -24 23 -123 2 -164
-39 -75 -123 -141 -261 -205 -93 -44 -96 -44 -91 -21 5 28 50 66 69 59 8 -4
19 9 29 33 8 21 24 43 36 48 18 8 19 10 4 22 -14 12 -16 12 -10 -4 6 -15 3
-17 -15 -12 -18 4 -21 2 -16 -12 4 -13 -5 -26 -29 -45 -19 -14 -39 -26 -45
-26 -6 0 -10 -3 -9 -7 1 -5 -9 -25 -21 -46 -22 -35 -25 -37 -41 -22 -15 14
-17 13 -16 -6 1 -26 -77 -57 -99 -39 -9 8 -14 8 -17 0 -2 -6 -22 -14 -46 -17
-23 -3 -42 -9 -42 -13 0 -16 -90 -7 -101 9 -8 13 -9 11 -4 -6 4 -13 2 -23 -4
-23 -5 0 -16 -3 -25 -6 -12 -5 -16 0 -16 17 l0 24 -20 -25 c-17 -21 -21 -23
-30 -10 -6 10 -10 11 -10 3 0 -9 -19 -13 -63 -13 -55 0 -67 3 -87 25 -16 17
-19 25 -9 25 10 1 8 4 -4 11 -31 18 -31 2 -2 -37 l27 -36 -68 5 c-84 7 -79 7
-132 3 -24 -1 -46 2 -49 7 -3 6 -8 5 -12 0 -9 -15 -81 -3 -81 13 0 7 5 16 10
19 6 3 10 11 10 17 0 7 -6 6 -15 -2 -8 -7 -15 -21 -15 -31 0 -15 -6 -18 -22
-15 -13 3 -69 12 -125 22 l-102 18 17 28 c14 23 14 30 3 40 -11 11 -13 10 -9
-2 7 -19 -30 -68 -40 -54 -4 5 -18 10 -32 11 -77 6 -114 18 -104 35 4 6 -1 6
-14 -1 -16 -8 -34 -5 -89 18 -117 48 -174 83 -171 106 2 13 9 19 21 17 16 -3
21 12 20 56 -1 7 11 20 26 29 14 10 28 18 30 20 2 1 -4 14 -13 27 -22 35 -20
39 13 33 l30 -6 -21 35 c-15 26 -18 38 -9 47 8 8 18 4 39 -16 19 -18 35 -25
45 -21 21 8 21 19 0 55 -16 28 -16 29 7 54 19 21 22 28 11 34 -7 5 -10 14 -7
20 4 6 11 9 15 7 13 -8 61 -15 61 -9 0 3 -7 11 -17 18 -27 20 -6 33 46 29 45
-4 49 -3 53 20 3 14 0 30 -5 35 -12 12 -7 14 41 11 19 -1 32 3 32 10 0 7 -8
10 -20 7 -31 -8 -24 11 10 28 28 14 32 14 46 0 24 -24 38 -18 20 10 -20 31
-21 41 -1 25 12 -10 15 -9 15 5 0 11 5 15 15 11 8 -3 22 -9 30 -12 8 -3 15 -1
15 5 0 6 -7 11 -15 11 -8 0 -15 4 -15 9 0 11 25 21 51 21 17 0 18 3 7 20 -10
15 -23 20 -53 19 l-40 -2 40 -7z"/>
<path d="M1320 2240 c0 -5 5 -10 11 -10 5 0 7 -5 3 -12 -5 -8 0 -9 14 -6 25 7
26 1 12 -36 -13 -36 -45 -34 -62 4 -7 17 -16 30 -19 30 -9 0 -22 -30 -25 -60
-1 -14 0 -17 3 -7 2 9 9 17 14 17 6 0 7 6 4 13 -4 6 3 0 14 -15 15 -19 27 -25
44 -21 48 12 63 70 25 97 -26 18 -38 20 -38 6z"/>
<path d="M1980 2231 c0 -15 7 -19 33 -17 17 0 37 6 42 13 6 6 24 14 40 16 17
2 -3 5 -42 6 -66 1 -73 -1 -73 -18z m67 3 c-3 -3 -12 -4 -19 -1 -8 3 -5 6 6 6
11 1 17 -2 13 -5z"/>
<path d="M2080 2215 c0 -9 6 -12 15 -9 11 5 15 -1 15 -25 0 -29 2 -31 39 -31
24 0 41 -5 44 -14 3 -7 18 -17 34 -20 146 -36 338 -175 380 -274 23 -55 28
-192 10 -296 -9 -49 -13 -94 -10 -99 3 -6 1 -7 -4 -4 -6 4 -13 -7 -17 -26 -4
-17 -24 -67 -46 -110 -21 -44 -36 -85 -33 -93 6 -17 21 -18 20 -1 0 6 1 21 2
32 2 20 2 20 11 0 7 -16 9 -12 10 20 2 39 3 39 10 10 7 -26 8 -22 9 23 0 29 6
52 12 52 5 0 7 5 4 10 -3 6 -1 10 4 10 6 0 11 15 12 33 0 27 2 29 9 12 10 -23
8 -28 14 50 2 17 4 46 6 65 l3 35 7 -35 c4 -20 8 41 8 145 0 99 -3 171 -7 160
-7 -17 -9 -16 -15 9 -4 16 -14 35 -22 43 -8 8 -12 19 -9 24 4 5 -1 9 -9 9 -9
0 -16 7 -16 15 0 8 -4 15 -10 15 -5 0 -10 7 -10 15 0 8 -6 14 -12 13 -7 -2
-12 3 -10 10 1 6 -7 12 -19 12 -11 0 -18 4 -15 9 3 5 -5 12 -19 15 -14 4 -25
11 -25 16 0 6 -7 10 -16 10 -8 0 -12 5 -9 11 4 6 1 9 -6 8 -21 -3 -50 12 -43
22 3 5 1 9 -5 9 -5 0 -12 -6 -14 -12 -4 -10 -6 -10 -6 0 -1 6 -12 12 -26 12
-16 0 -25 6 -25 15 0 9 -9 15 -25 15 -14 0 -25 5 -25 10 0 6 -11 10 -25 10
-14 0 -25 5 -25 10 0 6 -11 10 -24 10 -13 0 -32 3 -41 6 -13 5 -14 8 -3 15 10
7 10 9 1 9 -7 0 -13 6 -13 13 0 7 -9 13 -20 14 -11 1 -20 -4 -20 -12z"/>
<path d="M1427 2214 c-4 -4 -4 -10 -2 -14 6 -10 45 0 45 11 0 10 -33 12 -43 3z"/>
<path d="M1660 2191 c0 -21 13 -41 26 -41 17 0 17 5 4 31 -11 20 -30 26 -30
10z"/>
<path d="M2030 2189 c0 -5 5 -7 10 -4 6 3 10 8 10 11 0 2 -4 4 -10 4 -5 0 -10
-5 -10 -11z"/>
<path d="M793 2143 c15 -2 37 -2 50 0 12 2 0 4 -28 4 -27 0 -38 -2 -22 -4z"/>
<path d="M2298 2143 c7 -3 16 -2 19 1 4 3 -2 6 -13 5 -11 0 -14 -3 -6 -6z"/>
<path d="M2005 2131 c5 -8 11 -28 15 -45 6 -30 6 -30 11 -6 4 17 -1 32 -14 45
-11 11 -16 14 -12 6z"/>
<path d="M700 2120 c0 -4 7 -7 15 -6 23 3 26 12 5 13 -11 1 -20 -2 -20 -7z"/>
<path d="M750 2121 c0 -4 11 -6 25 -3 14 2 25 6 25 8 0 2 -11 4 -25 4 -14 0
-25 -4 -25 -9z"/>
<path d="M1342 2110 c0 -14 2 -19 5 -12 2 6 2 18 0 25 -3 6 -5 1 -5 -13z"/>
<path d="M2050 2121 c0 -5 5 -13 10 -16 6 -3 10 -2 10 4 0 5 -4 13 -10 16 -5
3 -10 2 -10 -4z"/>
<path d="M1550 2111 c0 -5 7 -12 16 -15 22 -9 24 -8 24 9 0 8 -9 15 -20 15
-11 0 -20 -4 -20 -9z"/>
<path d="M2155 2108 c28 -15 45 -38 45 -62 1 -12 11 -34 24 -50 13 -15 21 -36
19 -46 -5 -18 20 -48 65 -78 15 -10 22 -22 19 -34 -3 -11 3 -24 15 -32 12 -9
15 -16 9 -21 -22 -13 -11 -26 12 -14 45 24 50 53 7 47 -28 -4 -29 -2 -27 26 2
25 -5 34 -40 58 -44 30 -54 48 -28 48 9 0 15 9 15 21 0 16 -5 20 -20 16 -21
-5 -29 16 -10 28 6 3 10 10 10 16 0 15 -22 10 -36 -8 -12 -16 -13 -14 -14 18
0 43 -28 79 -61 79 -23 -1 -23 -1 -4 -12z"/>
<path d="M678 2093 c6 -2 18 -2 25 0 6 3 1 5 -13 5 -14 0 -19 -2 -12 -5z"/>
<path d="M1214 2092 c4 -7 25 -12 47 -12 21 0 39 -4 39 -10 0 -5 9 -10 21 -10
18 0 19 2 5 15 -19 19 -123 34 -112 17z"/>
<path d="M1830 2083 c0 -14 17 -35 26 -33 5 0 10 -7 12 -17 3 -15 1 -16 -7 -3
-7 9 -11 10 -11 3 0 -6 5 -15 10 -18 17 -11 11 -25 -15 -35 -15 -6 -25 -17
-24 -27 1 -17 2 -17 6 0 2 9 13 17 23 17 11 0 22 12 29 31 9 26 8 36 -10 60
-19 27 -39 38 -39 22z"/>
<path d="M1437 2063 c5 -12 -9 -17 -69 -28 -23 -3 -38 -12 -38 -20 0 -12 4
-12 28 0 15 7 49 20 77 28 56 16 73 38 27 34 -18 -1 -28 -7 -25 -14z"/>
<path d="M2105 2070 c-19 -8 -17 -11 14 -14 18 -1 38 -33 28 -43 -5 -4 -12 -1
-17 7 -8 12 -10 10 -10 -8 0 -20 3 -21 20 -12 24 13 25 28 2 56 -13 16 -22 20
-37 14z"/>
<path d="M1166 2057 c3 -10 9 -15 12 -12 3 3 0 11 -7 18 -10 9 -11 8 -5 -6z"/>
<path d="M2056 2043 c-6 -14 -5 -15 5 -6 7 7 10 15 7 18 -3 3 -9 -2 -12 -12z"/>
<path d="M563 2043 c9 -2 25 -2 35 0 9 3 1 5 -18 5 -19 0 -27 -2 -17 -5z"/>
<path d="M2010 2022 c0 -17 4 -34 10 -37 6 -4 7 6 3 27 -8 44 -13 48 -13 10z"/>
<path d="M2468 2043 c6 -2 18 -2 25 0 6 3 1 5 -13 5 -14 0 -19 -2 -12 -5z"/>
<path d="M478 1970 c-16 -16 -28 -34 -28 -39 0 -6 -5 -11 -11 -11 -17 0 -39
-27 -39 -48 0 -11 -7 -22 -15 -26 -8 -3 -15 -9 -14 -13 1 -4 1 -21 -1 -38 -1
-26 -3 -27 -10 -10 -5 12 -8 -41 -8 -135 1 -109 3 -137 8 -95 l7 60 3 -55 c2
-30 4 -59 5 -65 2 -5 3 -18 4 -28 0 -10 6 -15 11 -12 6 4 11 -29 12 -92 l2
-98 6 70 c6 67 7 68 8 18 1 -29 6 -53 12 -53 5 0 7 7 4 15 -4 8 -1 15 5 15 6
0 11 -19 12 -42 0 -33 2 -38 9 -23 9 20 9 20 10 0 2 -11 2 -23 1 -27 0 -5 6
-8 14 -8 11 0 15 -12 16 -42 0 -33 2 -38 9 -23 7 17 9 17 9 3 1 -10 8 -18 16
-18 11 0 15 -13 16 -52 1 -30 4 -41 6 -25 l4 28 20 -25 c10 -13 19 -37 20 -53
0 -21 2 -24 7 -10 13 31 42 -16 43 -71 l2 -47 7 40 c6 34 15 32 11 -2 -1 -8 5
-10 14 -7 10 4 15 0 15 -10 0 -9 7 -16 16 -16 8 0 12 -5 9 -10 -3 -6 1 -10 9
-10 9 0 16 -7 16 -15 0 -8 5 -15 10 -15 6 0 10 -6 10 -13 0 -8 11 -20 25 -27
16 -8 21 -16 14 -20 -6 -4 -1 -10 13 -14 19 -5 20 -8 8 -16 -13 -8 -12 -10 3
-10 9 0 17 -8 18 -17 0 -15 2 -15 9 2 9 20 9 20 10 0 2 -11 2 -23 1 -27 0 -5
4 -8 9 -8 6 0 10 5 10 10 0 6 6 5 14 -2 8 -7 10 -14 5 -16 -11 -4 -12 -23 -1
-21 4 1 16 1 27 -1 20 -1 20 -1 0 -10 -18 -8 -17 -9 8 -9 17 -1 27 -7 27 -16
0 -9 6 -12 15 -9 10 4 15 0 15 -11 0 -9 4 -14 10 -10 5 3 18 -3 30 -15 11 -11
22 -20 25 -20 23 0 13 -4 -25 -10 -41 -6 -39 -7 30 -9 54 -2 68 -5 50 -11 -23
-7 -21 -8 12 -9 73 -2 75 -16 3 -22 -68 -5 -66 -6 31 -7 77 -2 103 -5 107 -16
5 -12 44 -14 219 -14 226 0 289 5 267 19 -9 5 11 9 51 10 50 1 58 3 35 9 -30
7 -30 7 13 15 30 5 39 11 30 16 -8 6 1 9 27 10 32 0 36 2 20 9 -20 9 -20 9 0
10 11 2 26 1 34 0 9 -1 12 4 8 14 -4 10 -1 16 8 16 8 0 15 6 15 13 0 8 4 7 10
-3 8 -13 10 -12 10 3 0 9 8 17 18 18 10 0 12 3 5 6 -18 7 10 34 37 36 23 1 26
12 7 20 -8 3 -44 -19 -81 -49 -142 -114 -283 -158 -501 -157 -279 1 -437 73
-651 296 -233 241 -393 493 -446 697 -15 62 -21 117 -22 205 -1 141 13 179 94
264 27 28 44 51 37 51 -7 -1 -24 -14 -39 -30z"/>
<path d="M1673 1978 c-13 -6 -23 -14 -23 -17 1 -14 26 -88 37 -106 12 -19 12
-20 30 -1 17 18 17 18 -4 11 -16 -4 -23 -2 -24 7 -1 7 -3 20 -4 28 0 8 -5 23
-9 33 -10 21 10 48 30 40 8 -3 14 0 14 6 0 14 -18 13 -47 -1z"/>
<path d="M2075 1980 c-3 -6 1 -7 9 -4 18 7 21 14 7 14 -6 0 -13 -4 -16 -10z"/>
<path d="M950 1971 c0 -6 4 -13 10 -16 6 -3 7 1 4 9 -7 18 -14 21 -14 7z"/>
<path d="M1757 1973 c-4 -6 -1 -23 7 -38 18 -35 28 -19 12 20 -7 17 -15 25
-19 18z"/>
<path d="M1917 1961 c4 -15 -2 -21 -28 -26 -29 -6 -30 -9 -14 -18 15 -8 23 -5
42 17 16 18 30 26 41 22 14 -5 13 -3 -2 9 -27 21 -45 19 -39 -4z"/>
<path d="M2126 1945 c-9 -26 -7 -32 5 -12 6 10 9 21 6 23 -2 3 -7 -2 -11 -11z"/>
<path d="M1750 1878 c0 -9 6 -18 12 -20 10 -4 10 -10 0 -32 -10 -22 -10 -30 2
-42 18 -17 29 -18 23 -1 -2 6 0 20 5 30 5 10 11 27 13 39 3 16 1 17 -10 8 -10
-8 -17 -6 -29 12 -12 17 -16 19 -16 6z"/>
<path d="M2026 1877 c3 -10 9 -15 12 -12 3 3 0 11 -7 18 -10 9 -11 8 -5 -6z"/>
<path d="M1020 1870 c0 -5 5 -10 11 -10 5 0 7 5 4 10 -3 6 -8 10 -11 10 -2 0
-4 -4 -4 -10z"/>
<path d="M868 1848 c-24 -30 -22 -51 8 -87 32 -38 84 -76 84 -61 0 6 -8 14
-18 18 -24 9 -82 75 -82 93 0 7 10 23 22 36 12 13 17 23 12 23 -5 0 -17 -10
-26 -22z"/>
<path d="M902 1836 l-22 -22 26 -23 c14 -12 28 -20 31 -17 3 3 -5 14 -18 24
l-23 19 22 14 c12 8 22 17 22 21 0 14 -14 8 -38 -16z"/>
<path d="M2056 1848 c3 -4 9 -8 15 -8 5 0 9 4 9 8 0 5 -7 9 -15 9 -8 0 -12 -4
-9 -9z"/>
<path d="M985 1840 c3 -5 11 -10 16 -10 6 0 7 5 4 10 -3 6 -11 10 -16 10 -6 0
-7 -4 -4 -10z"/>
<path d="M1837 1819 c4 -13 8 -18 11 -10 2 7 -1 18 -6 23 -8 8 -9 4 -5 -13z"/>
<path d="M1710 1815 c0 -8 5 -15 10 -15 6 0 10 7 10 15 0 8 -4 15 -10 15 -5 0
-10 -7 -10 -15z"/>
<path d="M1955 1799 c-9 -40 -2 -46 12 -9 6 17 7 32 3 35 -5 3 -11 -9 -15 -26z"/>
<path d="M1911 1810 c-1 -18 16 -46 23 -40 2 3 -2 16 -9 30 -8 15 -14 19 -14
10z"/>
<path d="M2694 1620 c0 -113 2 -159 3 -102 2 56 2 148 0 205 -1 56 -3 10 -3
-103z"/>
<path d="M1010 1796 c0 -9 5 -16 10 -16 6 0 10 4 10 9 0 6 -4 13 -10 16 -5 3
-10 -1 -10 -9z"/>
<path d="M1412 1789 c-11 -17 -9 -19 15 -18 20 1 22 3 9 6 -14 4 -15 7 -6 13
7 4 8 10 3 13 -5 3 -14 -3 -21 -14z"/>
<path d="M1468 1799 c6 -7 12 -17 12 -22 0 -4 -6 -5 -12 -1 -7 4 -4 -2 6 -14
11 -12 27 -22 38 -22 10 0 18 -7 18 -16 0 -8 5 -12 10 -9 15 9 -8 35 -31 35
-12 0 -19 9 -21 27 -2 14 -10 28 -18 31 -12 4 -13 2 -2 -9z"/>
<path d="M301 1784 c0 -11 3 -14 6 -6 3 7 2 16 -1 19 -3 4 -6 -2 -5 -13z"/>
<path d="M1647 1790 c6 -8 13 -24 15 -35 3 -17 5 -18 10 -3 4 10 -1 23 -15 35
-12 10 -17 11 -10 3z"/>
<path d="M1695 1780 c2 -14 5 -31 5 -39 0 -11 5 -10 20 4 11 10 17 22 14 27
-4 6 -10 5 -15 -3 -6 -10 -11 -7 -19 11 l-11 25 6 -25z"/>
<path d="M1800 1790 c0 -5 5 -10 10 -10 6 0 10 5 10 10 0 6 -4 10 -10 10 -5 0
-10 -4 -10 -10z"/>
<path d="M1870 1790 c0 -5 -6 -10 -14 -10 -8 0 -27 -7 -43 -14 -15 -8 -36 -17
-45 -20 -25 -7 -22 -23 6 -41 28 -19 87 -9 94 15 2 10 1 11 -5 4 -16 -21 -61
-25 -79 -7 -13 14 -14 18 -3 21 8 2 21 6 29 8 8 3 17 5 19 4 2 -1 8 4 13 12 7
10 11 9 23 -6 8 -11 15 -16 15 -10 0 5 5 1 11 -9 5 -9 7 -22 4 -27 -3 -6 -2
-10 4 -10 18 0 22 19 9 40 -7 11 -19 20 -26 20 -9 0 -11 7 -7 20 3 11 4 20 1
20 -3 0 -6 -4 -6 -10z"/>
<path d="M2662 1780 c0 -14 2 -19 5 -12 2 6 2 18 0 25 -3 6 -5 1 -5 -13z"/>
<path d="M324 1645 c0 -77 2 -107 3 -67 2 40 2 103 0 140 -2 37 -3 4 -3 -73z"/>
<path d="M960 1771 c0 -5 5 -13 10 -16 6 -3 10 -2 10 4 0 5 -4 13 -10 16 -5 3
-10 2 -10 -4z"/>
<path d="M1333 1768 c2 -7 12 -12 22 -10 21 4 57 -27 48 -41 -3 -6 -1 -7 5 -3
19 12 14 23 -22 45 -38 24 -60 27 -53 9z"/>
<path d="M1980 1761 c0 -5 -3 -18 -6 -28 -6 -16 -5 -16 9 2 19 23 21 35 7 35
-5 0 -10 -4 -10 -9z"/>
<path d="M1017 1746 c-4 -11 -3 -24 2 -29 10 -10 31 -1 31 14 0 6 -4 8 -9 4
-5 -3 -11 3 -13 12 -3 16 -4 16 -11 -1z"/>
<path d="M2355 1750 c-4 -6 9 -10 32 -10 28 0 34 3 23 10 -20 13 -47 13 -55 0z"/>
<path d="M2664 1630 c0 -69 1 -97 3 -62 2 34 2 90 0 125 -2 34 -3 6 -3 -63z"/>
<path d="M1320 1733 c36 -7 72 -43 66 -67 -4 -14 -2 -16 7 -7 6 6 25 12 42 12
30 2 30 2 2 6 -15 2 -42 18 -59 34 -20 18 -42 28 -58 28 l-25 -2 25 -4z"/>
<path d="M302 1705 c0 -16 2 -22 5 -12 2 9 2 23 0 30 -3 6 -5 -1 -5 -18z"/>
<path d="M1472 1710 c0 -14 2 -19 5 -12 2 6 2 18 0 25 -3 6 -5 1 -5 -13z"/>
<path d="M2186 1714 c-4 -9 -4 -19 -1 -22 2 -3 7 3 11 12 4 9 4 19 1 22 -2 3
-7 -3 -11 -12z"/>
<path d="M2410 1711 c0 -12 5 -21 10 -21 6 0 10 6 10 14 0 8 -4 18 -10 21 -5
3 -10 -3 -10 -14z"/>
<path d="M2282 1708 c-15 -15 -15 -28 -1 -28 5 0 8 4 4 9 -7 12 31 25 46 15 8
-4 9 -3 5 4 -9 15 -39 15 -54 0z"/>
<path d="M2359 1720 c-6 -34 -4 -50 7 -50 22 0 27 21 10 38 -9 9 -16 14 -17
12z"/>
<path d="M1707 1703 c-4 -3 -7 -12 -7 -20 0 -15 26 -18 34 -4 7 11 -18 33 -27
24z"/>
<path d="M1990 1706 c0 -9 30 -14 35 -6 4 6 -3 10 -14 10 -12 0 -21 -2 -21 -4z"/>
<path d="M1000 1690 c-12 -7 -10 -9 7 -7 12 0 19 5 17 9 -6 10 -6 10 -24 -2z"/>
<path d="M2218 1692 c10 -7 8 -12 -6 -25 -17 -15 -19 -15 -36 4 -9 12 -20 18
-24 14 -4 -4 -2 -10 5 -12 7 -2 22 -20 33 -38 17 -28 19 -38 10 -56 -7 -12 -8
-19 -2 -15 6 3 13 0 16 -6 3 -7 3 13 0 45 -4 46 -2 58 10 63 22 8 20 34 -1 34
-13 0 -15 -2 -5 -8z"/>
<path d="M1522 1670 c-12 -19 -11 -20 8 -8 20 13 27 28 12 28 -4 0 -13 -9 -20
-20z"/>
<path d="M1893 1673 c-13 -9 -23 -23 -23 -31 0 -13 7 -10 27 10 31 31 29 43
-4 21z"/>
<path d="M2002 1663 c7 -9 14 -11 16 -5 2 6 11 8 20 5 9 -3 14 -3 10 1 -3 4
-18 9 -32 10 -22 3 -24 1 -14 -11z"/>
<path d="M2580 1631 c-19 -28 -37 -51 -40 -51 -3 0 -23 -16 -45 -36 -42 -38
-149 -104 -167 -104 -6 0 -44 -16 -83 -35 -40 -19 -81 -36 -92 -38 -10 -2 -29
-9 -43 -14 -14 -6 -33 -9 -42 -7 -10 1 -18 -2 -18 -7 0 -6 -13 -8 -30 -5 -17
2 -28 0 -24 -5 3 -5 1 -9 -5 -9 -5 0 -17 -3 -27 -7 -13 -5 -15 -3 -10 8 4 8 1
6 -7 -4 -10 -12 -17 -14 -22 -8 -3 6 -11 11 -16 11 -6 0 -7 -5 -3 -12 5 -7 1
-9 -13 -6 -12 3 -20 0 -20 -8 0 -13 24 -13 77 0 14 3 41 8 60 10 125 16 364
114 468 193 50 38 111 102 128 135 27 52 10 51 -26 -1z"/>
<path d="M1660 1659 c0 -8 12 -32 26 -53 15 -21 24 -46 21 -57 -3 -10 -1 -17
4 -13 23 14 0 94 -35 123 -13 11 -16 11 -16 0z"/>
<path d="M1786 1663 c-21 -6 -53 -33 -39 -33 5 0 13 4 19 9 5 5 25 14 44 19
35 10 13 14 -24 5z"/>
<path d="M1943 1656 c5 -16 27 -19 27 -3 0 7 -7 14 -15 14 -9 0 -14 -5 -12
-11z"/>
<path d="M2260 1660 c0 -5 7 -10 15 -10 8 0 15 5 15 10 0 6 -7 10 -15 10 -8 0
-15 -4 -15 -10z"/>
<path d="M2475 1660 c-3 -5 -1 -10 4 -10 6 0 11 5 11 10 0 6 -2 10 -4 10 -3 0
-8 -4 -11 -10z"/>
<path d="M640 1651 c-17 -7 -26 -41 -12 -41 13 0 35 27 30 38 -1 5 -10 7 -18
3z"/>
<path d="M1408 1643 c7 -3 16 -2 19 1 4 3 -2 6 -13 5 -11 0 -14 -3 -6 -6z"/>
<path d="M1225 1629 c-4 -6 -5 -12 -2 -15 2 -3 7 2 10 11 7 17 1 20 -8 4z"/>
<path d="M1527 1625 c-4 -9 -3 -14 2 -10 5 3 12 -1 14 -7 4 -10 6 -10 6 0 1 6
10 12 21 12 11 0 20 5 20 10 0 6 -9 10 -20 10 -11 0 -20 -6 -20 -12 0 -10 -2
-10 -9 0 -7 11 -9 10 -14 -3z"/>
<path d="M2475 1620 c-16 -17 -16 -20 -3 -15 9 4 19 13 22 21 7 19 2 18 -19
-6z"/>
<path d="M1140 1616 c0 -9 5 -16 10 -16 6 0 10 4 10 9 0 6 -4 13 -10 16 -5 3
-10 -1 -10 -9z"/>
<path d="M1183 1605 c-10 -23 -9 -26 12 -31 27 -7 48 3 39 18 -4 6 -10 6 -17
-1 -18 -18 -25 -13 -19 14 6 32 0 32 -15 0z"/>
<path d="M2034 1607 c1 -14 -7 -26 -21 -32 -13 -5 -23 -13 -23 -17 0 -15 19
-8 40 14 20 21 20 21 34 2 8 -10 17 -16 21 -12 4 3 -6 20 -22 37 -28 28 -29
29 -29 8z"/>
<path d="M1475 1599 c-4 -6 -17 -14 -29 -19 -20 -8 -20 -9 -1 -9 11 -1 26 8
33 19 7 11 10 20 8 20 -3 0 -8 -5 -11 -11z"/>
<path d="M853 1566 c2 -17 6 -37 11 -44 5 -8 4 -18 -3 -25 -6 -6 -11 -16 -11
-21 0 -6 5 -4 10 6 6 9 18 14 29 11 31 -8 78 22 75 49 -1 13 -3 29 -3 36 -1 7
-6 10 -12 6 -6 -3 -9 -19 -5 -35 4 -22 1 -29 -14 -34 -35 -11 -57 3 -56 34 1
16 5 29 10 28 5 -1 10 3 13 9 2 7 -7 12 -21 12 -21 0 -24 -5 -23 -32z"/>
<path d="M1085 1583 c8 -10 21 -27 29 -38 12 -16 16 -17 30 -6 18 15 21 37 6
46 -5 3 -7 0 -4 -8 10 -26 -12 -27 -36 -2 -27 28 -48 34 -25 8z"/>
<path d="M1390 1590 c-8 -5 -11 -12 -7 -16 4 -4 15 0 24 9 18 18 8 23 -17 7z"/>
<path d="M1767 1594 c-3 -3 -3 -12 0 -20 3 -8 0 -21 -7 -29 -7 -9 -10 -18 -7
-21 6 -6 37 48 37 66 0 11 -13 14 -23 4z"/>
<path d="M825 1579 c-4 -6 -5 -12 -2 -15 2 -3 7 2 10 11 7 17 1 20 -8 4z"/>
<path d="M1023 1574 c0 -16 13 -19 21 -5 3 5 0 11 -7 14 -8 3 -14 -1 -14 -9z"/>
<path d="M1260 1569 c-6 -10 -26 -21 -45 -25 -20 -3 -35 -12 -35 -20 0 -12 5
-11 26 2 22 15 27 15 35 3 5 -8 7 -20 4 -26 -5 -16 41 -18 50 -3 10 16 -6 35
-16 19 -8 -12 -11 -12 -18 1 -7 10 -5 20 6 33 14 15 18 15 25 3 5 -8 16 -12
28 -9 15 4 20 0 20 -16 0 -24 15 -28 23 -7 14 36 -85 80 -103 45z"/>
<path d="M302 1560 c0 -14 2 -19 5 -12 2 6 2 18 0 25 -3 6 -5 1 -5 -13z"/>
<path d="M760 1572 c0 -4 11 -23 25 -42 17 -22 21 -36 14 -41 -8 -4 -8 -9 -1
-13 16 -9 24 11 16 37 -13 41 -54 86 -54 59z"/>
<path d="M1537 1530 c3 -25 8 -48 12 -51 3 -3 22 1 41 8 l35 13 -37 -5 c-24
-4 -38 -2 -38 5 0 5 6 10 13 10 9 0 9 2 0 8 -7 4 -17 19 -22 32 -8 20 -9 16
-4 -20z"/>
<path d="M1405 1551 c-4 -7 -4 -15 -1 -18 13 -13 -16 -43 -42 -43 -26 -1 -26
-1 -8 -15 17 -13 21 -13 31 2 11 15 13 15 23 -3 6 -10 12 -14 12 -7 0 6 -5 15
-11 18 -7 5 -5 13 6 25 12 13 14 23 7 36 -7 12 -11 13 -17 5z"/>
<path d="M1590 1548 c0 -9 7 -19 16 -22 25 -10 27 -1 4 19 -17 15 -20 16 -20
3z"/>
<path d="M1071 1533 c8 -9 13 -26 12 -37 -1 -15 0 -16 3 -3 3 9 10 17 16 17 6
0 3 9 -7 20 -22 24 -43 27 -24 3z"/>
<path d="M1650 1541 c0 -6 5 -13 10 -16 6 -3 10 1 10 9 0 9 -4 16 -10 16 -5 0
-10 -4 -10 -9z"/>
<path d="M1796 1535 c-9 -24 -3 -27 39 -29 31 -1 35 -4 31 -21 -5 -20 -5 -20
9 -1 8 11 15 26 15 33 0 15 -16 17 -25 3 -10 -16 -38 -8 -51 14 -10 17 -11 17
-18 1z"/>
<path d="M2030 1533 c0 -10 4 -14 8 -8 4 6 11 13 16 18 5 4 2 7 -7 7 -10 0
-17 -8 -17 -17z"/>
<path d="M1010 1521 c5 -11 15 -23 21 -27 6 -3 3 5 -6 20 -20 30 -30 35 -15 7z"/>
<path d="M2095 1530 c-26 -6 -23 -7 17 -7 26 1 42 5 35 9 -7 4 -14 7 -17 7 -3
-1 -18 -5 -35 -9z"/>
<path d="M1045 1520 c3 -5 8 -10 11 -10 2 0 4 5 4 10 0 6 -5 10 -11 10 -5 0
-7 -4 -4 -10z"/>
<path d="M1676 1503 c-6 -14 -5 -15 5 -6 7 7 10 15 7 18 -3 3 -9 -2 -12 -12z"/>
<path d="M980 1500 c0 -5 5 -10 11 -10 5 0 7 5 4 10 -3 6 -8 10 -11 10 -2 0
-4 -4 -4 -10z"/>
<path d="M1205 1493 c-11 -10 -20 -27 -20 -38 0 -14 -8 -21 -27 -23 -32 -4
-37 14 -10 34 13 10 14 15 5 24 -9 10 -17 7 -35 -10 -12 -13 -17 -20 -10 -16
8 5 12 -1 12 -18 0 -23 4 -26 33 -26 18 0 38 5 45 12 6 6 26 12 44 13 34 2 88
23 88 35 0 17 -14 17 -29 1 -16 -19 -74 -35 -85 -24 -3 3 -1 12 5 19 19 23 5
37 -16 17z"/>
<path d="M1720 1500 l-25 -8 28 -1 c15 -1 27 4 27 9 0 6 -1 10 -2 9 -2 -1 -14
-5 -28 -9z"/>
<path d="M1986 1489 c-14 -11 -26 -28 -25 -37 0 -12 3 -9 10 7 8 20 11 22 26
10 13 -11 15 -11 9 -1 -4 7 -2 19 4 27 18 21 7 18 -24 -6z"/>
<path d="M2138 1503 c7 -3 16 -2 19 1 4 3 -2 6 -13 5 -11 0 -14 -3 -6 -6z"/>
<path d="M2085 1490 c-19 -8 -19 -9 3 -9 12 -1 22 4 22 9 0 6 -1 10 -2 9 -2 0
-12 -4 -23 -9z"/>
<path d="M1630 1466 c0 -8 5 -18 10 -21 6 -3 10 1 10 9 0 8 -4 18 -10 21 -5 3
-10 -1 -10 -9z"/>
<path d="M1661 1470 c0 -8 4 -22 9 -30 12 -18 12 -2 0 25 -6 13 -9 15 -9 5z"/>
<path d="M351 1444 c0 -11 3 -14 6 -6 3 7 2 16 -1 19 -3 4 -6 -2 -5 -13z"/>
<path d="M1802 1453 c-10 -4 -9 -8 5 -19 22 -16 33 -18 33 -3 0 5 -4 7 -10 4
-5 -3 -10 -2 -10 4 0 5 6 12 13 14 8 4 7 5 -3 5 -8 0 -21 -2 -28 -5z"/>
<path d="M2642 1440 c0 -14 2 -19 5 -12 2 6 2 18 0 25 -3 6 -5 1 -5 -13z"/>
<path d="M1300 1441 c0 -5 14 -11 30 -13 35 -5 41 7 8 16 -31 8 -38 7 -38 -3z"/>
<path d="M1902 1420 c7 -11 16 -20 20 -20 5 0 3 9 -4 20 -7 11 -16 20 -20 20
-5 0 -3 -9 4 -20z"/>
<path d="M1712 1425 c2 -1 14 -8 27 -15 19 -10 22 -9 16 1 -6 9 -2 11 13 7 12
-4 22 -2 22 2 0 5 -18 8 -40 8 -23 0 -40 -1 -38 -3z"/>
<path d="M2643 1370 c0 -25 2 -35 4 -22 2 12 2 32 0 45 -2 12 -4 2 -4 -23z"/>
<path d="M2691 1364 c0 -11 3 -14 6 -6 3 7 2 16 -1 19 -3 4 -6 -2 -5 -13z"/>
<path d="M1836 1295 c-16 -12 -17 -15 -4 -15 9 0 18 7 22 15 7 18 6 18 -18 0z"/>
<path d="M420 1258 c0 -23 3 -29 9 -19 8 12 4 51 -5 51 -2 0 -4 -15 -4 -32z"/>
<path d="M2444 1144 c-79 -121 -186 -251 -326 -397 -21 -21 -38 -40 -38 -42 0
-2 9 -3 20 -2 11 1 20 7 20 14 0 7 7 13 16 13 8 0 12 5 9 10 -4 6 8 10 27 11
31 1 31 2 8 9 l-25 7 25 11 c14 6 19 11 12 11 -10 1 -10 4 0 15 9 10 15 11 20
2 4 -6 8 1 8 17 0 15 4 27 9 27 5 0 12 -12 14 -27 3 -20 4 -15 6 15 1 39 3 42
29 43 24 0 25 1 7 9 -17 7 -17 9 -2 9 9 1 17 9 18 19 0 14 2 14 9 -3 8 -18 9
-17 9 8 1 15 5 27 10 27 5 0 12 -12 14 -27 2 -16 5 -3 6 27 1 40 4 51 11 40 6
-10 10 -11 10 -2 0 6 8 12 18 13 14 0 14 2 -3 9 -17 7 -17 9 -2 9 10 1 17 9
17 21 0 14 5 18 17 13 10 -4 14 -2 10 4 -4 6 -4 19 -1 28 5 13 8 14 15 3 6 -9
9 -4 9 15 0 16 4 26 10 22 6 -3 10 2 10 11 0 10 7 25 16 35 9 10 14 25 12 35
-2 11 -21 -11 -54 -62z"/>
<path d="M520 1129 c0 -5 5 -7 10 -4 6 3 10 8 10 11 0 2 -4 4 -10 4 -5 0 -10
-5 -10 -11z"/>
<path d="M522 1070 c0 -14 2 -19 5 -12 2 6 2 18 0 25 -3 6 -5 1 -5 -13z"/>
<path d="M552 1020 c0 -14 2 -19 5 -12 2 6 2 18 0 25 -3 6 -5 1 -5 -13z"/>
<path d="M2410 1030 c0 -5 5 -10 10 -10 6 0 10 5 10 10 0 6 -4 10 -10 10 -5 0
-10 -4 -10 -10z"/>
<path d="M602 940 c0 -14 2 -19 5 -12 2 6 2 18 0 25 -3 6 -5 1 -5 -13z"/>
<path d="M700 859 c0 -5 9 -9 20 -9 11 0 20 2 20 4 0 2 -9 6 -20 9 -11 3 -20
1 -20 -4z"/>
<path d="M2268 853 c6 -2 18 -2 25 0 6 3 1 5 -13 5 -14 0 -19 -2 -12 -5z"/>
<path d="M752 820 c0 -14 2 -19 5 -12 2 6 2 18 0 25 -3 6 -5 1 -5 -13z"/>
<path d="M763 753 c9 -2 25 -2 35 0 9 3 1 5 -18 5 -19 0 -27 -2 -17 -5z"/>
<path d="M870 680 c0 -5 5 -10 11 -10 5 0 7 5 4 10 -3 6 -8 10 -11 10 -2 0 -4
-4 -4 -10z"/>
<path d="M970 580 c0 -5 5 -10 11 -10 5 0 7 5 4 10 -3 6 -8 10 -11 10 -2 0 -4
-4 -4 -10z"/>
<path d="M1020 579 c0 -5 5 -7 10 -4 6 3 10 8 10 11 0 2 -4 4 -10 4 -5 0 -10
-5 -10 -11z"/>
<path d="M1968 553 c6 -2 18 -2 25 0 6 3 1 5 -13 5 -14 0 -19 -2 -12 -5z"/>
<path d="M2018 553 c6 -2 18 -2 25 0 6 3 1 5 -13 5 -14 0 -19 -2 -12 -5z"/>
<path d="M1898 503 c12 -2 30 -2 40 0 9 3 -1 5 -23 4 -22 0 -30 -2 -17 -4z"/>
<path d="M1108 453 c7 -3 16 -2 19 1 4 3 -2 6 -13 5 -11 0 -14 -3 -6 -6z"/>
<path d="M1158 453 c6 -2 18 -2 25 0 6 3 1 5 -13 5 -14 0 -19 -2 -12 -5z"/>
<path d="M1363 453 c93 -2 241 -2 330 0 89 1 14 3 -168 3 -181 0 -254 -2 -162
-3z"/>
<path d="M1213 433 c9 -2 25 -2 35 0 9 3 1 5 -18 5 -19 0 -27 -2 -17 -5z"/>
<path d="M1372 433 c59 -2 158 -2 220 0 62 1 14 3 -107 3 -121 0 -172 -2 -113
-3z"/>
<path d="M1723 433 c9 -2 25 -2 35 0 9 3 1 5 -18 5 -19 0 -27 -2 -17 -5z"/>
<path d="M1168 403 c7 -3 16 -2 19 1 4 3 -2 6 -13 5 -11 0 -14 -3 -6 -6z"/>
<path d="M1208 403 c7 -3 16 -2 19 1 4 3 -2 6 -13 5 -11 0 -14 -3 -6 -6z"/>
<path d="M1393 403 c70 -2 184 -2 255 0 70 1 12 3 -128 3 -140 0 -198 -2 -127
-3z"/>
</g>
</svg>
