<?xml version="1.0" encoding="iso-8859-1"?>
<!-- Generator: Adobe Illustrator 18.0.0, SVG Export Plug-In . SVG Version: 6.00 Build 0)  -->
<!DOCTYPE svg PUBLIC "-//W3C//DTD SVG 1.1//EN" "http://www.w3.org/Graphics/SVG/1.1/DTD/svg11.dtd">
<svg version="1.1" id="Capa_1" xmlns="http://www.w3.org/2000/svg" xmlns:xlink="http://www.w3.org/1999/xlink" x="0px" y="0px"
	 viewBox="0 0 292.086 292.086" style="enable-background:new 0 0 292.086 292.086;" xml:space="preserve">
<g>
	<path d="M167.7,32.885H17.958C8.04,32.885,0,40.925,0,50.844v115.861c0,9.919,8.04,17.959,17.958,17.959H46.1l-31.172,67.463
		c-3.476,7.521-0.196,16.434,7.324,19.908c7.524,3.476,16.435,0.194,19.908-7.324l36.987-80.047h27.366l36.987,80.047
		c2.533,5.483,7.958,8.712,13.626,8.712c2.105,0,4.245-0.446,6.282-1.388c7.521-3.475,10.8-12.388,7.324-19.908l-31.173-67.463
		h28.14c9.919,0,17.959-8.04,17.959-17.959V50.844C185.659,40.925,177.619,32.885,167.7,32.885z"/>
	<path d="M283.458,21.277c-5.357-3.258-12.026-3.485-17.594-0.601l-51.104,26.484c-5.108,2.648-8.315,7.922-8.315,13.676v95.875
		c0,5.754,3.207,11.028,8.315,13.676l51.104,26.484c5.567,2.885,12.236,2.657,17.594-0.6c5.357-3.258,8.628-9.074,8.628-15.345
		V36.622C292.086,30.351,288.815,24.535,283.458,21.277z"/>
</g>
<g>
</g>
<g>
</g>
<g>
</g>
<g>
</g>
<g>
</g>
<g>
</g>
<g>
</g>
<g>
</g>
<g>
</g>
<g>
</g>
<g>
</g>
<g>
</g>
<g>
</g>
<g>
</g>
<g>
</g>
</svg>
