<?xml version="1.0" standalone="no"?>
<!DOCTYPE svg PUBLIC "-//W3C//DTD SVG 20010904//EN"
 "http://www.w3.org/TR/2001/REC-SVG-20010904/DTD/svg10.dtd">
<svg version="1.0" xmlns="http://www.w3.org/2000/svg"
 width="300.000000pt" height="300.000000pt" viewBox="0 0 300.000000 300.000000"
 preserveAspectRatio="xMidYMid meet">
<metadata>
Created by potrace 1.10, written by Peter Selinger 2001-2011
</metadata>
<g transform="translate(0.000000,300.000000) scale(0.100000,-0.100000)"
fill="#000000" stroke="none">
<path d="M2778 2463 c6 -2 18 -2 25 0 6 3 1 5 -13 5 -14 0 -19 -2 -12 -5z"/>
<path d="M2780 2431 c0 -6 -19 -11 -42 -12 -37 -1 -39 -2 -18 -9 24 -8 24 -8
3 -9 -14 -1 -23 -7 -23 -17 0 -8 -4 -13 -8 -10 -9 6 -42 -29 -42 -44 0 -6 -12
-10 -27 -10 -22 0 -25 -2 -13 -10 10 -6 11 -10 3 -10 -7 0 -13 -8 -14 -17 0
-15 -2 -15 -9 2 -8 18 -9 17 -9 -7 -1 -18 -6 -28 -16 -28 -8 0 -15 -7 -15 -15
0 -8 -7 -15 -17 -15 -9 0 -13 -3 -10 -6 9 -10 -25 -64 -40 -64 -7 0 -13 -7
-13 -15 0 -8 -4 -15 -9 -15 -5 0 -11 -10 -13 -22 -2 -15 -11 -24 -27 -26 -19
-3 -21 -6 -10 -13 10 -6 10 -9 2 -9 -7 0 -13 -7 -13 -15 0 -19 -20 -19 -56 0
-16 8 -38 15 -49 15 -17 0 -17 2 -5 10 11 7 0 10 -37 10 -40 0 -53 4 -53 15 0
11 -13 15 -52 17 l-53 1 45 7 c38 6 33 7 -38 8 -49 1 -81 6 -77 11 3 6 -3 10
-12 10 -10 0 -52 3 -93 8 -73 7 -74 8 -30 14 25 3 -139 6 -365 6 -227 1 -392
-3 -370 -7 22 -5 112 -6 200 -3 272 9 546 -19 775 -77 93 -24 236 -74 255 -90
9 -8 19 1 40 32 145 221 331 408 393 396 33 -6 22 -36 -38 -112 -159 -201
-285 -413 -371 -626 -39 -97 -50 -115 -68 -114 -15 0 -21 -5 -20 -20 0 -12 3
-15 6 -8 2 6 9 12 14 12 21 0 -23 -60 -90 -123 -112 -105 -275 -172 -451 -184
-69 -4 -92 -2 -118 11 -58 30 -69 89 -27 146 31 42 32 52 3 22 l-23 -22 -20
62 -20 63 -102 3 c-97 3 -103 2 -117 -20 -9 -13 -13 -35 -11 -48 3 -14 7 -36
10 -49 2 -13 12 -32 22 -43 15 -17 29 -19 119 -16 56 2 100 0 97 -5 -11 -18
21 -79 54 -101 l34 -24 -62 -7 c-34 -4 -159 -4 -277 0 l-214 7 40 18 c70 32
91 93 54 155 -22 36 -95 65 -161 65 -36 0 -49 -6 -77 -34 -27 -27 -34 -42 -34
-75 0 -42 17 -91 32 -91 4 0 8 -4 8 -9 0 -6 -11 -7 -27 -2 -16 5 -57 17 -93
26 -280 74 -430 146 -522 250 -45 52 -55 70 -63 126 -9 62 17 120 84 190 28
29 51 50 51 46 0 -4 9 2 19 12 29 29 174 97 301 142 63 22 97 36 75 33 -22 -4
-74 -7 -115 -7 l-75 0 60 -7 c33 -3 53 -7 45 -8 -8 -1 -63 -22 -123 -46 -62
-25 -119 -42 -135 -40 -26 4 -26 3 -2 -4 l24 -8 -36 -22 c-43 -27 -47 -27 -43
-4 1 9 0 11 -2 5 -3 -7 -11 -13 -19 -13 -8 0 -14 -4 -14 -10 0 -5 8 -6 18 -3
9 4 -8 -18 -39 -49 -98 -97 -122 -186 -75 -282 83 -169 374 -303 786 -363 155
-22 594 -25 735 -4 419 61 704 186 813 355 37 57 38 153 3 209 -13 21 -26 36
-28 33 -3 -3 5 -19 17 -36 20 -28 22 -40 17 -106 -3 -41 -9 -79 -13 -85 -4 -7
-18 7 -34 32 -31 49 -80 99 -80 81 0 -7 4 -12 8 -12 13 0 75 -87 79 -109 5
-32 -113 -132 -211 -179 -84 -40 -266 -103 -296 -101 -10 0 -11 2 -3 6 7 2 15
4 19 3 4 -1 10 2 13 7 3 5 24 20 46 33 55 33 128 103 167 161 21 29 42 49 58
52 14 3 36 9 49 13 20 6 23 4 18 -9 -4 -11 -1 -17 8 -17 17 0 20 25 5 35 -6 4
-6 15 0 31 15 37 11 53 -4 24 -8 -14 -12 -28 -10 -32 3 -5 -4 -8 -15 -8 -11 0
-23 -4 -26 -10 -3 -5 -15 -10 -27 -10 -15 0 -18 3 -10 13 5 6 22 44 37 82 42
106 146 309 212 412 63 100 203 282 217 283 4 0 1 -11 -8 -24 -11 -18 -13 -31
-7 -48 10 -23 10 -23 10 4 1 15 6 38 12 52 16 33 4 73 -24 81 -12 4 -30 9 -39
11 -10 3 -18 1 -18 -5z m-1184 -966 c6 -22 14 -51 17 -65 l6 -25 -108 0 -109
0 -6 52 c-3 28 -9 59 -12 68 -6 14 5 15 97 13 l103 -3 12 -40z m-417 -43 c19
-10 44 -29 55 -44 17 -25 18 -31 7 -66 -18 -53 -68 -76 -146 -68 -84 8 -115
33 -115 89 0 103 88 142 199 89z"/>
<path d="M1474 1471 c-25 -14 -30 -21 -22 -34 20 -36 86 -8 74 31 -8 25 -10
25 -52 3z"/>
<path d="M2893 2335 c0 -38 2 -53 4 -32 2 20 2 52 0 70 -2 17 -4 1 -4 -38z"/>
<path d="M2771 2381 c-9 -6 -5 -8 13 -8 14 0 26 3 26 8 0 11 -21 11 -39 0z"/>
<path d="M2743 2364 c3 -6 -8 -19 -25 -29 -35 -21 -105 -93 -168 -175 -24 -30
-47 -61 -53 -67 -5 -7 -7 -13 -4 -13 2 0 29 31 60 68 86 107 167 181 210 193
20 5 37 12 37 15 0 4 -7 3 -16 0 -9 -4 -24 -1 -32 6 -9 7 -13 8 -9 2z"/>
<path d="M2872 2320 c0 -14 2 -19 5 -12 2 6 2 18 0 25 -3 6 -5 1 -5 -13z"/>
<path d="M2767 2233 c-68 -85 -114 -157 -167 -262 l-41 -82 49 -54 c64 -69 82
-123 82 -238 0 -74 -4 -96 -22 -126 -28 -48 -93 -116 -143 -150 -72 -50 -209
-117 -285 -140 -41 -13 -84 -27 -95 -31 -23 -9 -219 -46 -320 -60 -38 -6 -163
-13 -277 -17 -193 -6 -240 -12 -187 -26 67 -18 483 11 634 44 318 69 608 214
675 339 23 43 21 11 -5 -87 -105 -396 -436 -678 -915 -780 -130 -27 -452 -25
-575 5 -254 60 -471 174 -628 327 -147 144 -213 264 -273 494 -8 30 -13 55
-11 57 1 2 18 -18 37 -44 21 -28 69 -70 120 -104 89 -60 180 -104 180 -87 0 9
-8 15 -122 79 -87 49 -162 122 -194 185 -23 49 -26 63 -22 147 3 76 8 102 29
143 18 34 23 57 18 70 -6 17 -8 16 -8 -8 -1 -16 -7 -35 -14 -42 -33 -37 -37
-47 -37 -80 0 -19 -5 -35 -11 -35 -5 0 -8 3 -6 8 3 4 1 16 -4 27 -4 11 -7 -61
-6 -160 0 -99 3 -142 4 -95 6 146 23 118 24 -40 1 -93 4 -131 9 -105 6 31 8
34 10 15 2 -14 4 -29 5 -35 2 -5 3 -18 4 -28 0 -10 5 -15 11 -12 6 4 11 -28
12 -87 l2 -93 6 70 c6 70 6 70 14 28 5 -24 12 -40 17 -37 5 3 9 -10 9 -28 0
-25 3 -29 10 -18 9 13 10 13 11 0 1 -8 1 -18 0 -22 0 -5 6 -8 14 -8 11 0 15
-12 16 -42 1 -40 2 -41 9 -13 l7 30 7 -27 c5 -16 12 -25 17 -22 5 3 9 -2 9
-10 0 -9 5 -16 10 -16 6 0 10 -5 10 -11 0 -5 -4 -7 -10 -4 -6 3 -10 1 -10 -4
0 -6 9 -11 20 -11 10 0 37 -18 60 -40 38 -37 52 -59 30 -45 -6 3 -10 1 -10 -4
0 -6 11 -11 25 -11 14 0 25 -4 25 -10 0 -5 7 -10 15 -10 8 0 15 -8 16 -17 0
-10 3 -13 6 -6 3 10 7 10 18 0 9 -9 10 -14 1 -19 -6 -4 1 -8 17 -8 17 0 27 -5
27 -15 0 -9 9 -15 25 -15 14 0 25 -4 25 -10 0 -5 7 -10 15 -10 8 0 15 -8 15
-17 0 -15 2 -16 10 -3 6 10 10 11 10 3 0 -7 11 -13 25 -13 20 0 25 -5 25 -25
0 -20 5 -25 23 -24 16 1 18 2 5 6 -10 2 -18 9 -18 14 0 14 17 11 34 -6 8 -8
21 -15 28 -16 7 0 4 -4 -7 -9 -18 -8 -17 -9 7 -9 14 -1 28 -6 30 -13 2 -6 12
-12 22 -14 16 -2 16 0 -3 20 -21 22 -20 22 66 -6 195 -63 518 -80 731 -38 47
9 190 50 227 66 13 5 10 -1 -10 -19 -28 -24 -29 -26 -7 -24 12 1 22 7 22 15 0
7 5 10 10 7 6 -3 10 1 10 9 0 9 5 16 11 16 6 0 17 7 26 16 9 8 22 13 29 10 8
-3 14 1 14 9 0 13 18 20 43 16 4 0 7 5 7 11 0 9 4 8 10 -2 8 -13 10 -12 10 3
0 9 7 17 15 17 8 0 15 5 15 10 0 6 29 10 67 10 36 0 64 3 60 6 -3 3 -26 6 -51
7 -69 1 -55 17 17 19 61 1 62 1 17 8 -25 4 -38 8 -29 8 9 1 22 9 29 17 7 9 19
14 27 11 7 -3 13 1 13 9 0 11 12 15 43 16 31 0 37 2 22 8 -11 5 -26 6 -32 4
-7 -3 -13 0 -13 6 0 6 15 11 33 12 27 0 29 2 12 9 -17 7 -17 9 -2 9 9 1 17 9
18 19 0 14 2 14 9 -3 8 -18 9 -17 9 8 1 17 7 27 16 27 9 0 12 6 9 15 -4 9 0
15 10 15 9 0 16 8 16 20 0 11 7 20 15 20 8 0 15 7 15 15 0 8 5 15 10 15 6 0
10 7 10 15 0 8 7 15 15 15 9 0 16 10 17 28 1 18 3 12 8 -18 7 -44 7 -44 8 18
1 39 6 61 12 57 6 -3 11 -1 11 4 1 6 3 16 4 21 1 6 4 18 5 28 2 9 6 -10 10
-43 6 -57 7 -55 9 35 1 73 4 91 12 77 6 -10 9 -27 6 -38 -3 -10 -1 -19 4 -19
5 0 10 39 11 88 l2 87 6 -90 c5 -76 7 -64 8 83 1 107 6 172 12 172 6 0 10 34
9 83 0 55 -3 75 -9 62 -6 -15 -9 -5 -9 35 -1 39 -4 51 -11 40 -7 -11 -10 -5
-10 23 0 20 -5 37 -11 37 -5 0 -7 -4 -4 -10 3 -5 1 -10 -4 -10 -6 0 -11 12
-11 26 0 14 -4 23 -8 20 -5 -3 -16 4 -25 15 -18 21 -24 89 -7 89 5 0 12 11 16
25 3 14 10 22 15 19 5 -3 9 9 9 25 0 17 5 31 11 31 5 0 8 -4 4 -9 -3 -5 -1
-12 5 -16 6 -4 11 11 11 37 l2 43 7 -35 7 -35 2 43 c1 31 5 42 17 42 8 0 13 4
10 9 -4 5 -3 17 1 27 6 16 7 16 14 -2 7 -17 8 -17 10 -1 1 9 2 21 3 26 0 5 11
18 24 29 12 11 22 28 22 38 0 14 2 16 9 6 6 -10 10 -6 14 15 3 15 4 29 2 31
-2 2 -28 -27 -58 -65z"/>
<path d="M1188 2213 c7 -3 16 -2 19 1 4 3 -2 6 -13 5 -11 0 -14 -3 -6 -6z"/>
<path d="M1308 2213 c7 -3 16 -2 19 1 4 3 -2 6 -13 5 -11 0 -14 -3 -6 -6z"/>
<path d="M1443 2213 c26 -2 67 -2 90 0 23 2 2 3 -48 3 -49 0 -68 -1 -42 -3z"/>
<path d="M1638 2213 c7 -3 16 -2 19 1 4 3 -2 6 -13 5 -11 0 -14 -3 -6 -6z"/>
<path d="M1098 2193 c7 -3 16 -2 19 1 4 3 -2 6 -13 5 -11 0 -14 -3 -6 -6z"/>
<path d="M1188 2193 c7 -3 16 -2 19 1 4 3 -2 6 -13 5 -11 0 -14 -3 -6 -6z"/>
<path d="M1263 2193 c9 -2 23 -2 30 0 6 3 -1 5 -18 5 -16 0 -22 -2 -12 -5z"/>
<path d="M1311 2195 c8 -8 159 -12 159 -4 0 3 -37 7 -82 8 -45 1 -80 -1 -77
-4z"/>
<path d="M1480 2192 c0 -8 240 -5 249 3 2 3 -53 5 -122 5 -70 0 -127 -3 -127
-8z"/>
<path d="M1848 2193 c12 -2 30 -2 40 0 9 3 -1 5 -23 4 -22 0 -30 -2 -17 -4z"/>
<path d="M2470 2190 c0 -5 5 -10 10 -10 6 0 10 5 10 10 0 6 -4 10 -10 10 -5 0
-10 -4 -10 -10z"/>
<path d="M2452 2150 c0 -14 2 -19 5 -12 2 6 2 18 0 25 -3 6 -5 1 -5 -13z"/>
<path d="M1050 2140 l-55 -7 45 -2 c25 0 56 -4 70 -6 22 -5 23 -4 5 5 -17 9
-15 10 12 7 18 -2 30 0 27 5 -6 9 -19 8 -104 -2z"/>
<path d="M738 2113 c12 -2 30 -2 40 0 9 3 -1 5 -23 4 -22 0 -30 -2 -17 -4z"/>
<path d="M890 2110 c41 -4 66 -7 56 -8 -11 -1 -17 -4 -14 -7 2 -3 36 1 74 8
l69 12 -130 1 c-107 0 -117 -1 -55 -6z"/>
<path d="M2218 2113 c6 -2 18 -2 25 0 6 3 1 5 -13 5 -14 0 -19 -2 -12 -5z"/>
<path d="M708 2093 c6 -2 18 -2 25 0 6 3 1 5 -13 5 -14 0 -19 -2 -12 -5z"/>
<path d="M750 2091 c0 -3 39 -6 87 -7 60 0 77 2 57 8 -33 9 -144 8 -144 -1z"/>
<path d="M2218 2093 c6 -2 18 -2 25 0 6 3 1 5 -13 5 -14 0 -19 -2 -12 -5z"/>
<path d="M1448 2073 c23 -2 59 -2 80 0 20 2 1 4 -43 4 -44 0 -61 -2 -37 -4z"/>
<path d="M1225 2060 c-3 -5 -1 -10 4 -10 6 0 11 5 11 10 0 6 -2 10 -4 10 -3 0
-8 -4 -11 -10z"/>
<path d="M1293 2063 c9 -2 23 -2 30 0 6 3 -1 5 -18 5 -16 0 -22 -2 -12 -5z"/>
<path d="M1643 2063 c9 -2 23 -2 30 0 6 3 -1 5 -18 5 -16 0 -22 -2 -12 -5z"/>
<path d="M1720 2060 c0 -5 7 -10 16 -10 8 0 12 5 9 10 -3 6 -10 10 -16 10 -5
0 -9 -4 -9 -10z"/>
<path d="M2469 2053 c-13 -16 -12 -17 4 -4 9 7 17 15 17 17 0 8 -8 3 -21 -13z"/>
<path d="M458 2013 c6 -2 18 -2 25 0 6 3 1 5 -13 5 -14 0 -19 -2 -12 -5z"/>
<path d="M508 2013 c6 -2 18 -2 25 0 6 3 1 5 -13 5 -14 0 -19 -2 -12 -5z"/>
<path d="M563 2013 c9 -2 25 -2 35 0 9 3 1 5 -18 5 -19 0 -27 -2 -17 -5z"/>
<path d="M2667 1990 c-3 -11 -1 -20 4 -20 5 0 9 9 9 20 0 11 -2 20 -4 20 -2 0
-6 -9 -9 -20z"/>
<path d="M508 1983 c6 -2 18 -2 25 0 6 3 1 5 -13 5 -14 0 -19 -2 -12 -5z"/>
<path d="M1310 1981 c-19 -3 48 -7 150 -8 159 -1 412 -22 459 -39 7 -2 46 -11
85 -19 75 -16 203 -54 248 -75 23 -11 25 -15 16 -36 -6 -13 -15 -24 -20 -24
-4 0 -8 -5 -8 -11 0 -6 -13 -28 -30 -49 -27 -34 -64 -56 -156 -90 -15 -6 -25
-13 -22 -15 7 -8 124 41 159 66 17 12 59 65 93 118 71 110 87 137 57 101 -11
-14 -23 -33 -27 -43 -4 -12 -11 -16 -22 -12 -140 56 -329 104 -492 125 -100
13 -439 21 -490 11z"/>
<path d="M1238 1973 c6 -2 18 -2 25 0 6 3 1 5 -13 5 -14 0 -19 -2 -12 -5z"/>
<path d="M2642 1940 c0 -14 2 -19 5 -12 2 6 2 18 0 25 -3 6 -5 1 -5 -13z"/>
<path d="M2672 1940 c0 -14 2 -19 5 -12 2 6 2 18 0 25 -3 6 -5 1 -5 -13z"/>
<path d="M450 1939 c0 -5 5 -7 10 -4 6 3 10 8 10 11 0 2 -4 4 -10 4 -5 0 -10
-5 -10 -11z"/>
<path d="M2691 1934 c0 -11 3 -14 6 -6 3 7 2 16 -1 19 -3 4 -6 -2 -5 -13z"/>
<path d="M1415 1862 c-42 -56 -52 -89 -35 -105 10 -9 11 -9 6 1 -4 7 9 38 30
72 l37 60 56 -6 c31 -4 57 -8 59 -9 4 -3 -49 -96 -70 -124 -28 -36 -19 -121
13 -121 6 0 3 10 -5 22 -21 29 -21 62 -1 54 11 -4 15 1 15 18 0 34 40 42 94
17 24 -10 47 -24 51 -30 14 -24 -5 -61 -43 -81 -35 -20 -36 -21 -7 -15 45 10
65 33 65 75 0 47 -21 66 -90 81 -44 9 -51 14 -38 23 8 6 18 28 22 48 8 43 -2
52 -77 61 -47 7 -47 7 -82 -41z"/>
<path d="M375 1890 c-3 -5 -1 -10 4 -10 6 0 11 5 11 10 0 6 -2 10 -4 10 -3 0
-8 -4 -11 -10z"/>
<path d="M1276 1853 l-30 -25 33 7 c24 5 31 4 27 -4 -4 -6 -3 -11 2 -11 16 0
21 27 9 44 -11 13 -15 12 -41 -11z"/>
<path d="M2537 1873 c-14 -24 -48 -163 -45 -179 4 -15 6 -12 12 11 4 17 17 60
28 98 12 37 18 70 15 73 -3 3 -7 2 -10 -3z"/>
<path d="M341 1854 c-7 -8 -11 -17 -9 -20 3 -2 13 5 23 16 10 11 14 20 9 20
-5 -1 -15 -8 -23 -16z"/>
<path d="M1860 1821 c0 -29 28 -53 54 -45 24 8 36 22 36 46 0 15 -4 16 -24 7
-17 -8 -29 -8 -45 0 -18 10 -21 9 -21 -8z"/>
<path d="M1055 1781 c-39 -21 -75 -48 -81 -61 -7 -12 -11 -58 -10 -102 l1 -80
40 -22 c49 -27 78 -39 71 -28 -2 4 -27 19 -55 32 -49 23 -51 25 -50 64 0 23 4
61 7 85 7 42 11 47 76 87 59 36 73 40 93 31 17 -7 23 -18 23 -42 0 -17 5 -36
12 -43 22 -22 27 -12 12 24 l-15 37 26 -5 c25 -5 25 -5 9 13 -9 11 -13 19 -8
20 5 0 24 2 42 3 47 5 86 -27 78 -66 -3 -18 -2 -27 4 -23 6 3 10 22 10 40 0
39 -22 58 -78 70 -23 5 -40 2 -57 -9 -22 -15 -28 -15 -53 -2 -26 14 -32 12
-97 -23z"/>
<path d="M220 1790 c0 -5 5 -10 11 -10 5 0 7 5 4 10 -3 6 -8 10 -11 10 -2 0
-4 -4 -4 -10z"/>
<path d="M202 1750 c0 -14 2 -19 5 -12 2 6 2 18 0 25 -3 6 -5 1 -5 -13z"/>
<path d="M1402 1765 c11 -11 68 -23 73 -15 3 4 -5 10 -18 14 -28 7 -62 8 -55
1z"/>
<path d="M805 1740 c-10 -11 -24 -20 -32 -20 -17 0 -17 -15 2 -30 20 -17 65 2
65 27 0 35 -15 45 -35 23z m15 -30 c0 -5 -4 -10 -9 -10 -6 0 -13 5 -16 10 -3
6 1 10 9 10 9 0 16 -4 16 -10z"/>
<path d="M1240 1746 c0 -2 9 -6 20 -9 11 -3 18 -1 14 4 -5 9 -34 13 -34 5z"/>
<path d="M1734 1703 c-42 -65 -47 -73 -37 -73 5 0 17 15 28 33 10 17 24 38 31
44 7 7 14 17 16 23 2 7 20 7 57 0 62 -12 118 -13 107 -3 -8 8 -9 8 -101 17
l-70 6 -31 -47z"/>
<path d="M2264 1707 c-12 -6 -38 -25 -57 -40 -19 -15 -79 -45 -133 -67 -55
-21 -94 -39 -89 -39 25 -1 198 69 229 93 36 27 56 33 56 16 0 -16 49 -23 65
-10 8 7 15 21 15 32 0 10 5 16 10 13 16 -10 12 -30 -16 -70 -15 -23 -22 -41
-16 -47 9 -9 52 81 52 108 0 22 -51 30 -62 10 -5 -9 -19 -15 -31 -15 -17 1
-18 2 -4 6 9 2 17 9 17 14 0 12 -11 11 -36 -4z m56 -31 c0 -2 -7 -6 -15 -10
-8 -3 -15 -1 -15 4 0 6 7 10 15 10 8 0 15 -2 15 -4z"/>
<path d="M2741 1704 c0 -11 3 -14 6 -6 3 7 2 16 -1 19 -3 4 -6 -2 -5 -13z"/>
<path d="M1210 1669 l-64 -41 -45 22 c-26 13 -62 29 -81 37 -31 14 -33 14 -21
-1 15 -18 113 -66 135 -66 8 0 17 -10 19 -22 4 -21 4 -21 6 -3 0 12 15 29 31
38 17 10 30 22 30 26 0 5 13 11 28 14 17 3 29 12 29 21 0 9 -1 16 -2 16 -1 0
-30 -18 -65 -41z"/>
<path d="M1815 1700 c-3 -5 -15 -10 -26 -10 -10 0 -19 -4 -19 -10 0 -13 3 -13
35 2 14 6 25 15 25 20 0 11 -7 10 -15 -2z"/>
<path d="M1913 1651 c-37 -67 -42 -97 -16 -87 9 4 39 14 65 23 39 12 48 20 48
39 0 20 -3 22 -35 17 -38 -6 -41 -1 -25 41 17 47 -4 27 -37 -33z m21 -46 c3
-9 0 -15 -9 -15 -8 0 -15 7 -15 15 0 8 4 15 9 15 5 0 11 -7 15 -15z"/>
<path d="M204 1485 c0 -121 2 -169 3 -107 2 62 2 161 0 220 -1 59 -3 8 -3
-113z"/>
<path d="M635 1689 c-4 -5 1 -20 12 -31 12 -14 14 -22 6 -25 -6 -2 -30 -17
-52 -34 l-41 -29 7 -62 c5 -60 29 -121 43 -113 4 2 31 -2 61 -10 63 -17 77
-19 63 -6 -5 4 -39 16 -76 26 l-66 17 -7 70 c-4 38 -6 70 -4 72 20 15 118 76
123 76 3 0 5 -5 4 -12 -4 -15 32 -23 41 -10 4 7 22 7 55 0 l48 -10 -65 -43
-64 -44 9 -58 c12 -81 19 -89 13 -16 l-4 61 53 41 c30 22 56 37 60 34 3 -4 6
0 6 9 0 24 -33 47 -70 50 -19 1 -55 15 -79 30 -48 30 -66 34 -76 17z m45 -29
c0 -5 -4 -10 -9 -10 -6 0 -13 5 -16 10 -3 6 1 10 9 10 9 0 16 -4 16 -10z"/>
<path d="M1290 1665 c-17 -18 -21 -28 -13 -36 7 -7 12 -2 17 16 6 25 10 27 42
22 20 -3 42 -11 50 -18 17 -14 18 -51 2 -67 -19 -19 -76 -14 -98 8 -11 11 -20
16 -20 12 0 -34 79 -54 121 -32 28 16 26 75 -3 94 -45 29 -72 29 -98 1z"/>
<path d="M2211 1594 c-30 -30 -50 -54 -45 -54 12 0 110 98 103 104 -2 2 -28
-20 -58 -50z"/>
<path d="M1522 1608 c-17 -17 -15 -45 4 -52 22 -8 24 -8 24 8 0 7 7 19 15 26
13 11 13 15 3 21 -18 12 -32 11 -46 -3z"/>
<path d="M1713 1612 c4 -5 28 -13 54 -16 27 -4 60 -9 76 -12 32 -7 37 11 5 19
-56 13 -141 19 -135 9z"/>
<path d="M2743 1535 c0 -38 2 -53 4 -32 2 20 2 52 0 70 -2 17 -4 1 -4 -38z"/>
<path d="M1147 1563 c-4 -3 -6 -27 -6 -52 l1 -46 9 50 c8 51 7 60 -4 48z"/>
<path d="M1794 1536 c-51 -27 -99 -77 -83 -87 8 -4 5 -10 -7 -17 -18 -10 -18
-11 0 -31 24 -26 38 -26 61 -1 15 16 15 20 3 20 -20 0 -52 36 -43 49 3 6 39
29 78 51 73 41 65 56 -9 16z"/>
<path d="M2232 1539 c-17 -27 -15 -37 13 -55 24 -16 27 -16 45 1 20 18 20 18
-2 33 -13 8 -28 21 -34 28 -8 10 -13 9 -22 -7z m33 -30 c11 -17 -1 -21 -15 -4
-8 9 -8 15 -2 15 6 0 14 -5 17 -11z"/>
<path d="M606 1541 c6 -6 19 -13 30 -15 10 -2 32 -7 48 -12 20 -5 27 -3 22 4
-3 6 -21 13 -39 17 -17 4 -41 9 -52 12 -15 4 -17 2 -9 -6z"/>
<path d="M1948 1529 c-21 -23 -38 -25 -38 -4 0 8 -7 15 -15 15 -8 0 -15 -7
-15 -15 0 -8 7 -15 15 -15 8 0 15 -4 15 -9 0 -5 7 -12 16 -15 8 -3 12 -2 9 4
-6 10 29 32 39 23 3 -3 0 -13 -6 -22 -10 -14 -9 -14 6 0 12 11 16 24 11 38 -8
25 -15 25 -37 0z"/>
<path d="M2660 1541 c0 -5 -25 -36 -55 -70 -30 -34 -55 -59 -55 -55 0 4 -10
-2 -22 -13 -28 -25 -182 -111 -206 -115 -9 -2 -51 -20 -92 -40 -68 -35 -116
-51 -80 -28 10 7 11 10 2 10 -7 0 -15 -6 -18 -14 -7 -18 -44 -28 -44 -13 0 7
-5 5 -10 -3 -5 -8 -10 -11 -10 -5 0 5 -5 4 -11 -2 -6 -6 -18 -9 -25 -6 -8 3
-14 1 -14 -5 0 -5 -26 -12 -57 -16 -78 -9 -107 -27 -33 -20 30 2 62 7 70 10 8
3 26 8 40 10 115 20 196 48 353 124 124 59 206 123 253 196 37 57 39 64 24 64
-5 0 -10 -4 -10 -9z"/>
<path d="M2058 1514 c-16 -8 -28 -21 -28 -28 0 -8 -13 -19 -30 -25 -16 -5 -30
-12 -30 -15 0 -8 129 41 157 60 24 15 26 15 20 0 -4 -10 -3 -15 3 -11 6 3 10
13 10 21 0 19 -66 18 -102 -2z"/>
<path d="M2469 1513 c-3 -23 -4 -28 -13 -41 -10 -17 -3 -24 17 -16 23 8 28 29
12 51 -9 11 -15 13 -16 6z"/>
<path d="M885 1479 c-14 -43 53 -70 75 -30 14 27 13 31 -5 25 -8 -4 -26 1 -39
10 -23 15 -25 14 -31 -5z"/>
<path d="M1774 1475 c-10 -8 -14 -15 -8 -15 5 0 19 7 30 15 10 8 14 15 8 15
-5 0 -19 -7 -30 -15z"/>
<path d="M1862 1432 c4 -32 28 -47 60 -39 25 7 42 37 29 53 -3 5 -25 9 -49 10
-40 1 -43 -1 -40 -24z m45 -8 c-3 -3 -12 -4 -19 -1 -8 3 -5 6 6 6 11 1 17 -2
13 -5z"/>
<path d="M2068 1415 c-8 -19 -8 -28 2 -40 12 -15 15 -14 27 9 8 14 19 26 26
26 13 1 -21 30 -35 30 -5 0 -13 -11 -20 -25z"/>
<path d="M1666 1374 c-22 -58 7 -102 72 -111 35 -5 41 -3 47 17 4 13 26 44 49
69 29 32 34 41 16 30 -14 -9 -38 -36 -55 -61 -27 -41 -33 -45 -60 -40 -49 8
-68 31 -61 74 6 39 3 50 -8 22z"/>
<path d="M222 1340 c0 -14 2 -19 5 -12 2 6 2 18 0 25 -3 6 -5 1 -5 -13z"/>
<path d="M1580 1229 c0 -5 5 -7 10 -4 6 3 10 8 10 11 0 2 -4 4 -10 4 -5 0 -10
-5 -10 -11z"/>
<path d="M2666 1182 c-2 -4 -1 -14 5 -22 7 -12 9 -10 9 8 0 23 -5 28 -14 14z"/>
<path d="M765 1171 c11 -5 36 -11 55 -15 32 -5 33 -5 10 5 -14 6 -38 13 -55
15 -24 3 -26 2 -10 -5z"/>
<path d="M720 1144 c0 -3 11 -9 25 -14 37 -14 81 -24 74 -16 -7 8 -99 36 -99
30z"/>
<path d="M861 1146 c2 -2 18 -6 34 -10 22 -5 26 -4 15 4 -14 9 -59 15 -49 6z"/>
<path d="M1808 1133 c7 -3 16 -2 19 1 4 3 -2 6 -13 5 -11 0 -14 -3 -6 -6z"/>
<path d="M1848 1133 c7 -3 16 -2 19 1 4 3 -2 6 -13 5 -11 0 -14 -3 -6 -6z"/>
<path d="M838 1108 c5 -5 16 -8 23 -6 8 3 3 7 -10 11 -17 4 -21 3 -13 -5z"/>
<path d="M332 1090 c0 -14 2 -19 5 -12 2 6 2 18 0 25 -3 6 -5 1 -5 -13z"/>
<path d="M888 1093 c6 -2 18 -2 25 0 6 3 1 5 -13 5 -14 0 -19 -2 -12 -5z"/>
<path d="M1218 1073 c7 -3 16 -2 19 1 4 3 -2 6 -13 5 -11 0 -14 -3 -6 -6z"/>
<path d="M1258 1073 c6 -2 18 -2 25 0 6 3 1 5 -13 5 -14 0 -19 -2 -12 -5z"/>
<path d="M1295 1060 c-4 -6 3 -10 14 -10 25 0 27 6 6 13 -8 4 -17 2 -20 -3z"/>
<path d="M2565 1030 c-3 -5 -1 -10 4 -10 6 0 11 5 11 10 0 6 -2 10 -4 10 -3 0
-8 -4 -11 -10z"/>
<path d="M2542 990 c0 -14 2 -19 5 -12 2 6 2 18 0 25 -3 6 -5 1 -5 -13z"/>
<path d="M475 900 c3 -5 8 -10 11 -10 2 0 4 5 4 10 0 6 -5 10 -11 10 -5 0 -7
-4 -4 -10z"/>
<path d="M2492 890 c0 -14 2 -19 5 -12 2 6 2 18 0 25 -3 6 -5 1 -5 -13z"/>
<path d="M508 823 c6 -2 18 -2 25 0 6 3 1 5 -13 5 -14 0 -19 -2 -12 -5z"/>
<path d="M608 753 c6 -2 18 -2 25 0 6 3 1 5 -13 5 -14 0 -19 -2 -12 -5z"/>
<path d="M650 729 c0 -5 9 -9 20 -9 11 0 20 2 20 4 0 2 -9 6 -20 9 -11 3 -20
1 -20 -4z"/>
<path d="M608 723 c6 -2 18 -2 25 0 6 3 1 5 -13 5 -14 0 -19 -2 -12 -5z"/>
<path d="M800 649 c0 -5 5 -7 10 -4 6 3 10 8 10 11 0 2 -4 4 -10 4 -5 0 -10
-5 -10 -11z"/>
<path d="M808 623 c6 -2 18 -2 25 0 6 3 1 5 -13 5 -14 0 -19 -2 -12 -5z"/>
<path d="M2068 623 c6 -2 18 -2 25 0 6 3 1 5 -13 5 -14 0 -19 -2 -12 -5z"/>
<path d="M1000 554 c0 -8 4 -13 9 -9 5 3 12 1 15 -4 4 -5 -2 -12 -11 -14 -10
-3 7 -6 37 -7 l55 -3 -55 -7 -55 -7 75 -2 c123 -2 138 -15 25 -22 -95 -5 -93
-5 52 -7 89 -1 153 -6 155 -12 3 -9 175 -16 283 -11 38 2 45 4 30 11 -12 5 55
10 175 11 188 3 190 3 70 9 -140 6 -131 19 15 22 87 1 88 2 30 8 -50 5 -53 7
-20 8 30 2 36 5 25 12 -13 8 -12 10 5 11 11 1 23 1 28 0 4 0 7 5 7 13 0 11
-11 10 -52 -7 -29 -12 -56 -26 -59 -30 -3 -5 -10 -8 -15 -7 -18 3 -94 -11 -94
-18 0 -11 -120 -17 -295 -15 -140 1 -173 4 -260 28 -55 15 -108 28 -117 28 -9
1 -15 3 -13 6 5 5 -26 30 -37 31 -5 0 -8 -7 -8 -16z"/>
<path d="M1968 523 c6 -2 18 -2 25 0 6 3 1 5 -13 5 -14 0 -19 -2 -12 -5z"/>
<path d="M958 473 c6 -2 18 -2 25 0 6 3 1 5 -13 5 -14 0 -19 -2 -12 -5z"/>
<path d="M1268 453 c7 -3 16 -2 19 1 4 3 -2 6 -13 5 -11 0 -14 -3 -6 -6z"/>
<path d="M1648 453 c6 -2 18 -2 25 0 6 3 1 5 -13 5 -14 0 -19 -2 -12 -5z"/>
<path d="M1093 423 c9 -2 25 -2 35 0 9 3 1 5 -18 5 -19 0 -27 -2 -17 -5z"/>
<path d="M1158 423 c6 -2 18 -2 25 0 6 3 1 5 -13 5 -14 0 -19 -2 -12 -5z"/>
<path d="M1363 423 c65 -2 168 -2 230 0 62 1 9 3 -118 3 -126 0 -177 -2 -112
-3z"/>
<path d="M1718 423 c6 -2 18 -2 25 0 6 3 1 5 -13 5 -14 0 -19 -2 -12 -5z"/>
<path d="M1798 423 c6 -2 18 -2 25 0 6 3 1 5 -13 5 -14 0 -19 -2 -12 -5z"/>
<path d="M1353 403 c70 -2 184 -2 255 0 70 1 12 3 -128 3 -140 0 -198 -2 -127
-3z"/>
<path d="M1348 373 c83 -2 221 -2 305 0 83 1 15 3 -153 3 -168 0 -236 -2 -152
-3z"/>
</g>
</svg>
